<svg xmlns="http://www.w3.org/2000/svg" viewBox="0 0 500 500"><g id="freepik--background-complete--inject-307"><circle cx="27.12" cy="292.64" r="12.79" style="fill:#f5f5f5"></circle><rect x="20.44" y="301.22" width="13.38" height="159.54" style="fill:#f5f5f5"></rect><path d="M35.88,306.09H18.78a1.69,1.69,0,0,1-1.69-1.69h0a1.7,1.7,0,0,1,1.69-1.7h17.1a1.7,1.7,0,0,1,1.69,1.7h0A1.69,1.69,0,0,1,35.88,306.09Z" style="fill:#f5f5f5"></path><circle cx="462.91" cy="292.64" r="12.79" style="fill:#f5f5f5"></circle><polygon points="469.6 460.76 456.22 460.27 456.22 301.21 469.6 301.21 469.6 460.76" style="fill:#f5f5f5"></polygon><path d="M471.66,306.09H454.57a1.69,1.69,0,0,1-1.69-1.69h0a1.7,1.7,0,0,1,1.69-1.7h17.09a1.7,1.7,0,0,1,1.7,1.7h0A1.69,1.69,0,0,1,471.66,306.09Z" style="fill:#f5f5f5"></path><path d="M27.33,326.82s62-45,210.33-47.69,226.89,43.1,226.89,43.1,2.59,138,0,138H27.33Z" style="fill:#f5f5f5"></path><path d="M33.7,460.67c-.15,0-.26-33.09-.26-73.91s.11-73.92.26-73.92.26,33.09.26,73.92S33.84,460.67,33.7,460.67Z" style="fill:#e0e0e0"></path><path d="M456,460.67c-.15,0-.26-33.09-.26-73.91s.11-73.92.26-73.92.26,33.09.26,73.92S456.12,460.67,456,460.67Z" style="fill:#e0e0e0"></path><rect x="367.71" y="77.38" width="87.44" height="126.74" style="fill:#e0e0e0"></rect><rect x="363.32" y="77.38" width="87.44" height="126.74" style="fill:#f5f5f5"></rect><rect x="374.19" y="91.11" width="65.71" height="99.29" style="fill:#fff"></rect><path d="M439.9,190.4s0-.17,0-.48,0-.8,0-1.41c0-1.25,0-3.08,0-5.45,0-4.76,0-11.69-.06-20.45,0-17.51-.06-42.3-.1-71.5l.21.22-65.7,0h0l.24-.24c0,37.46,0,72-.05,99.29l-.19-.19,47.83.1,13.22.05,3.46,0,1.2,0-1.16,0-3.43,0-13.17.05-47.95.1H374v-.19c0-27.3,0-61.83-.05-99.29v-.24h.25l65.7,0h.22v.22c0,29.26-.08,54.1-.11,71.64,0,8.74,0,15.66-.05,20.41,0,2.35,0,4.16,0,5.4,0,.6,0,1.06,0,1.38S439.9,190.4,439.9,190.4Z" style="fill:#e0e0e0"></path><path d="M451,77.38a14.87,14.87,0,0,1-1.56,2.27c-1,1.36-2.45,3.2-4.1,5.2s-3.18,3.77-4.32,5a16.91,16.91,0,0,1-1.92,2,15.87,15.87,0,0,1,1.67-2.18l4.2-5.11,4.21-5.11A17.25,17.25,0,0,1,451,77.38Z" style="fill:#e0e0e0"></path><path d="M440.24,190.08a81.62,81.62,0,0,0,11.46,14.34" style="fill:#fff"></path><path d="M451.7,204.42a14.24,14.24,0,0,1-2-1.82,65,65,0,0,1-4.32-4.88,63.52,63.52,0,0,1-3.81-5.29,13.85,13.85,0,0,1-1.33-2.35,17.51,17.51,0,0,1,1.61,2.16c1,1.35,2.32,3.21,3.9,5.18s3.09,3.71,4.2,5A18.75,18.75,0,0,1,451.7,204.42Z" style="fill:#e0e0e0"></path><path d="M363.31,204l11.46-14.13" style="fill:#fff"></path><path d="M374.77,189.9a87.65,87.65,0,0,1-5.55,7.21,88.84,88.84,0,0,1-5.91,6.92,89.84,89.84,0,0,1,5.54-7.22A84.12,84.12,0,0,1,374.77,189.9Z" style="fill:#e0e0e0"></path><path d="M363.32,77.38A77,77,0,0,1,368.88,84,79.7,79.7,0,0,1,374.07,91a79.48,79.48,0,0,1-5.56-6.65A79.7,79.7,0,0,1,363.32,77.38Z" style="fill:#e0e0e0"></path><rect x="397.43" y="111.27" width="22" height="62.48" style="fill:#e0e0e0"></rect><rect x="49.99" y="77.38" width="87.44" height="126.74" style="fill:#e0e0e0"></rect><rect x="45.61" y="77.38" width="87.44" height="126.74" style="fill:#f5f5f5"></rect><rect x="56.48" y="91.11" width="65.71" height="99.29" style="fill:#fff"></rect><path d="M122.19,190.4s0-.17,0-.48,0-.8,0-1.41c0-1.25,0-3.08,0-5.45,0-4.76,0-11.69-.06-20.45,0-17.51-.06-42.3-.11-71.5l.22.22-65.71,0h0l.23-.24c0,37.46,0,72,0,99.29l-.19-.19,47.83.1,13.21.05,3.47,0,1.2,0-1.16,0-3.43,0-13.17.05-48,.1h-.19v-.19c0-27.3,0-61.83,0-99.29v-.24h.24l65.71,0h.22v.22c0,29.26-.08,54.1-.11,71.64,0,8.74,0,15.66-.06,20.41,0,2.35,0,4.16,0,5.4,0,.6,0,1.06,0,1.38S122.19,190.4,122.19,190.4Z" style="fill:#e0e0e0"></path><path d="M133.3,77.38a14.87,14.87,0,0,1-1.56,2.27c-1,1.36-2.46,3.2-4.1,5.2s-3.18,3.77-4.32,5a15.53,15.53,0,0,1-1.93,2,17,17,0,0,1,1.67-2.18c1.17-1.43,2.62-3.17,4.21-5.11l4.21-5.11A17.25,17.25,0,0,1,133.3,77.38Z" style="fill:#e0e0e0"></path><path d="M122.53,190.08A81.16,81.16,0,0,0,134,204.42" style="fill:#fff"></path><path d="M134,204.42a13,13,0,0,1-2-1.82,62.82,62.82,0,0,1-4.32-4.88,63.52,63.52,0,0,1-3.81-5.29,12.28,12.28,0,0,1-1.33-2.35,20.44,20.44,0,0,1,1.61,2.16c1,1.35,2.32,3.21,3.9,5.18s3.09,3.71,4.19,5A18.3,18.3,0,0,1,134,204.42Z" style="fill:#e0e0e0"></path><path d="M45.6,204,57.05,189.9" style="fill:#fff"></path><path d="M57.05,189.9a88.76,88.76,0,0,1-5.54,7.21A88.84,88.84,0,0,1,45.6,204a89.84,89.84,0,0,1,5.54-7.22A85.28,85.28,0,0,1,57.05,189.9Z" style="fill:#e0e0e0"></path><path d="M45.61,77.38A81.53,81.53,0,0,1,51.17,84,79.7,79.7,0,0,1,56.36,91a77.26,77.26,0,0,1-5.56-6.65A79.7,79.7,0,0,1,45.61,77.38Z" style="fill:#e0e0e0"></path><rect x="79.71" y="111.27" width="22" height="62.48" style="fill:#e0e0e0"></rect></g><g id="freepik--Line--inject-307"><path d="M478,460.76c0,.14-104.77.26-234,.26s-234-.12-234-.26,104.75-.26,234-.26S478,460.61,478,460.76Z" style="fill:#263238"></path></g><g id="freepik--Cushions--inject-307"><path d="M194.72,291c1-2.27,2.19-4.65,4.32-5.95s4.79-1.27,7.29-1.17a337.55,337.55,0,0,1,97.93,19c4.76,1.69,9.87,3.8,12.35,8.21,2.93,5.22,1.14,11.72-.7,17.41-5.28,16.29-10.62,32.71-19.17,47.55-8.11,14.07-13.28,27.87-27.14,35.2a7,7,0,0,1-4.61.67l-82.65-16.57A6.89,6.89,0,0,1,176.8,389,208.28,208.28,0,0,1,194.72,291Z" style="fill:#455a64"></path><path d="M194.72,291s-.14.36-.43,1.06L193,295.11c-.6,1.35-1.26,3.06-2,5.07s-1.65,4.34-2.59,7a209.27,209.27,0,0,0-11.47,78.94c0,.74.07,1.48.1,2.22a7.78,7.78,0,0,0,.31,2.16,6.76,6.76,0,0,0,4.52,4.45c.71.19,1.49.31,2.24.47l4.59.92,19,3.8,40.81,8.16,10.7,2.15,5.42,1.08a6.77,6.77,0,0,0,5.2-.72,37.07,37.07,0,0,0,8.89-6.71,54.33,54.33,0,0,0,7-8.93c4.11-6.44,7.39-13.28,11.13-19.73a159.89,159.89,0,0,0,9.42-19.84c2.66-6.7,5-13.4,7.14-20,1.07-3.29,2.18-6.56,3.16-9.79a26.65,26.65,0,0,0,1.36-9.83,11.64,11.64,0,0,0-4.39-8.27,28.67,28.67,0,0,0-8.38-4.33c-5.92-2.08-11.71-4-17.36-5.68-11.3-3.37-22-5.89-31.83-7.82a341.53,341.53,0,0,0-47.1-5.79c-2.8-.14-5.31-.38-7.41.1a7.26,7.26,0,0,0-4.44,2.88,17.91,17.91,0,0,0-1.71,2.88l-.5,1s.14-.37.45-1a16.62,16.62,0,0,1,1.68-2.92,8.27,8.27,0,0,1,1.74-1.77,7.51,7.51,0,0,1,2.75-1.2c2.13-.5,4.66-.28,7.45-.15A334.32,334.32,0,0,1,256,289.49c9.84,1.92,20.56,4.42,31.88,7.78,5.67,1.65,11.46,3.58,17.39,5.66a29,29,0,0,1,8.53,4.4,12.13,12.13,0,0,1,4.57,8.59,27.12,27.12,0,0,1-1.37,10c-1,3.27-2.09,6.51-3.16,9.82-2.16,6.6-4.48,13.31-7.14,20a160.16,160.16,0,0,1-9.44,19.91c-3.73,6.44-7,13.27-11.14,19.75a55.19,55.19,0,0,1-7,9,37.61,37.61,0,0,1-9,6.8,7.34,7.34,0,0,1-5.55.77l-5.42-1.09-10.7-2.15-40.8-8.19-19-3.82-4.59-.93c-.76-.16-1.5-.27-2.28-.48a7.44,7.44,0,0,1-2.12-1,7.15,7.15,0,0,1-2.69-3.73,8,8,0,0,1-.32-2.26c0-.74-.07-1.48-.1-2.22a207.61,207.61,0,0,1,11.71-79c1-2.64,1.8-5,2.63-7s1.48-3.71,2.09-5.05l1.36-3.07C194.55,291.3,194.72,291,194.72,291Z" style="fill:#263238"></path><path d="M203,399.59c-.14.06-5.63-11.9-12.26-26.7S178.83,346,179,346s5.62,11.89,12.26,26.7S203.14,399.53,203,399.59Z" style="fill:#fff"></path><path d="M258.93,408.44l-.17-.31-.45-.93c-.41-.85-1-2.06-1.72-3.6l-6.38-13.18L229,347c-8.28-17-15.74-32.34-21.07-43.51-2.67-5.59-4.79-10.12-6.23-13.26-.7-1.56-1.25-2.78-1.63-3.64l-.41-.95a1.61,1.61,0,0,1-.12-.33l.17.31.45.93c.41.85,1,2.05,1.72,3.59l6.38,13.19,21.21,43.45c8.28,17,15.74,32.34,21.07,43.51,2.66,5.58,4.79,10.11,6.23,13.26.7,1.56,1.25,2.77,1.63,3.64l.41.95A1.4,1.4,0,0,1,258.93,408.44Z" style="fill:#fff"></path><path d="M283.91,398.19a2.43,2.43,0,0,1-.16-.28c-.11-.22-.24-.5-.42-.85-.37-.78-.89-1.88-1.56-3.27-1.38-2.87-3.36-7-5.8-12-5-10.14-11.77-24.09-19.31-39.5s-14.33-29.42-19.17-39.58c-2.42-5.08-4.35-9.21-5.66-12.07l-1.47-3.31c-.15-.36-.27-.65-.37-.87a1.61,1.61,0,0,1-.11-.3s.06.09.16.28.24.49.42.84c.37.78.89,1.88,1.56,3.27,1.38,2.87,3.36,7,5.8,12,5,10.14,11.77,24.09,19.31,39.51s14.33,29.41,19.17,39.57c2.42,5.08,4.35,9.21,5.66,12.07l1.47,3.32c.15.36.28.64.37.86A1.32,1.32,0,0,1,283.91,398.19Z" style="fill:#fff"></path><path d="M299.24,371.44c-.13.06-8.39-17.53-18.46-39.29s-18.11-39.45-18-39.51,8.39,17.53,18.46,39.3S299.37,371.38,299.24,371.44Z" style="fill:#fff"></path><path d="M168.71,321.06c-1-2.27-2.2-4.65-4.32-5.95s-4.79-1.27-7.29-1.16a337.22,337.22,0,0,0-97.93,19c-4.76,1.69-9.87,3.8-12.35,8.21-2.93,5.22-1.15,11.71.7,17.41,5.28,16.29,10.62,32.71,19.17,47.55C74.8,420.17,80,434,93.83,441.3a6.93,6.93,0,0,0,4.6.67l82.66-16.57a6.9,6.9,0,0,0,5.54-6.32A208.32,208.32,0,0,0,168.71,321.06Z" style="fill:#e0e0e0"></path><path d="M98.57,321.51c.11.09-10,12-22.52,26.55s-22.81,26.32-22.92,26.23,10-12,22.52-26.57S98.46,321.41,98.57,321.51Z" style="fill:#E1E4EB"></path><path d="M143.78,314.79a1.16,1.16,0,0,1-.18.25l-.56.7-2.22,2.68-8.17,9.84-26.88,32.52c-10.5,12.69-20,24.16-27,32.42-3.48,4.13-6.32,7.45-8.29,9.74l-2.3,2.61-.6.67-.22.22s0-.09.18-.25l.56-.71,2.22-2.67c2-2.36,4.74-5.71,8.17-9.84l26.88-32.53c10.5-12.69,20-24.16,27-32.42,3.48-4.12,6.32-7.45,8.29-9.73l2.3-2.62c.25-.27.45-.49.6-.67A1.18,1.18,0,0,1,143.78,314.79Z" style="fill:#E1E4EB"></path><path d="M183.35,367.6a1,1,0,0,1-.13.2l-.43.53-1.66,2L175,377.77l-20.22,24.52c-7.89,9.58-15.07,18.22-20.34,24.43-2.62,3.1-4.77,5.59-6.27,7.3l-1.74,2-.46.5c-.11.12-.17.17-.17.16s0-.07.13-.19.25-.32.42-.53l1.66-2c1.49-1.78,3.58-4.31,6.15-7.41L154.36,402c7.9-9.58,15.07-18.22,20.34-24.43,2.63-3.1,4.77-5.59,6.27-7.31.74-.82,1.32-1.47,1.74-2l.47-.5A.79.79,0,0,1,183.35,367.6Z" style="fill:#E1E4EB"></path><path d="M171.08,329.92a1.47,1.47,0,0,1-.2.29l-.65.79-2.52,3c-2.21,2.66-5.36,6.47-9.26,11.16L128,382.05c-11.92,14.39-22.74,27.39-30.62,36.76-3.94,4.69-7.16,8.46-9.39,11.05l-2.59,3c-.29.32-.52.57-.69.77s-.24.25-.25.24l.21-.28.65-.8,2.52-3,9.25-11.15,30.51-36.86c11.91-14.39,22.73-27.39,30.61-36.76,3.94-4.69,7.15-8.46,9.39-11.06,1.11-1.27,2-2.26,2.59-3l.69-.76A3.2,3.2,0,0,1,171.08,329.92Z" style="fill:#E1E4EB"></path><path d="M331.47,330.26c1-2.27,2.2-4.64,4.32-5.95s4.8-1.26,7.3-1.16a337.48,337.48,0,0,1,97.92,19c4.77,1.69,9.88,3.8,12.35,8.21,2.93,5.22,1.15,11.72-.7,17.41-5.27,16.29-10.61,32.71-19.16,47.55-8.11,14.07-13.28,27.87-27.14,35.2a7,7,0,0,1-4.61.67L319.1,434.6a6.91,6.91,0,0,1-5.55-6.32A208.45,208.45,0,0,1,331.47,330.26Z" style="fill:#E1E4EB"></path><path d="M401.61,330.71c.11-.1,10.37,11.64,22.92,26.22s22.64,26.46,22.53,26.56-10.37-11.65-22.92-26.22S401.5,330.8,401.61,330.71Z" style="fill:#fff"></path><path d="M356.4,324s.08.07.22.21l.61.68,2.29,2.61c2,2.28,4.82,5.61,8.3,9.74,7,8.25,16.49,19.72,27,32.42l26.89,32.52,8.16,9.84,2.22,2.67.57.71c.13.16.19.24.18.25s-.08-.07-.22-.22l-.61-.67-2.29-2.61c-2-2.29-4.81-5.61-8.29-9.74-7-8.25-16.5-19.72-27-32.42s-20-24.17-26.88-32.52l-8.16-9.84-2.22-2.68-.57-.7A2,2,0,0,1,356.4,324Z" style="fill:#fff"></path><path d="M316.84,376.81s.06,0,.17.16.28.3.46.5l1.74,2c1.5,1.71,3.65,4.2,6.28,7.3,5.26,6.21,12.44,14.85,20.33,24.43L366,435.68l6.15,7.41,1.67,2,.42.53a.89.89,0,0,1,.13.19s-.06,0-.17-.15l-.46-.5-1.74-2c-1.5-1.71-3.65-4.21-6.28-7.31-5.26-6.21-12.44-14.85-20.34-24.43L325.21,387l-6.15-7.41-1.67-2L317,377A.89.89,0,0,1,316.84,376.81Z" style="fill:#fff"></path><path d="M329.1,339.12l.25.25.68.77,2.6,3c2.23,2.59,5.44,6.36,9.38,11.05,7.89,9.37,18.7,22.37,30.62,36.76l30.5,36.86,9.26,11.15,2.52,3,.64.79c.15.18.22.28.21.29l-.25-.25-.68-.77-2.6-3c-2.23-2.6-5.44-6.37-9.38-11.06-7.88-9.37-18.7-22.37-30.62-36.76l-30.5-36.86-9.26-11.15-2.52-3-.64-.79A2.46,2.46,0,0,1,329.1,339.12Z" style="fill:#fff"></path></g><g id="freepik--Picture--inject-307"><rect x="177.18" y="43.39" width="133.63" height="179.07" style="fill:#ae7461"></rect><path d="M310.82,43.39a3,3,0,0,1-.37.48l-1.14,1.34c-1.08,1.22-2.58,2.94-4.52,5.13l-.05.07h-.08c-11.62.12-34.45.2-60.66.2s-49-.08-60.65-.2h-.09l0-.07c-1.94-2.19-3.44-3.91-4.52-5.13l-1.14-1.34a3,3,0,0,1-.37-.48,2.66,2.66,0,0,1,.44.41l1.22,1.27,4.64,5-.13-.06c11.61-.13,34.44-.21,60.65-.21s49,.08,60.66.21l-.14.06,4.64-5,1.22-1.27A3.26,3.26,0,0,1,310.82,43.39Z" style="fill:#263238"></path><path d="M177.18,222.46a2.76,2.76,0,0,1,.37-.47l1.14-1.35,4.52-5.13,0-.06h.09c11.61-.12,34.44-.21,60.65-.21s49,.09,60.66.21h.08l.05.06,4.52,5.13,1.14,1.35a2.76,2.76,0,0,1,.37.47s-.16-.12-.44-.4l-1.22-1.28-4.64-5,.14.06c-11.62.12-34.45.21-60.66.21s-49-.09-60.65-.21l.13-.06-4.64,5-1.22,1.28C177.34,222.34,177.2,222.48,177.18,222.46Z" style="fill:#263238"></path><rect x="183.34" y="50.21" width="121.31" height="165.43" style="fill:#fff"></rect><path d="M202.33,167.26c3.61-3.56,8.93-4.57,13.91-4.44s9.92,1.22,14.91,1.15c8-.1,15.9-3.16,23.76-1.75,2.51.46,5,1.36,7.54.81,2.18-.48,4-2,6.15-2.69,5.54-1.71,11.76,2.78,17.07.44V197.7H202.33Z" style="fill:#E1E4EB"></path><path d="M204,168.75c-.22,0-.39-21.88-.39-48.85S203.79,71,204,71s.38,21.87.38,48.86S204.22,168.75,204,168.75Z" style="fill:#263238"></path><path d="M207.8,168.75c-.21,0-.39-21.88-.39-48.85S207.59,71,207.8,71s.39,21.87.39,48.86S208,168.75,207.8,168.75Z" style="fill:#263238"></path><path d="M211.6,168.75c-.22,0-.39-21.88-.39-48.85S211.38,71,211.6,71s.38,21.87.38,48.86S211.81,168.75,211.6,168.75Z" style="fill:#263238"></path><path d="M215.39,168.75c-.21,0-.39-21.88-.39-48.85s.18-48.86.39-48.86.39,21.87.39,48.86S215.6,168.75,215.39,168.75Z" style="fill:#263238"></path><path d="M219.18,168.75c-.21,0-.38-21.88-.38-48.85S219,71,219.18,71s.39,21.87.39,48.86S219.4,168.75,219.18,168.75Z" style="fill:#263238"></path><path d="M223,168.75c-.22,0-.39-21.88-.39-48.85S222.76,71,223,71s.39,21.87.39,48.86S223.19,168.75,223,168.75Z" style="fill:#263238"></path><path d="M226.77,168.75c-.21,0-.38-21.88-.38-48.85s.17-48.86.38-48.86.39,21.87.39,48.86S227,168.75,226.77,168.75Z" style="fill:#263238"></path><path d="M230.57,168.75c-.22,0-.39-21.88-.39-48.85s.17-48.86.39-48.86.39,21.87.39,48.86S230.78,168.75,230.57,168.75Z" style="fill:#263238"></path><path d="M234.36,168.75c-.21,0-.38-21.88-.38-48.85s.17-48.86.38-48.86.39,21.87.39,48.86S234.58,168.75,234.36,168.75Z" style="fill:#263238"></path><path d="M238.16,168.75c-.22,0-.39-21.88-.39-48.85s.17-48.86.39-48.86.38,21.87.38,48.86S238.37,168.75,238.16,168.75Z" style="fill:#263238"></path><path d="M242,168.75c-.21,0-.39-21.88-.39-48.85S241.74,71,242,71s.39,21.87.39,48.86S242.17,168.75,242,168.75Z" style="fill:#263238"></path><path d="M245.75,168.75c-.22,0-.39-21.88-.39-48.85s.17-48.86.39-48.86.38,21.87.38,48.86S246,168.75,245.75,168.75Z" style="fill:#263238"></path><path d="M249.54,168.75c-.21,0-.39-21.88-.39-48.85s.18-48.86.39-48.86.39,21.87.39,48.86S249.75,168.75,249.54,168.75Z" style="fill:#263238"></path><path d="M253.34,168.75c-.22,0-.39-21.88-.39-48.85s.17-48.86.39-48.86.38,21.87.38,48.86S253.55,168.75,253.34,168.75Z" style="fill:#263238"></path><path d="M257.13,168.75c-.21,0-.39-21.88-.39-48.85s.18-48.86.39-48.86.39,21.87.39,48.86S257.34,168.75,257.13,168.75Z" style="fill:#263238"></path><path d="M260.93,168.75c-.22,0-.39-21.88-.39-48.85s.17-48.86.39-48.86.38,21.87.38,48.86S261.14,168.75,260.93,168.75Z" style="fill:#263238"></path><path d="M264.72,168.75c-.21,0-.39-21.88-.39-48.85s.18-48.86.39-48.86.39,21.87.39,48.86S264.93,168.75,264.72,168.75Z" style="fill:#263238"></path><path d="M268.51,168.75c-.21,0-.38-21.88-.38-48.85S268.3,71,268.51,71s.39,21.87.39,48.86S268.73,168.75,268.51,168.75Z" style="fill:#263238"></path><path d="M272.31,168.75c-.21,0-.39-21.88-.39-48.85S272.1,71,272.31,71s.39,21.87.39,48.86S272.52,168.75,272.31,168.75Z" style="fill:#263238"></path><path d="M276.1,168.75c-.21,0-.38-21.88-.38-48.85S275.89,71,276.1,71s.39,21.87.39,48.86S276.32,168.75,276.1,168.75Z" style="fill:#263238"></path><path d="M279.9,168.75c-.22,0-.39-21.88-.39-48.85S279.68,71,279.9,71s.39,21.87.39,48.86S280.11,168.75,279.9,168.75Z" style="fill:#263238"></path><path d="M283.69,168.75c-.21,0-.38-21.88-.38-48.85s.17-48.86.38-48.86.39,21.87.39,48.86S283.91,168.75,283.69,168.75Z" style="fill:#263238"></path></g><g id="freepik--character-2--inject-307"><polygon points="296.63 296.67 303.2 291.67 343.71 287.19 357.23 292.21 335.16 309.61 296.63 296.67" style="fill:#ffbf9d"></polygon><path d="M286.16,222.37a7.41,7.41,0,0,1-3.93-14.21,7.71,7.71,0,0,1,6-13.35,9.23,9.23,0,0,1,13.48-8.32,10.37,10.37,0,0,1,12.74-1,7.38,7.38,0,0,1,7.19,12.14" style="fill:#263238"></path><path d="M316.44,192.75l-1.62.09a31.45,31.45,0,0,0-29.68,30.63c-.37,15.24-.59,32.08,0,40.21,1.15,16.83,18.15,18.51,18.15,18.51L303,302.51l15.43,12.26L343.79,299l-.5-73.62C343.82,207.75,334,192.79,316.44,192.75Z" style="fill:#ffbf9d"></path><path d="M303.26,282.19a40.74,40.74,0,0,0,21.58-7.72S320.1,287,303.2,286.37Z" style="fill:#ff9a6c"></path><path d="M286.33,215.65s3.85-10.8,8.8-13.55c6-3.32,9,3.29,14.8,1.32s11.5-5.16,17.75-1c6.85,4.6,4,8.26,4.79,15.71,3.34,30.22,9.36,38.48,10.13,24.11.09-1.57,4.36-3.06,4.63-9.7.36-8.62.1-19-2.15-25-1.9-5-5-8.41-10.48-12-8.62-5.7-20-5.19-27.66-4S284.88,202.48,286.33,215.65Z" style="fill:#263238"></path><path d="M341.51,241.88a4.58,4.58,0,0,1,4.69-4.68c3.15.12,6.75,1.71,6.91,8.22.28,11.53-11.37,9.43-11.39,9.1S341.58,246.71,341.51,241.88Z" style="fill:#ffbf9d"></path><path d="M344.12,250.12c.05,0,.21.14.55.28a2,2,0,0,0,1.5,0c1.21-.48,2.19-2.44,2.2-4.52a6.72,6.72,0,0,0-.63-2.86,2.34,2.34,0,0,0-1.55-1.51,1,1,0,0,0-1.18.58c-.14.33-.07.55-.13.58s-.25-.19-.17-.67a1.28,1.28,0,0,1,.44-.73,1.46,1.46,0,0,1,1.1-.32,2.81,2.81,0,0,1,2.15,1.73,6.79,6.79,0,0,1,.77,3.2c0,2.33-1.15,4.53-2.81,5.06a2.18,2.18,0,0,1-1.85-.26C344.15,250.4,344.08,250.14,344.12,250.12Z" style="fill:#ff9a6c"></path><path d="M340,219.58a11,11,0,0,1-4.75,2.52c-1.8.28-3.92-.64-4.32-2.4-.18-.8,0-1.74-.6-2.33s-1.82-.41-2.78-.25c-3.33.54-7.45-2.94-8.48-6.15a3,3,0,0,1-4,1.06,10.88,10.88,0,0,1-2.92-2.31c-1.08-1.1-2.55-2.06-4.06-1.76a11.34,11.34,0,0,1-2.48.69c-1.52-.05-2.36-1.77-2.67-3.26s-.59-3.23-1.92-4-2.74-.16-4.12.12-3.2.06-3.63-1.29a2.71,2.71,0,0,1,.4-2.11,7.46,7.46,0,0,1,8.65-3.32,10.12,10.12,0,0,1,18.46-3,10.28,10.28,0,0,1,16.62,2.82,7.45,7.45,0,0,1,9,10.35c2.14,1.06,4,3,4.2,5.4s-2,4.89-4.35,4.39a4.12,4.12,0,0,1-6.89,4.51" style="fill:#263238"></path><path d="M301.71,198.25a.83.83,0,0,0,0,.21c0,.13,0,.34.11.61a7.6,7.6,0,0,0,1,2.17,8.24,8.24,0,0,0,2.71,2.58,7.63,7.63,0,0,0,4.79,1.08l-.21-.24a4.21,4.21,0,0,0,.41,3.16,12.28,12.28,0,0,0,2.13,2.73A9.85,9.85,0,0,0,314,211.8a4,4,0,0,0,1.86.57,4.2,4.2,0,0,0,3.63-1.54l-.43-.09a8.64,8.64,0,0,0,4,5.77,6.31,6.31,0,0,0,3.85,1,11.41,11.41,0,0,0,3.68-1l-.31-.12a8.88,8.88,0,0,0,2.92,3.4,4.85,4.85,0,0,0,4.08.87,6.35,6.35,0,0,0,4.6-5.24l-.25.14a5.94,5.94,0,0,0,4,.36,6.54,6.54,0,0,0,2.69-1.39,5.71,5.71,0,0,0,1.21-1.48,3.57,3.57,0,0,0,.26-.61,6.88,6.88,0,0,1-1.59,1.94,6.39,6.39,0,0,1-2.63,1.26,5.67,5.67,0,0,1-3.77-.4l-.23-.11,0,.25a6,6,0,0,1-4.36,4.86,4.39,4.39,0,0,1-3.7-.83,8.67,8.67,0,0,1-2.75-3.23l-.11-.21-.21.09a11.06,11.06,0,0,1-3.52,1,5.89,5.89,0,0,1-3.56-1,8.18,8.18,0,0,1-3.78-5.44l-.1-.54-.34.44a3.75,3.75,0,0,1-3.21,1.36,3.58,3.58,0,0,1-1.65-.5,7.75,7.75,0,0,1-1.28-1.17,11.32,11.32,0,0,1-2.08-2.6,3.83,3.83,0,0,1-.42-2.87l.08-.28-.29,0a7.37,7.37,0,0,1-4.59-1,8.24,8.24,0,0,1-2.68-2.43A8.83,8.83,0,0,1,301.71,198.25Z" style="fill:#455a64"></path><path d="M289.56,240.14a2.41,2.41,0,0,0,2.47,2.27,2.3,2.3,0,0,0,2.33-2.33,2.41,2.41,0,0,0-2.47-2.27A2.3,2.3,0,0,0,289.56,240.14Z" style="fill:#263238"></path><path d="M287.69,231.4c.32.29,2.05-1.18,4.63-1.34s4.57,1,4.83.66c.12-.15-.22-.69-1.08-1.24a6.67,6.67,0,0,0-3.89-.92,6.36,6.36,0,0,0-3.66,1.46C287.77,230.68,287.54,231.27,287.69,231.4Z" style="fill:#263238"></path><path d="M315.16,253.14c-.43,0-.78,2.23-2.62,4.05s-4.1,2.24-4.07,2.66c0,.2.61.39,1.63.23a6.6,6.6,0,0,0,3.53-1.85,6.38,6.38,0,0,0,1.81-3.51C315.57,253.73,315.36,253.14,315.16,253.14Z" style="fill:#263238"></path><path d="M311.62,239.53a2.39,2.39,0,0,0,2.47,2.26,2.29,2.29,0,0,0,2.33-2.32A2.4,2.4,0,0,0,314,237.2,2.29,2.29,0,0,0,311.62,239.53Z" style="fill:#263238"></path><path d="M313.05,230.31c.32.29,2.05-1.17,4.63-1.34s4.56,1,4.82.67c.13-.15-.21-.7-1.07-1.24a6.54,6.54,0,0,0-3.89-.92,6.29,6.29,0,0,0-3.66,1.45C313.13,229.59,312.9,230.18,313.05,230.31Z" style="fill:#263238"></path><path d="M305.11,250.77c0-.15-1.62-.32-4.25-.48-.66,0-1.29-.11-1.43-.55a3.35,3.35,0,0,1,.31-2l1.61-5.15c2.23-7.33,3.8-13.34,3.51-13.43s-2.35,5.79-4.58,13.12c-.54,1.81-1,3.53-1.53,5.18a3.83,3.83,0,0,0-.17,2.61,1.67,1.67,0,0,0,1.15.89,4.61,4.61,0,0,0,1.13.08C303.48,251,305.11,250.92,305.11,250.77Z" style="fill:#263238"></path><path d="M311.06,220.46c.28.7,2.85.27,5.9.53s5.53,1,5.91.35c.17-.31-.28-1-1.29-1.6a9.86,9.86,0,0,0-4.43-1.37,9.73,9.73,0,0,0-4.57.7C311.48,219.56,310.94,220.13,311.06,220.46Z" style="fill:#263238"></path><path d="M288.89,222.43c.52.57,2.38-.14,4.66-.29s4.24.18,4.65-.46c.18-.31-.15-.88-1-1.39a7.13,7.13,0,0,0-7.5.6C288.9,221.54,288.66,222.16,288.89,222.43Z" style="fill:#263238"></path><path d="M283.21,214.52a1.91,1.91,0,0,1-.42,0,5.49,5.49,0,0,1-1.22-.15,7.7,7.7,0,0,1-3.86-2.31,8.1,8.1,0,0,1-1.64-2.68,6.8,6.8,0,0,1-.3-3.61,8.07,8.07,0,0,1,5.36-6,7.36,7.36,0,0,1,2.73-.35l-.26.37c-1.11-2.35-1.48-5-.51-7.15a4.94,4.94,0,0,1,4.69-3.16,4,4,0,0,1,3.17,2.14,2.91,2.91,0,0,1,.28,1c0,.24,0,.37,0,.37a4.45,4.45,0,0,0-.42-1.31,3.85,3.85,0,0,0-3-1.88,4.59,4.59,0,0,0-4.24,3,8.35,8.35,0,0,0,.56,6.75l.19.4-.44,0a6.55,6.55,0,0,0-2.53.33,7.64,7.64,0,0,0-5.05,5.55,7,7,0,0,0,1.75,6,7.82,7.82,0,0,0,3.63,2.35C282.62,214.47,283.22,214.46,283.21,214.52Z" style="fill:#263238"></path><path d="M343.66,211.58a10.39,10.39,0,0,0,2.11.33,7.33,7.33,0,0,0,5.25-2,6.29,6.29,0,0,0,1.85-3.41,7.29,7.29,0,0,0-.53-4.42,6.42,6.42,0,0,0-3.55-3.31,7.23,7.23,0,0,0-5.22,0,7,7,0,0,0-.91.46l-.62.35.24-.67a8.36,8.36,0,0,0,.17-5.11,9,9,0,0,0-2.43-4.12,7.67,7.67,0,0,0-3.8-2,8.89,8.89,0,0,0-3.79.09,9.11,9.11,0,0,0-4.7,2.78,18.53,18.53,0,0,0-1.21,1.65,1.54,1.54,0,0,1,.21-.49,3.42,3.42,0,0,1,.32-.57,4.86,4.86,0,0,1,.53-.72,9.07,9.07,0,0,1,4.77-3,8.93,8.93,0,0,1,3.95-.16,8.1,8.1,0,0,1,4.05,2.1,9.49,9.49,0,0,1,2.58,4.34,8.79,8.79,0,0,1-.16,5.43l-.38-.32a8.14,8.14,0,0,1,1-.49,7.63,7.63,0,0,1,5.6,0,6.85,6.85,0,0,1,3.8,3.57,7.28,7.28,0,0,1-1.49,8.31,7.47,7.47,0,0,1-5.52,2A4.92,4.92,0,0,1,343.66,211.58Z" style="fill:#263238"></path><path d="M329.74,177.75s.12.09.32.3a3.9,3.9,0,0,1,.63,1.09,5.11,5.11,0,0,1-.59,4.5,6.25,6.25,0,0,1-6.21,2.39,7.14,7.14,0,0,1-3.73-1.68,4.2,4.2,0,0,1-1.23-1.86,3.55,3.55,0,0,1,0-2.3,2.76,2.76,0,0,1,1.61-1.68,3.48,3.48,0,0,1,2.25,0,4,4,0,0,1,2.59,3.14,6.24,6.24,0,0,1-.47,3.67,12.11,12.11,0,0,1-1.68,2.72,14.67,14.67,0,0,1-3.37,3.12,8.86,8.86,0,0,1-1.08.64c-.25.13-.39.19-.4.17s.5-.33,1.36-1a16.2,16.2,0,0,0,3.2-3.18,12,12,0,0,0,1.57-2.67,5.85,5.85,0,0,0,.4-3.41,3.54,3.54,0,0,0-2.27-2.74,3,3,0,0,0-1.91,0,2.25,2.25,0,0,0-1.31,1.37,3.19,3.19,0,0,0,0,2,3.76,3.76,0,0,0,1.09,1.63,6.67,6.67,0,0,0,3.45,1.59,5.91,5.91,0,0,0,5.83-2.12,5,5,0,0,0,.7-4.23A5.65,5.65,0,0,0,329.74,177.75Z" style="fill:#263238"></path><path d="M346.71,287.18c1,.17,31.38,5,31.38,5l5.58,144.93-65.8,1-17.7-.16-20-12.33-2-55.8-2.28-69.4,24.71-8s6.56,10.35,24.2,9C343.39,300,346.71,287.18,346.71,287.18Z" style="fill:#fff"></path><path d="M280.9,368.06l-32.76-.4s.35-31.73,3.27-43c3.52-13.52,13.89-20.72,19.41-22.51l6.65-2.26Z" style="fill:#fff"></path><path d="M267.82,318.37c.14,0,2.89,11.16,6.15,25s5.79,25.07,5.65,25.11-2.9-11.16-6.16-25S267.68,318.4,267.82,318.37Z" style="fill:#263238"></path><path d="M417.41,357.79S406.17,323.15,403,315c-7.72-19.91-24.9-22.75-24.9-22.75L376,337.33l4.83,25.9Z" style="fill:#fff"></path><path d="M317,299.82c1.78,5,4.45,11.36,6.75,16.13,0,0,2.12-15.29,2.12-15.71Z" style="fill:#ffbf9d"></path><path d="M380.5,317.36a1.77,1.77,0,0,1,0,.5c0,.39,0,.86,0,1.43,0,1.33,0,3.11,0,5.28,0,4.45.09,10.61.19,17.41s.12,13,0,17.42c-.05,2.23-.1,4-.16,5.27,0,.58-.06,1.05-.08,1.44a1.65,1.65,0,0,1-.06.5,1.88,1.88,0,0,1,0-.51c0-.38,0-.86,0-1.43,0-1.33,0-3.11,0-5.28,0-4.45-.09-10.61-.19-17.41s-.13-13,0-17.41c0-2.23.1-4,.16-5.28,0-.57.05-1.05.08-1.43A1.65,1.65,0,0,1,380.5,317.36Z" style="fill:#263238"></path><path d="M287.48,324c-1.67-1.55-3.64-1.55-7.49.53-2,.67-4.45,1.41-5.34,3.45a7.26,7.26,0,0,0,.58,6.39,12.66,12.66,0,0,0,4.81,4.49,20.54,20.54,0,0,0,6.28,2.34,3.55,3.55,0,0,0,2.07-.06,3.4,3.4,0,0,0,1.88-2.84,30.65,30.65,0,0,0,.21-7.77A11.49,11.49,0,0,0,287.48,324Z" style="fill:#E1E4EB"></path><path d="M287.05,323.65a3.25,3.25,0,0,0-3.58-1.34,9.49,9.49,0,0,0-3.56,2,5.42,5.42,0,0,1,1.2-4.46l-2.77-.39a3.73,3.73,0,0,0-.34,1.86,9.22,9.22,0,0,0,.55,3.73,7.64,7.64,0,0,0-5.16,3.32l4-1.72a8.55,8.55,0,0,0-1.83,3.91q1.91-1.74,3.65-3.64a13.11,13.11,0,0,0,2.71,4.35,18.75,18.75,0,0,0-.39-5.28l3.7,2.54a5.62,5.62,0,0,0-1.63-4.25A6.16,6.16,0,0,1,287.05,323.65Z" style="fill:#455a64"></path><path d="M280.58,336a.59.59,0,1,1-.75-.81c.32-.29.74-.35.95-.12A.69.69,0,0,1,280.58,336Z" style="fill:#fff"></path><path d="M284.67,334.17c-.39.17-.81.09-.93-.19s.09-.65.49-.82a.68.68,0,0,1,.93.19C285.29,333.62,285.07,334,284.67,334.17Z" style="fill:#fff"></path><path d="M288.36,330.9c-.4.17-.82.09-.94-.19s.1-.64.49-.82.82-.09.94.19S288.75,330.72,288.36,330.9Z" style="fill:#fff"></path><path d="M277.08,333.69c-.4.17-.82.09-.94-.19s.1-.65.49-.82.82-.09.94.19S277.47,333.51,277.08,333.69Z" style="fill:#fff"></path><path d="M288.57,335.55c-.43.06-.81-.13-.85-.43s.27-.6.7-.66a.71.71,0,0,1,.85.44C289.31,335.2,289,335.49,288.57,335.55Z" style="fill:#fff"></path><path d="M288.59,339.55a.59.59,0,1,1,.17-.95A.7.7,0,0,1,288.59,339.55Z" style="fill:#fff"></path><path d="M287.62,326.82c-.39.19-.81.13-.95-.14s.06-.65.44-.84.81-.14.95.13S288,326.62,287.62,326.82Z" style="fill:#fff"></path><path d="M279.2,330.77a.7.7,0,0,1-.94-.14c-.14-.27.06-.65.44-.84s.81-.14.95.13S279.59,330.57,279.2,330.77Z" style="fill:#fff"></path><path d="M283.77,329.92c-.39.2-.81.14-.95-.13s.06-.65.44-.85.81-.13.95.14S284.15,329.73,283.77,329.92Z" style="fill:#fff"></path><path d="M284.41,338.79a.71.71,0,0,1-.92.28.83.83,0,0,1,1-1.24A.71.71,0,0,1,284.41,338.79Z" style="fill:#fff"></path><path d="M289.43,370.11l-15.71-3-21.72.32c.52,7.79.72,16.33.58,21.84a60.92,60.92,0,0,0,.76,11.12c1.92,11.81,4.78,26.25,17.57,24.74,15-1.78,16.34-14.49,18.52-27.21S289.43,370.11,289.43,370.11Z" style="fill:#ffbf9d"></path><path d="M260,399.15a5.2,5.2,0,0,1,.4-1.21c.29-.76.74-1.86,1.33-3.19,1.16-2.68,2.9-6.33,5-10.25s4.27-7.34,5.9-9.77c.81-1.22,1.48-2.19,2-2.84a6.12,6.12,0,0,1,.79-1,5.27,5.27,0,0,1-.62,1.11l-1.83,2.93c-1.54,2.47-3.62,5.92-5.75,9.82s-3.91,7.52-5.16,10.15L260.56,398A6.6,6.6,0,0,1,260,399.15Z" style="fill:#ff9a6c"></path><path d="M289.72,372.53s3-8.88,3-12.13v-4.14s4.08-7,4.85-9c.65-1.7.76-4.7-1.48-4S284.8,356,284.8,356s5.48-9.63,6.27-12,1-4.57.07-5-3.1-1.6-4.33,1.2-8.44,11.21-8.44,11.21l-.4-3s12.09-9.51,9.18-13c0,0-1.19-1.48-5.46,1.32s-4.28,3-4.28,3L273,342.6l-.11-1.79s8.17-4.7,8.62-6.72-1.34-3.69-1.34-3.69l-3.59,1.68c-.33.11-11.21,4.4-11.88,8.2s.85,8,1.36,9.26,3.69,6,4.22,7.61c1.2,3.71,4,15.38,4,15.38" style="fill:#ffbf9d"></path><path d="M274.29,372.53a.8.8,0,0,1-.07-.22c-.05-.16-.1-.37-.18-.65-.15-.59-.36-1.44-.64-2.53-.57-2.22-1.38-5.48-2.52-9.6l-.46-1.58a8.09,8.09,0,0,0-.6-1.59c-.52-1-1.17-2.1-1.83-3.2s-1.4-2.22-2-3.5a21.74,21.74,0,0,1-1.25-4.17,15.52,15.52,0,0,1-.25-4.64l.09-.6.2-.61a2.32,2.32,0,0,1,.3-.56,2.68,2.68,0,0,1,.36-.52,8.2,8.2,0,0,1,.86-.91,9.46,9.46,0,0,1,1-.81,41.25,41.25,0,0,1,9.31-5h0l3.58-1.68.15-.07.1.11a4.66,4.66,0,0,1,1.49,3.44,2.78,2.78,0,0,1-.08.49,3.61,3.61,0,0,1-.21.49,4.7,4.7,0,0,1-.61.77,14.38,14.38,0,0,1-1.42,1.29,57,57,0,0,1-6.48,4.31l.13-.23c0,.56.07,1.18.11,1.8l-.38-.2,4.36-2.8-.12.2c.07-.23.07-.13.09-.18l0-.05.07-.06.13-.12.26-.21.54-.4,1.08-.76,2.23-1.49a15.53,15.53,0,0,1,2.42-1.29,4.13,4.13,0,0,1,2.85-.28,2.22,2.22,0,0,1,.86,2.73,8.76,8.76,0,0,1-1.27,2.56,30.21,30.21,0,0,1-3.71,4.29,61.15,61.15,0,0,1-4.61,4.1l.09-.24c.14,1,.27,2,.4,3l-.45-.14c2.22-2.62,4.37-5.24,6.34-7.91.49-.66,1-1.34,1.4-2,.21-.34.42-.69.59-1a6.24,6.24,0,0,1,.64-1.11,2.65,2.65,0,0,1,1-.83,2.51,2.51,0,0,1,1.32-.16,4.2,4.2,0,0,1,1.22.36c.19.08.37.17.56.27a1.15,1.15,0,0,1,.49.56,4.71,4.71,0,0,1,.1,2.49,14,14,0,0,1-.6,2.31,40.52,40.52,0,0,1-2,4.19c-1.41,2.69-2.85,5.27-4.27,7.76l-.38-.25q3-3.94,5.93-7.45c1-1.17,2-2.29,3-3.34a17.09,17.09,0,0,1,1.59-1.48c.15-.11.28-.22.44-.32l.52-.26a1.92,1.92,0,0,1,1.14,0,1.36,1.36,0,0,1,.78.85,3,3,0,0,1,.2,1.05,6.39,6.39,0,0,1-.29,2,26.13,26.13,0,0,1-1.66,3.44c-1.17,2.15-2.3,4.13-3.37,5.95l0-.07c0,1.31,0,2.56,0,3.74a14.73,14.73,0,0,1-.42,3.3c-.43,2-.94,3.7-1.35,5.07s-.76,2.4-1,3.1l-.28.8a1.87,1.87,0,0,1-.11.26,1.45,1.45,0,0,1,.07-.28c.06-.2.14-.46.25-.8.21-.73.52-1.78.92-3.13s.87-3.06,1.28-5.07a15,15,0,0,0,.38-3.25c0-1.18,0-2.43,0-3.74v0l0,0c1.05-1.83,2.17-3.82,3.32-6a25.6,25.6,0,0,0,1.61-3.38,6.06,6.06,0,0,0,.26-1.9c0-.62-.19-1.34-.73-1.55a1.63,1.63,0,0,0-.9,0l-.42.22c-.14.09-.27.2-.41.3a17.42,17.42,0,0,0-1.54,1.45c-1,1.05-2,2.16-2.95,3.33q-2.91,3.5-5.88,7.45l-.38-.25c1.4-2.49,2.83-5.07,4.24-7.75a41.13,41.13,0,0,0,2-4.13,13,13,0,0,0,.57-2.23,4.32,4.32,0,0,0-.06-2.21.64.64,0,0,0-.28-.32l-.52-.26a4.3,4.3,0,0,0-1.08-.32,2,2,0,0,0-1.91.81,6.15,6.15,0,0,0-.57,1c-.19.39-.41.74-.62,1.1-.45.7-.92,1.39-1.42,2.06-2,2.7-4.13,5.32-6.36,7.95l-.37.45-.08-.58c-.13-1-.27-2-.4-3l0-.15.12-.09c1.56-1.26,3.1-2.62,4.56-4.06A29.54,29.54,0,0,0,286,340a8.44,8.44,0,0,0,1.2-2.4,2.63,2.63,0,0,0,.07-1.24,1.57,1.57,0,0,0-.23-.55c-.07-.08-.1-.17-.16-.2a1.08,1.08,0,0,0-.24-.13,3.69,3.69,0,0,0-2.46.28,14.44,14.44,0,0,0-2.33,1.24l-2.22,1.48-1.08.75-.52.39-.25.2-.11.1-.05,0,0,0-.05,0-.08-.05,0,0c-.07,0,.4.12.21,0l-.12.21-4.36,2.79-.36.23,0-.42c0-.62-.07-1.24-.11-1.79v-.16l.14-.08a58.58,58.58,0,0,0,6.42-4.26,13.47,13.47,0,0,0,1.37-1.23,4.38,4.38,0,0,0,.55-.69c.07-.12.1-.24.16-.36a1.93,1.93,0,0,0,.06-.42,4.14,4.14,0,0,0-1.32-3.06l.25,0-3.58,1.67h0a41.59,41.59,0,0,0-9.2,4.87c-1.27,1-2.56,2.16-2.64,3.74a14.8,14.8,0,0,0,.23,4.52,21,21,0,0,0,1.2,4.1c.59,1.22,1.34,2.36,2,3.47s1.3,2.17,1.83,3.24a9.64,9.64,0,0,1,.6,1.65c.15.54.3,1.07.45,1.58,1.1,4.14,1.86,7.41,2.39,9.64.25,1.1.45,1.95.58,2.55.06.27.11.49.14.65S274.29,372.53,274.29,372.53Z" style="fill:#ff9a6c"></path><path d="M325.7,301.35a4.63,4.63,0,0,1,.46-.08l1.33-.2a17.24,17.24,0,0,0,2.17-.38,24.43,24.43,0,0,0,2.92-.78A23.86,23.86,0,0,0,340,296.1a23.51,23.51,0,0,0,3.72-3.74,17.43,17.43,0,0,0,2.82-5.22l.05-.13.13,0,18.95,3,11,1.75A29.51,29.51,0,0,1,388,296.1a36.66,36.66,0,0,1,9.58,8.7c.71.86,1.27,1.84,1.93,2.77s1.12,2,1.69,3l.42.75.35.79.69,1.59c.49,1,.89,2.14,1.29,3.23,3.15,8.79,6.18,18,9.33,27.53l4.35,13.29.09.29-.3,0-36.59,5.43.2-.25c.8,21.8,1.48,40.27,2,53.32.22,6.5.4,11.64.52,15.18,0,1.75.09,3.1.12,4,0,.45,0,.79,0,1s0,.35,0,.35a3.23,3.23,0,0,1,0-.35c0-.25,0-.59-.06-1-.05-.93-.11-2.28-.19-4-.16-3.54-.38-8.69-.66-15.18-.52-13-1.27-31.51-2.14-53.31h.47l-.27-.23,36.59-5.47-.21.34c-1.43-4.36-2.88-8.8-4.36-13.29-3.14-9.5-6.17-18.74-9.3-27.51-.4-1.09-.8-2.18-1.28-3.22l-.69-1.57-.34-.78-.41-.74c-.57-1-1-2-1.67-2.93s-1.2-1.88-1.9-2.73a36.06,36.06,0,0,0-9.43-8.61,29.17,29.17,0,0,0-11.14-4.28l-11-1.79-18.93-3.08.18-.11a19.67,19.67,0,0,1-6.7,9.06,23.55,23.55,0,0,1-7.53,3.78,22.16,22.16,0,0,1-2.94.74,17,17,0,0,1-2.19.35l-1.34.15Z" style="fill:#263238"></path><path d="M373,392.12l16.27-.92-6.38-28.28,31.3-4.41a208.8,208.8,0,0,1,5.1,24.31c4.51,31.28-.19,38.53-14.31,35.47s-36.13-10.92-36.13-10.92Z" style="fill:#ffbf9d"></path><path d="M409.23,400.45c-.08.05-.74-1.12-2.17-2.73a19.53,19.53,0,0,0-14.8-6.59c-2.14,0-3.46.3-3.47.21a2.66,2.66,0,0,1,.9-.27,15.74,15.74,0,0,1,2.57-.31,18.47,18.47,0,0,1,15.08,6.72,16,16,0,0,1,1.48,2.12A3.2,3.2,0,0,1,409.23,400.45Z" style="fill:#ff9a6c"></path><path d="M326.57,356c-1.66-1.55-3.64-1.55-7.48.53-2,.67-4.45,1.41-5.34,3.45a7.23,7.23,0,0,0,.57,6.39,12.72,12.72,0,0,0,4.82,4.5,20.62,20.62,0,0,0,6.27,2.33,3.55,3.55,0,0,0,2.07-.06,3.38,3.38,0,0,0,1.88-2.84,30.65,30.65,0,0,0,.21-7.77A11.52,11.52,0,0,0,326.57,356Z" style="fill:#E1E4EB"></path><path d="M326.14,355.6a3.24,3.24,0,0,0-3.58-1.34,9.57,9.57,0,0,0-3.56,2,5.42,5.42,0,0,1,1.2-4.46l-2.77-.39a3.73,3.73,0,0,0-.34,1.86,9.39,9.39,0,0,0,.55,3.73,7.6,7.6,0,0,0-5.15,3.32l4-1.72a8.47,8.47,0,0,0-1.84,3.91q1.9-1.74,3.65-3.64A13.28,13.28,0,0,0,321,363.2a18.75,18.75,0,0,0-.39-5.28l3.7,2.54a5.62,5.62,0,0,0-1.63-4.25A6.16,6.16,0,0,1,326.14,355.6Z" style="fill:#455a64"></path><path d="M319.67,367.92a.71.71,0,0,1-.95.13c-.2-.22-.11-.64.2-.94s.74-.35.95-.12S320,367.63,319.67,367.92Z" style="fill:#fff"></path><path d="M323.76,366.12c-.39.17-.81.09-.93-.19s.09-.65.49-.82a.7.7,0,0,1,.94.19C324.38,365.58,324.16,365.94,323.76,366.12Z" style="fill:#fff"></path><path d="M327.45,362.85a.71.71,0,0,1-.94-.19c-.12-.28.1-.64.5-.82s.81-.09.93.19S327.84,362.67,327.45,362.85Z" style="fill:#fff"></path><path d="M316.17,365.64c-.4.17-.82.09-.94-.19s.1-.65.49-.82.82-.09.94.19S316.56,365.46,316.17,365.64Z" style="fill:#fff"></path><path d="M327.66,367.5c-.43.06-.81-.13-.85-.43s.27-.6.7-.66.81.14.85.44S328.09,367.44,327.66,367.5Z" style="fill:#fff"></path><path d="M327.68,371.5a.58.58,0,1,1-.77-.78.68.68,0,0,1,.94-.16C328.06,370.77,328,371.19,327.68,371.5Z" style="fill:#fff"></path><path d="M326.71,358.77c-.39.2-.81.14-.95-.14s.06-.64.45-.84a.69.69,0,0,1,.94.13C327.29,358.19,327.09,358.57,326.71,358.77Z" style="fill:#fff"></path><path d="M318.3,362.72c-.39.19-.81.13-.95-.14s.06-.65.44-.84.81-.14.95.13S318.68,362.52,318.3,362.72Z" style="fill:#fff"></path><path d="M322.86,361.87c-.39.2-.81.14-.95-.13s.06-.65.45-.85a.7.7,0,0,1,.94.14C323.44,361.3,323.24,361.68,322.86,361.87Z" style="fill:#fff"></path><path d="M323.5,370.74a.71.71,0,0,1-.92.28.83.83,0,0,1,1-1.24A.71.71,0,0,1,323.5,370.74Z" style="fill:#fff"></path><path d="M330.68,363.86c-.41,2.23.66,3.9,4.48,6,1.65,1.35,3.58,3,5.77,2.65A7.28,7.28,0,0,0,346,368.6a12.69,12.69,0,0,0,1.19-6.47,20.64,20.64,0,0,0-1.41-6.54,3.6,3.6,0,0,0-1.16-1.73,3.45,3.45,0,0,0-3.41-.05,30.4,30.4,0,0,0-6.66,4A11.52,11.52,0,0,0,330.68,363.86Z" style="fill:#E1E4EB"></path><path d="M330.59,364.43a3.26,3.26,0,0,0,.8,3.74A9.61,9.61,0,0,0,335,370.1a5.44,5.44,0,0,1-4.41,1.39l1.16,2.54a3.74,3.74,0,0,0,1.75-.71,9.41,9.41,0,0,0,2.85-2.47,7.58,7.58,0,0,0,5.57,2.55l-3.61-2.46a8.36,8.36,0,0,0,4.28-.56c-1.66-.44-3.34-.82-5-1.11a13.29,13.29,0,0,0,2.21-4.63,18.56,18.56,0,0,0-4.24,3.17c.05-1.5.09-3,.14-4.48A5.6,5.6,0,0,0,333,367,6.26,6.26,0,0,1,330.59,364.43Z" style="fill:#455a64"></path><path d="M344.46,363.25c.41.11.69.43.61.73s-.47.44-.89.33-.69-.43-.62-.73S344,363.14,344.46,363.25Z" style="fill:#fff"></path><path d="M340.73,360.77c.36.24.52.64.35.89a.7.7,0,0,1-1,0c-.36-.24-.51-.64-.34-.89S340.37,360.53,340.73,360.77Z" style="fill:#fff"></path><path d="M336,359.42c.36.24.51.64.34.89s-.59.27-.95,0-.52-.64-.35-.89A.69.69,0,0,1,336,359.42Z" style="fill:#fff"></path><path d="M344.42,367.43c.36.24.51.64.34.89a.69.69,0,0,1-.95,0c-.36-.24-.52-.64-.35-.89A.69.69,0,0,1,344.42,367.43Z" style="fill:#fff"></path><path d="M339.81,356.74c.28.33.32.75.08.95s-.64.09-.92-.24a.7.7,0,0,1-.09-.95A.71.71,0,0,1,339.81,356.74Z" style="fill:#fff"></path><path d="M343.16,354.57c.42.09.71.41.64.71s-.46.46-.88.37-.71-.41-.64-.71S342.74,354.48,343.16,354.57Z" style="fill:#fff"></path><path d="M333,362.24c.37.22.55.61.39.87s-.58.3-1,.08a.7.7,0,0,1-.4-.87C332.16,362.06,332.58,362,333,362.24Z" style="fill:#fff"></path><path d="M340.81,367.21c.37.22.55.61.4.87a.71.71,0,0,1-1,.08c-.37-.22-.55-.61-.39-.87A.69.69,0,0,1,340.81,367.21Z" style="fill:#fff"></path><path d="M337.64,363.82a.58.58,0,1,1-.55.95c-.37-.22-.55-.61-.4-.87A.7.7,0,0,1,337.64,363.82Z" style="fill:#fff"></path><path d="M344.77,358.51c.43,0,.76.32.73.62s-.4.51-.83.47-.75-.32-.73-.62S344.34,358.47,344.77,358.51Z" style="fill:#fff"></path><path d="M364.93,363.85c.51-2.21-.48-3.92-4.21-6.21-1.6-1.42-3.45-3.14-5.66-2.89a7.26,7.26,0,0,0-5.25,3.7,12.67,12.67,0,0,0-1.47,6.42,20.28,20.28,0,0,0,1.13,6.59,3.51,3.51,0,0,0,1.08,1.77,3.41,3.41,0,0,0,3.4.2,30.09,30.09,0,0,0,6.83-3.71A11.43,11.43,0,0,0,364.93,363.85Z" style="fill:#E1E4EB"></path><path d="M365,363.29a3.24,3.24,0,0,0-.63-3.77,9.64,9.64,0,0,0-3.5-2.09,5.44,5.44,0,0,1,4.47-1.19l-1.06-2.6a3.84,3.84,0,0,0-1.77.64,9.45,9.45,0,0,0-3,2.34,7.64,7.64,0,0,0-5.46-2.79l3.51,2.62a8.28,8.28,0,0,0-4.3.37q2.45.78,5,1.33a13.37,13.37,0,0,0-2.41,4.53,18.94,18.94,0,0,0,4.38-3c-.11,1.49-.23,3-.34,4.47a5.66,5.66,0,0,0,2.86-3.54A6.17,6.17,0,0,1,365,363.29Z" style="fill:#455a64"></path><path d="M351.14,363.86c-.41-.12-.67-.46-.58-.75s.49-.42.9-.3.68.47.59.76S351.55,364,351.14,363.86Z" style="fill:#fff"></path><path d="M354.75,366.5a.69.69,0,0,1-.3-.9c.18-.25.6-.24.95,0s.49.66.31.91A.7.7,0,0,1,354.75,366.5Z" style="fill:#fff"></path><path d="M359.43,368.06c-.35-.26-.49-.66-.31-.91a.7.7,0,0,1,1,0c.34.25.48.66.3.9S359.78,368.31,359.43,368.06Z" style="fill:#fff"></path><path d="M351.36,359.69a.71.71,0,0,1-.31-.91.7.7,0,0,1,1,0c.35.25.49.66.31.9A.7.7,0,0,1,351.36,359.69Z" style="fill:#fff"></path><path d="M355.5,370.57c-.26-.34-.28-.77,0-.95a.68.68,0,0,1,.91.27.7.7,0,0,1,.05,1A.71.71,0,0,1,355.5,370.57Z" style="fill:#fff"></path><path d="M352.06,372.59c-.42-.11-.69-.44-.61-.73s.48-.44.89-.33.7.44.62.73S352.48,372.7,352.06,372.59Z" style="fill:#fff"></path><path d="M362.59,365.37c-.37-.23-.53-.63-.36-.89a.7.7,0,0,1,.95,0c.37.24.53.63.36.89A.7.7,0,0,1,362.59,365.37Z" style="fill:#fff"></path><path d="M355,360.07c-.37-.24-.53-.63-.36-.89a.7.7,0,0,1,.95,0c.36.23.53.63.36.89A.7.7,0,0,1,355,360.07Z" style="fill:#fff"></path><path d="M358,363.59c-.36-.23-.52-.63-.36-.88s.59-.28,1,0,.52.63.36.88A.69.69,0,0,1,358,363.59Z" style="fill:#fff"></path><path d="M350.62,368.59c-.43-.06-.74-.35-.7-.65s.42-.5.85-.44.74.35.7.65S351.05,368.65,350.62,368.59Z" style="fill:#fff"></path><path d="M310,365.45a28.07,28.07,0,1,0,56.14,0Z" style="fill:#455a64"></path><path d="M310,365.45l.26,0,.81,0,3.12,0,11.73-.07,40.22-.12h.27v.26a29.71,29.71,0,0,1-1.12,7.81,28.14,28.14,0,0,1-8.18,13.13,27.93,27.93,0,0,1-5.9,4.14,28.89,28.89,0,0,1-13.14,3.22,28.28,28.28,0,0,1-20.58-9,26.65,26.65,0,0,1-4.92-7.32,29,29,0,0,1-1.33-3.38c-.32-1.07-.53-2.06-.76-2.95s-.24-1.71-.34-2.41-.07-1.32-.1-1.8,0-.82,0-1.09v-.35a2.28,2.28,0,0,1,0,.38c0,.28.05.64.09,1.1s0,1.05.15,1.74.24,1.5.39,2.39.47,1.86.8,2.92a28,28,0,0,0,1.35,3.32,26.39,26.39,0,0,0,4.93,7.2,28,28,0,0,0,20.31,8.77A28.43,28.43,0,0,0,351,390.08a27.75,27.75,0,0,0,5.78-4.07,27.83,27.83,0,0,0,8-12.89,29.55,29.55,0,0,0,1.1-7.67l.25.25-40-.12-11.79-.07-3.18,0-.83,0Z" style="fill:#263238"></path><path d="M365.1,371.67c0,.15-12.16.26-27.15.26s-27.16-.11-27.16-.26,12.16-.26,27.16-.26S365.1,371.53,365.1,371.67Z" style="fill:#E1E4EB"></path><path d="M365.1,369.81c0,.14-12.16.26-27.15.26s-27.16-.12-27.16-.26,12.16-.26,27.16-.26S365.1,369.67,365.1,369.81Z" style="fill:#E1E4EB"></path><path d="M368.27,391.91s-4.46-5-6.2-7.07-6.85-2.27-8.93-2.84c-4-1.09-7,2.45-3.12,7.37h0s-17.21,1.68-19.87.52-11-4.34-11-4.34a5.54,5.54,0,0,0-.79,4.73c.8,2.71,9.8,7.57,10.45,7.73s12.6,2.34,18.22,3.85,22.66,5.81,22.66,5.81c2.41-.6,3.88-15.09,3.88-15.09Z" style="fill:#ffbf9d"></path><path d="M349.79,389.05a3.26,3.26,0,0,0,1.16.83,4,4,0,0,0,1.54.21,18.61,18.61,0,0,1,2,0,5.94,5.94,0,0,1,3.43,1.47c.72.65,1,1.21.93,1.24s-.43-.41-1.16-.95a6.39,6.39,0,0,0-3.24-1.24c-.68-.05-1.36,0-2,0a4,4,0,0,1-1.68-.35C349.87,389.77,349.72,389,349.79,389.05Z" style="fill:#ff9a6c"></path><path d="M341.5,396.33a4.11,4.11,0,0,1-1,.15c-.65.06-1.6.12-2.76.17s-2.56.1-4.11.09c-.78,0-1.59,0-2.44-.09a8.1,8.1,0,0,1-2.62-.53,33.39,33.39,0,0,1-4.26-2.74c-1.26-.91-2.36-1.76-3.28-2.48s-1.65-1.32-2.15-1.75-.76-.67-.73-.7a4.26,4.26,0,0,1,.86.54l2.24,1.62,3.33,2.38a36.62,36.62,0,0,0,4.21,2.65,7.48,7.48,0,0,0,2.44.5c.83.06,1.64.1,2.41.12,1.53,0,2.92,0,4.09,0l2.76,0A4,4,0,0,1,341.5,396.33Z" style="fill:#ff9a6c"></path><path d="M248.14,367.66a2,2,0,0,1,0-.32c0-.24,0-.55,0-.95,0-.87,0-2.09,0-3.64,0-3.17.15-7.75.41-13.41s.63-12.39,1.68-19.83a37.69,37.69,0,0,1,3.31-11.29c.42-.93,1-1.82,1.46-2.73s1.11-1.78,1.76-2.62a32.26,32.26,0,0,1,4.27-4.81,30.68,30.68,0,0,1,7-5,27.71,27.71,0,0,1,3.88-1.54l3.82-1.3-.17.25v-.22l.18-.06,24.73-7.92.13,0,.09.12a19.7,19.7,0,0,0,6.09,5.38,24.59,24.59,0,0,0,5.69,2.46,20.62,20.62,0,0,0,2.2.57,15.3,15.3,0,0,0,1.63.32l1,.18.34.07-.35,0-1-.12a13.6,13.6,0,0,1-1.65-.27,20.56,20.56,0,0,1-2.23-.53,24.51,24.51,0,0,1-5.78-2.4,19.82,19.82,0,0,1-6.26-5.44l.21.08-24.69,8,.18-.25v.22l-.18.06L272.07,302a26.36,26.36,0,0,0-3.8,1.51,29.88,29.88,0,0,0-6.88,4.89,31.83,31.83,0,0,0-4.21,4.74c-.65.82-1.17,1.71-1.74,2.57s-1,1.77-1.44,2.69a37.67,37.67,0,0,0-3.3,11.15c-1.06,7.39-1.45,14.13-1.78,19.77s-.47,10.23-.58,13.39c-.06,1.56-.1,2.78-.13,3.64,0,.4,0,.71,0,.95A1.25,1.25,0,0,1,248.14,367.66Z" style="fill:#263238"></path><path d="M463.29,457.28a78.38,78.38,0,0,0-30.37-11.87c-26.5-4.34-76.8-12.73-87.08-15.35-14.1-3.61-40.59-9-61.17-5.78-7.74,1.23-15.2,5.06-21.5,9.37a19.78,19.78,0,0,1-24.47-1.57c-8.25-7.51-17.28-13.12-23.45-12.83.14-3.47-2.81-6.44-6.11-7.52s-6.87-.7-10.31-.33c-25.56,2.75-44.36,2.17-66.21,6.63l-24.91,8.18c-4.7.05-17.18,8.77-19.08,13.06l-1.92.65c-7.19,2.41-37.82,8.5-48,11.45-8.88,2.58-11.61,8.54-11.4,9.3L235,460.5l233.46.17Z" style="fill:#e0e0e0"></path><path d="M127.37,427.69a.6.6,0,0,1,.22-.1l.64-.25,2.52-.91c1.09-.39,2.43-.86,4-1.33s3.36-1.07,5.37-1.59l3.14-.85c1.1-.29,2.25-.54,3.44-.82,2.36-.6,4.93-1.07,7.62-1.61,5.4-1,11.38-1.81,17.7-2.32s12.36-.56,17.84-.44c2.75.12,5.35.19,7.79.41,1.21.1,2.39.17,3.52.29l3.23.35c2.07.2,3.92.51,5.55.75s3,.47,4.17.69l2.62.51.68.14.23.07-.24,0-.69-.09-2.63-.41c-1.15-.19-2.54-.41-4.18-.61s-3.48-.49-5.55-.66l-3.23-.32c-1.13-.11-2.3-.17-3.51-.26-2.43-.2-5-.26-7.77-.36-5.47-.1-11.49,0-17.79.48s-12.26,1.33-17.65,2.27c-2.69.52-5.25,1-7.62,1.56-1.18.27-2.34.51-3.43.79l-3.15.82c-2,.49-3.79,1.06-5.38,1.51s-2.93.88-4,1.25l-2.54.81-.67.2Z" style="fill:#263238"></path><path d="M380.74,450.83a2,2,0,0,1-.4-.06l-1.15-.24-4.44-1c-3.85-.83-9.41-2.09-16.32-3.49s-15.15-2.95-24.39-4.15a183.69,183.69,0,0,0-30.19-1.64,141.14,141.14,0,0,0-15.6,1.38c-2.49.46-4.95.83-7.33,1.34s-4.7,1.07-7,1.63c-4.53,1.11-8.83,2.18-12.93,2.89a59.37,59.37,0,0,1-11.5,1,35,35,0,0,1-16.14-3.9c-.88-.45-1.6-1-2.24-1.36s-1.14-.83-1.54-1.16l-.89-.79a3.33,3.33,0,0,1-.29-.27,1.65,1.65,0,0,1,.33.23l.92.74c.41.32.94.68,1.55,1.12s1.38.87,2.26,1.31a35.4,35.4,0,0,0,16,3.72A59.84,59.84,0,0,0,261,447.08c4.07-.72,8.36-1.8,12.88-2.93,2.26-.56,4.58-1.13,7-1.65s4.86-.89,7.36-1.36a139.81,139.81,0,0,1,15.66-1.39,179.16,179.16,0,0,1,30.28,1.69c9.24,1.23,17.49,2.82,24.39,4.26s12.46,2.76,16.3,3.66l4.41,1.06,1.14.29Z" style="fill:#263238"></path><path d="M371.41,454l-.29-.05-.83-.21-3.2-.87c-1.38-.42-3.11-.77-5.11-1.2-1-.2-2.06-.45-3.2-.67l-3.62-.59a172.14,172.14,0,0,0-18-1.82c-6.79-.35-14.28-.33-22.12,0s-15.31,1-22.07,1.82c-3.37.46-6.59.82-9.57,1.32l-4.33.67-4,.72c-2.54.43-4.82.9-6.82,1.32s-3.73.76-5.13,1.1l-3.23.72-.85.18a.92.92,0,0,1-.29,0,2.05,2.05,0,0,1,.28-.09l.83-.23,3.22-.82c1.39-.37,3.11-.76,5.11-1.19s4.28-.94,6.82-1.39l4-.75,4.33-.7c3-.52,6.21-.91,9.58-1.38,6.77-.79,14.24-1.53,22.1-1.86s15.37-.31,22.18.07a162,162,0,0,1,18,1.94l3.62.62c1.14.23,2.21.5,3.2.72,2,.45,3.73.83,5.1,1.28l3.18,1,.82.26Z" style="fill:#263238"></path><g style="opacity:0.30000000000000004"><path d="M303.62,436.17c-14.73-.08-30,2.53-42.08,11l6.16-1.21A170.68,170.68,0,0,1,347,443.5C332.85,439.57,318.34,436.26,303.62,436.17Z"></path></g><path d="M27.33,460.67s0-.08,0-.25a3.26,3.26,0,0,1,.14-.7,6.93,6.93,0,0,1,1.39-2.39,21.05,21.05,0,0,1,8.46-5.49c4.07-1.36,9-2.58,14.49-3.93s11.53-2.71,17.89-4.12,12.59-2.73,18.16-3.88l-.16.12a24.87,24.87,0,0,1,3.61-4.93,29.73,29.73,0,0,1,4.11-3.7,34.13,34.13,0,0,1,7.88-4.5,28.56,28.56,0,0,1,5.65-1.67,15.23,15.23,0,0,1,1.56-.22,2.2,2.2,0,0,1,.54,0l-.53.12c-.35.07-.87.12-1.54.29a30.52,30.52,0,0,0-5.57,1.79,35.19,35.19,0,0,0-7.75,4.54,31.23,31.23,0,0,0-4,3.7,24.72,24.72,0,0,0-3.51,4.84l-.06.1-.1,0L69.81,444.3c-6.36,1.41-12.41,2.78-17.9,4.08s-10.44,2.5-14.48,3.81A21.45,21.45,0,0,0,29,457.46a7.14,7.14,0,0,0-1.44,2.29,5,5,0,0,0-.19.68A2.26,2.26,0,0,1,27.33,460.67Z" style="fill:#263238"></path><path d="M468.44,460.67a1.51,1.51,0,0,1-.28-.17l-.8-.54c-.71-.47-1.75-1.16-3.11-2a104.25,104.25,0,0,0-11.95-6.55,57.4,57.4,0,0,0-8.81-3.23c-3.27-.84-6.83-1.5-10.57-2.23-7.49-1.41-15.74-2.84-24.42-4.3-4.33-.75-8.57-1.42-12.66-2.16l-11.76-2.17-19.91-3.7-13.42-2.54-3.64-.72-.95-.2-.32-.08a1.34,1.34,0,0,1,.33,0l1,.15,3.66.62,13.44,2.38,19.93,3.59L395.93,439c4.08.73,8.32,1.4,12.66,2.14,8.67,1.47,16.93,2.91,24.42,4.35,3.74.74,7.3,1.42,10.59,2.29a55.22,55.22,0,0,1,8.86,3.31,95.94,95.94,0,0,1,11.9,6.71c1.35.88,2.37,1.61,3.06,2.11l.77.58C468.36,460.59,468.45,460.66,468.44,460.67Z" style="fill:#263238"></path></g><g id="freepik--character-1--inject-307"><path d="M215.84,338.61c.71,1.13,9.6,32.31,10.8,38.22s-1.87,16.5-7.15,18.65c-3.73,1.52-15.1,3.67-15.1,3.67l.43-17.07.12-3.17-4.28-12.36,4.05-18.86Z" style="fill:#ffbf9d"></path><path d="M198.19,297.05c-2.39-7-7-13.06-10.58-19.58-5.28-9.7-7.6-22.47-9.82-33.14l-61.53,79.35c4.81,3.95,11,5.95,17.19,6.63s12.44.13,18.63-.53q22.17-2.32,44.11-6.37A34.05,34.05,0,0,0,198.19,297.05Z" style="fill:#263238"></path><path d="M105.61,281.85c1-8.47.06-17-.09-25.52s1.58-17.48,7.17-23.91,15.75-9.34,23-4.81l1.83,7.15c-.88,32.94,1.37,66.23.49,99.16-.12,4.33-3.39,8.43-5.13,12.39s-5.5,7.36-9.82,7.34c-5.67,0-19.72-6.12-21.77-11.39C93.79,323.13,103.13,303.79,105.61,281.85Z" style="fill:#263238"></path><path d="M111.91,229.39c6.47-10.3,14.69-14.9,26.73-16.61,6.8-1,9.79.1,14.86.81A47.78,47.78,0,0,1,170,220c6,3.89,7.1,8.49,8.51,14.4,1.44,6.08.23,13.51.54,19.75s-.6,12.67-3.61,18.14L160.09,277c-8.64,1.38-17.41,2.76-26.11,1.84s-17.5-4.44-22.95-11.29C103.45,258,105.43,239.69,111.91,229.39Z" style="fill:#263238"></path><path d="M124.51,229.59l19.92-11,5.55,0c12.33-1.5,22.52,11,23.85,21,1.48,11.07,2.84,24.65,2.1,33-1.49,16.87-15.34,20-15.34,20s1.39,8.72,2.18,14.22l-7.35,15.39-26-16.63-9.73-69.69A5.87,5.87,0,0,1,124.51,229.59Z" style="fill:#ffbf9d"></path><path d="M170.81,253.29a2.15,2.15,0,0,1-1.91,2.31,2.06,2.06,0,0,1-2.34-1.78,2.14,2.14,0,0,1,1.91-2.3A2.05,2.05,0,0,1,170.81,253.29Z" style="fill:#263238"></path><path d="M170.77,245.6c-.25.29-2-.79-4.26-.63s-3.91,1.44-4.18,1.17c-.13-.11.11-.63.81-1.22a5.84,5.84,0,0,1,3.32-1.28,5.62,5.62,0,0,1,3.41.84C170.61,245,170.89,245.46,170.77,245.6Z" style="fill:#263238"></path><path d="M158.31,265.37a15.68,15.68,0,0,1,3.7-.93c.58-.1,1.13-.26,1.2-.67a3,3,0,0,0-.51-1.71l-2.06-4.36c-2.85-6.21-5-11.33-4.72-11.44s2.78,4.83,5.63,11c.69,1.53,1.36,3,2,4.39A3.4,3.4,0,0,1,164,264a1.46,1.46,0,0,1-.91.92,3.39,3.39,0,0,1-1,.21A14.94,14.94,0,0,1,158.31,265.37Z" style="fill:#263238"></path><path d="M160.62,292.6a42.58,42.58,0,0,1-22.76-4.41s6.76,11.16,23.35,8.43Z" style="fill:#ff9a6c"></path><path d="M169,237.68c-.35.59-2.14.34-4.19.65s-3.72,1-4.2.51c-.22-.24,0-.8.64-1.42a6.58,6.58,0,0,1,6.76-.93C168.81,236.91,169.14,237.4,169,237.68Z" style="fill:#263238"></path><path d="M146,256.45a2.15,2.15,0,0,0,2.29,1.93,2.05,2.05,0,0,0,2-2.16,2.14,2.14,0,0,0-2.28-1.93A2.05,2.05,0,0,0,146,256.45Z" style="fill:#263238"></path><path d="M139.7,248.58c.3.25,1.79-1.12,4.08-1.36s4.1.73,4.32.42c.11-.14-.21-.61-1-1.06a5.86,5.86,0,0,0-3.5-.68,5.62,5.62,0,0,0-3.21,1.43C139.75,247.94,139.56,248.47,139.7,248.58Z" style="fill:#263238"></path><path d="M140.16,241.08c.51.47,2.22-.26,4.35-.51s4-.07,4.33-.66c.15-.29-.19-.78-1-1.19a7,7,0,0,0-7,.95C140.13,240.29,139.94,240.85,140.16,241.08Z" style="fill:#263238"></path><path d="M126,263.41c-.09-1.25-1.73-4.08-3-4.18-3.31-.29-9.2.39-8.67,8.72.72,11.38,12,8.31,12,8S126.31,267.7,126,263.41Z" style="fill:#ffbf9d"></path><path d="M123,272s-.19.15-.51.33a2,2,0,0,1-1.48.12c-1.23-.36-2.37-2.21-2.55-4.26a6.55,6.55,0,0,1,.38-2.87,2.28,2.28,0,0,1,1.39-1.62,1,1,0,0,1,1.21.47c.17.31.11.54.17.56s.23-.21.11-.67a1.31,1.31,0,0,0-.49-.69,1.53,1.53,0,0,0-1.11-.22,2.79,2.79,0,0,0-2,1.9,6.62,6.62,0,0,0-.49,3.21c.22,2.29,1.52,4.37,3.2,4.74a2.14,2.14,0,0,0,1.8-.42C123,272.25,123,272,123,272Z" style="fill:#ff9a6c"></path><path d="M122.58,259.32l3.24,2.61c10.91-13.41,31.42-46.14,30.29-44.2a36.4,36.4,0,0,0-18,.29c-9,2.72-25.92,9.52-24.29,20.36S122.58,259.32,122.58,259.32Z" style="fill:#263238"></path><path d="M150,271.28a3.31,3.31,0,0,1,2.53-1.88,4.32,4.32,0,0,1,4.17,1.38,2.66,2.66,0,0,1,.44,1.9c-.09.34,0,.17-.23.43a7.62,7.62,0,0,1-2.79,2.33,3.26,3.26,0,0,1-3.57-.77A3.33,3.33,0,0,1,150,271.28Z" style="fill:#ff9a6c"></path><path d="M150,268.12c.37-.08.74,2.38,3.1,3.82s4.94.78,5,1.12c.06.15-.51.57-1.61.76a6.19,6.19,0,0,1-4.17-.8,5.43,5.43,0,0,1-2.44-3.23C149.64,268.78,149.82,268.13,150,268.12Z" style="fill:#263238"></path><path d="M174.7,234.4a7.18,7.18,0,0,1,.21-1.43c.17-.92.43-2.25.66-3.89a25.1,25.1,0,0,0,.19-5.8,14,14,0,0,0-2.28-6.59,10.13,10.13,0,0,0-1.18-1.41c-.21-.22-.44-.41-.66-.61a8.06,8.06,0,0,0-.72-.47,9,9,0,0,0-3.21-.95,15.87,15.87,0,0,0-5.74.41,15.49,15.49,0,0,0-4.83,2.24s.08-.1.27-.27a5.82,5.82,0,0,1,.85-.67,12.1,12.1,0,0,1,3.62-1.66,15.74,15.74,0,0,1,5.89-.53,9.41,9.41,0,0,1,3.39,1,8.42,8.42,0,0,1,.8.52,8.57,8.57,0,0,1,.7.64,10.52,10.52,0,0,1,1.25,1.48,14.28,14.28,0,0,1,2.33,6.85,24.14,24.14,0,0,1-.31,5.89c-.27,1.66-.59,3-.82,3.88A7.83,7.83,0,0,1,174.7,234.4Z" style="fill:#263238"></path><path d="M110.86,276.3a4.27,4.27,0,0,1-.4-.7c-.26-.52-.6-1.21-1-2.07-.88-1.8-2.16-4.42-3.54-7.73a59.92,59.92,0,0,1-3.75-12.07,35.15,35.15,0,0,1,.41-15.42A25.37,25.37,0,0,1,105.8,231a21.47,21.47,0,0,1,5.13-5.46,24.18,24.18,0,0,1,11.72-4.57c3.59-.42,6.6,0,8.41,1a6.93,6.93,0,0,1,1.89,1.35,3.3,3.3,0,0,1,.51.63,8.3,8.3,0,0,0-2.48-1.79,15.49,15.49,0,0,0-8.29-.79,24,24,0,0,0-11.47,4.59,21,21,0,0,0-5,5.35,25,25,0,0,0-3.17,7.22,34.9,34.9,0,0,0-.45,15.19,62.39,62.39,0,0,0,3.62,12c1.33,3.32,2.56,6,3.38,7.78l1,2.11A4.68,4.68,0,0,1,110.86,276.3Z" style="fill:#263238"></path><path d="M101.15,316.34l30.46-13.74,33.18-1.39,25,2.44c-.53.81-8.46,39.58-8.46,39.58L163,352.83l-19.24,1.92-23-16Z" style="fill:#ffbf9d"></path><path d="M109.68,311.22s-16.4,5.26-19.33,11.07c-4.29,5.65-5.8,22.4-8,36.74l28.5,12.05,4,28.89-3.17,26.24,94.11-2.67-7.15-31.71A139.63,139.63,0,0,0,204.36,350l17.24-8.55s-13.62-29.25-19.73-35c-1.91-1.81-26.45-5.22-26.45-5.22s-2.33,34.71-18,37.1C143.23,340.49,126,331.08,109.68,311.22Z" style="fill:#E1E4EB"></path><path d="M105.44,348.11a5.52,5.52,0,0,1,.36,1.16c.21.86.47,1.94.79,3.2.67,2.82,1.56,6.5,2.53,10.57s1.89,7.75,2.58,10.56c.3,1.27.56,2.35.76,3.21a4.92,4.92,0,0,1,.21,1.19,6.28,6.28,0,0,1-.41-1.14c-.23-.74-.54-1.82-.92-3.16-.75-2.69-1.72-6.41-2.72-10.53s-1.83-7.89-2.39-10.62c-.28-1.36-.5-2.47-.63-3.23A5.59,5.59,0,0,1,105.44,348.11Z" style="fill:#263238"></path><path d="M198.28,329.79a2.8,2.8,0,0,1,.45.75c.27.5.63,1.24,1,2.17a59,59,0,0,1,4.34,15.2c.14,1,.23,1.82.27,2.38a3.24,3.24,0,0,1,0,.89,28,28,0,0,1-.65-3.21c-.37-2-1-4.71-1.8-7.66s-1.78-5.58-2.51-7.46A28.61,28.61,0,0,1,198.28,329.79Z" style="fill:#263238"></path><path d="M164.29,359.33a29.49,29.49,0,0,0-2.24-6.8,29,29,0,0,0-4.26-5.76,5.86,5.86,0,0,1,1.67,1.33,17.07,17.07,0,0,1,4.7,9.09A6.07,6.07,0,0,1,164.29,359.33Z" style="fill:#263238"></path><polygon points="150.32 370.25 151.98 410.13 175.34 411.02 180.56 383.24 182.65 372.07 150.32 370.25" style="fill:#fff"></polygon><path d="M176.14,403.21c-.44-.58,1.31-2.61,3.88-5.88,1.25-1.61,2.73-3.66,4.36-5.9a87.67,87.67,0,0,0,4.85-7.36,16.87,16.87,0,0,0,1.63-3.68,3.57,3.57,0,0,0,.14-1s0-.05,0,0,0,0,0,0,0,0,0,0-.06-.05-.14-.09a3.72,3.72,0,0,0-2.39-.46,14.41,14.41,0,0,0-2.9.69c-1.84.65-3.37,1.4-4.48,1.85s-1.81.64-2.06.37,0-1,.83-2a16.58,16.58,0,0,1,4.1-3.55,13.89,13.89,0,0,1,3.71-1.62,9.66,9.66,0,0,1,2.54-.27,7.22,7.22,0,0,1,2.91.73,3.46,3.46,0,0,1,.78.45,4.08,4.08,0,0,1,.8.71,3.89,3.89,0,0,1,.64.92,4.16,4.16,0,0,1,.41,1,7.24,7.24,0,0,1,0,3.46,18.36,18.36,0,0,1-2.07,5.1,48.74,48.74,0,0,1-5.63,7.8,50.8,50.8,0,0,1-5.49,5.5C179.17,402.75,176.55,403.78,176.14,403.21Z" style="fill:#fff"></path><path d="M84.73,360c0,.63,0,12.08,0,12.72.17,12.05,0,38.47,3.55,46.53s20.21,7.31,31.6,3.63c3.1-1,19.45-7.6,19.45-7.6l-2.21-16.92-26.44-.06.18-27.26Z" style="fill:#ffbf9d"></path><path d="M135.85,398.93l5.23-11.87,4.26-8.22a6.5,6.5,0,0,1,3.13-2.93l8.23-3.61s3.82.54,1.54,3.88c-1.05,1.55-6.93,5.05-6.93,5.05l-1.8,4.38,2.37-.55a6.92,6.92,0,0,1,3.57.35c4.58,1.65,12.93,5.41,12.77,6.5-.2,1.37-1.25,3-5.64,2.49l-3.05-.36,4.59,2a2.34,2.34,0,0,1,1.35,2.78c-.32,1-1.33,1.92-4.06,1.37-5.48-1.1-10.74-2-10.74-2l-2,2.57,9.61,1.9s2.18,1.57-1.59,2.77-10.31.5-10.31.5a12.56,12.56,0,0,1-2.29,7.37c-2.52,3.48-8.89,2.34-8.89,2.34Z" style="fill:#ffbf9d"></path><path d="M99.09,406.48a5.82,5.82,0,0,1,1-1.87,15,15,0,0,1,8.12-5.87,5.73,5.73,0,0,1,2.07-.34,23.82,23.82,0,0,0-6.33,3A24.1,24.1,0,0,0,99.09,406.48Z" style="fill:#ff9a6c"></path><path d="M142.62,403.26a3.11,3.11,0,0,1,1.51-3.19,2.66,2.66,0,0,1,1.18-.09c.38,0,.77.08,1.17.14a25,25,0,0,1,5.66,1.3,46.57,46.57,0,0,1-5.73-.79c-.4-.05-.78-.11-1.15-.14a2.37,2.37,0,0,0-1,0,2.33,2.33,0,0,0-1.13,1.17C142.71,402.6,142.71,403.26,142.62,403.26Z" style="fill:#ff9a6c"></path><path d="M144.55,394.1s.08-.24.31-.62a12,12,0,0,1,1.12-1.54,6,6,0,0,1,2.31-1.69,5.09,5.09,0,0,1,3.5.09,47.6,47.6,0,0,1,5.72,2.46,11,11,0,0,1,2.22,1.32,14.61,14.61,0,0,1-2.38-1c-1.44-.64-3.46-1.51-5.72-2.31a4.8,4.8,0,0,0-3.18-.13,6,6,0,0,0-2.2,1.49C145.18,393.32,144.63,394.16,144.55,394.1Z" style="fill:#ff9a6c"></path><path d="M134.64,413.07a8.2,8.2,0,0,1-.17-2.19,49.35,49.35,0,0,1,.24-5.29,46,46,0,0,1,.8-5.23,8.68,8.68,0,0,1,.59-2.12c.16,0-.48,3.31-.87,7.4S134.8,413.07,134.64,413.07Z" style="fill:#ff9a6c"></path><path d="M216.82,376.82a35.52,35.52,0,0,0-5.89-1,37.08,37.08,0,0,0-6,.49,14.5,14.5,0,0,1,11.84.51Z" style="fill:#ff9a6c"></path><path d="M183.35,375.86s2.24-4.82,4.47-5.05,11.57,4.09,11.57,4.09a16.15,16.15,0,0,1,5,.55,4,4,0,0,1,2.63,4.72,8.61,8.61,0,0,0-.33,2.46c.09,1.58,1.68,5.61,1,7.8a19.18,19.18,0,0,0-1.19,6.29c.09,1.75.5,3.35-1.3,4.86S194,403.21,194,403.21l-4.39-1.28-4.08-5s-.37-2.76,3.21-1a31.35,31.35,0,0,0,6.23,2.3l4.64-.72s-12.52-2.67-14.36-3.63c-2.29-1.19-2.17-3.4-1.18-4.47l1-1.07s-1.31-3.22-.15-4.44l1.16-1.23-.1-.39a3.91,3.91,0,0,1,1.21-3.91l1.64-1.45S183.72,378.37,183.35,375.86Z" style="fill:#ffbf9d"></path><path d="M199.39,374.9s.45-.24,1.32-.17a18.8,18.8,0,0,1,3.57.62,8.91,8.91,0,0,1,1.17.39,3.36,3.36,0,0,1,1.09.84,3.6,3.6,0,0,1,.81,2.84,14.66,14.66,0,0,0-.38,3.08,14.07,14.07,0,0,0,.73,3.24,12.09,12.09,0,0,1,.68,3.39,7,7,0,0,1-.81,3.13,12.93,12.93,0,0,0-1,2.6,10.81,10.81,0,0,0-.14,2.44,7.41,7.41,0,0,1-.51,3.59,3.29,3.29,0,0,1-.58.82c-.17.16-.27.22-.28.2a5.54,5.54,0,0,0,.67-1.1,7.72,7.72,0,0,0,.33-3.5,10.48,10.48,0,0,1,.09-2.53,12.89,12.89,0,0,1,1-2.72,6.52,6.52,0,0,0,.74-2.93,12.16,12.16,0,0,0-.67-3.24,14.66,14.66,0,0,1-.74-3.36,15.13,15.13,0,0,1,.41-3.17,3.17,3.17,0,0,0-.67-2.51,2.78,2.78,0,0,0-.93-.75,8.93,8.93,0,0,0-1.09-.4,24.12,24.12,0,0,0-3.49-.77A4.8,4.8,0,0,0,199.39,374.9Z" style="fill:#ff9a6c"></path><path d="M198.92,377.57a28.65,28.65,0,0,0-5-1.18,20.15,20.15,0,0,0-5.13.51,3.4,3.4,0,0,1,1.42-.65,10.4,10.4,0,0,1,3.75-.38A9.24,9.24,0,0,1,198.92,377.57Z" style="fill:#ff9a6c"></path><path d="M196.06,383.13A37.87,37.87,0,0,1,191,383a38.88,38.88,0,0,1-5.09-.34,29.82,29.82,0,0,1,10.2.52Z" style="fill:#ff9a6c"></path><path d="M193.2,389.43a10.12,10.12,0,0,1-4.16,0,10.38,10.38,0,0,1-4-1.22c.05-.15,1.82.36,4.06.7S193.19,389.28,193.2,389.43Z" style="fill:#ff9a6c"></path><path d="M463.29,457.28a78.38,78.38,0,0,0-30.37-11.87c-26.5-4.34-76.8-12.73-87.08-15.35-14.1-3.61-40.59-9-61.17-5.78-7.74,1.23-15.2,5.06-21.5,9.37a19.78,19.78,0,0,1-24.47-1.57c-8.25-7.51-17.28-13.12-23.45-12.83.14-3.47-2.81-6.44-6.11-7.52s-6.87-.7-10.31-.33c-25.56,2.75-44.36,2.17-66.21,6.63l-24.91,8.18c-4.7.05-17.18,8.77-19.08,13.06l-1.92.65c-7.19,2.41-37.82,8.5-48,11.45-8.88,2.58-11.61,8.54-11.4,9.3L235,460.5l233.46.17Z" style="fill:#e0e0e0"></path><path d="M127.37,427.69a.6.6,0,0,1,.22-.1l.64-.25,2.52-.91c1.09-.39,2.43-.86,4-1.33s3.36-1.07,5.37-1.59l3.14-.85c1.1-.29,2.25-.54,3.44-.82,2.36-.6,4.93-1.07,7.62-1.61,5.4-1,11.38-1.81,17.7-2.32s12.36-.56,17.84-.44c2.75.12,5.35.19,7.79.41,1.21.1,2.39.17,3.52.29l3.23.35c2.07.2,3.92.51,5.55.75s3,.47,4.17.69l2.62.51.68.14.23.07-.24,0-.69-.09-2.63-.41c-1.15-.19-2.54-.41-4.18-.61s-3.48-.49-5.55-.66l-3.23-.32c-1.13-.11-2.3-.17-3.51-.26-2.43-.2-5-.26-7.77-.36-5.47-.1-11.49,0-17.79.48s-12.26,1.33-17.65,2.27c-2.69.52-5.25,1-7.62,1.56-1.18.27-2.34.51-3.43.79l-3.15.82c-2,.49-3.79,1.06-5.38,1.51s-2.93.88-4,1.25l-2.54.81-.67.2Z" style="fill:#263238"></path><path d="M380.74,450.83a2,2,0,0,1-.4-.06l-1.15-.24-4.44-1c-3.85-.83-9.41-2.09-16.32-3.49s-15.15-2.95-24.39-4.15a183.69,183.69,0,0,0-30.19-1.64,141.14,141.14,0,0,0-15.6,1.38c-2.49.46-4.95.83-7.33,1.34s-4.7,1.07-7,1.63c-4.53,1.11-8.83,2.18-12.93,2.89a59.37,59.37,0,0,1-11.5,1,35,35,0,0,1-16.14-3.9c-.88-.45-1.6-1-2.24-1.36s-1.14-.83-1.54-1.16l-.89-.79a3.33,3.33,0,0,1-.29-.27,1.65,1.65,0,0,1,.33.23l.92.74c.41.32.94.68,1.55,1.12s1.38.87,2.26,1.31a35.4,35.4,0,0,0,16,3.72A59.84,59.84,0,0,0,261,447.08c4.07-.72,8.36-1.8,12.88-2.93,2.26-.56,4.58-1.13,7-1.65s4.86-.89,7.36-1.36a139.81,139.81,0,0,1,15.66-1.39,179.16,179.16,0,0,1,30.28,1.69c9.24,1.23,17.49,2.82,24.39,4.26s12.46,2.76,16.3,3.66l4.41,1.06,1.14.29Z" style="fill:#263238"></path><path d="M371.41,454l-.29-.05-.83-.21-3.2-.87c-1.38-.42-3.11-.77-5.11-1.2-1-.2-2.06-.45-3.2-.67l-3.62-.59a172.14,172.14,0,0,0-18-1.82c-6.79-.35-14.28-.33-22.12,0s-15.31,1-22.07,1.82c-3.37.46-6.59.82-9.57,1.32l-4.33.67-4,.72c-2.54.43-4.82.9-6.82,1.32s-3.73.76-5.13,1.1l-3.23.72-.85.18a.92.92,0,0,1-.29,0,2.05,2.05,0,0,1,.28-.09l.83-.23,3.22-.82c1.39-.37,3.11-.76,5.11-1.19s4.28-.94,6.82-1.39l4-.75,4.33-.7c3-.52,6.21-.91,9.58-1.38,6.77-.79,14.24-1.53,22.1-1.86s15.37-.31,22.18.07a162,162,0,0,1,18,1.94l3.62.62c1.14.23,2.21.5,3.2.72,2,.45,3.73.83,5.1,1.28l3.18,1,.82.26Z" style="fill:#263238"></path><g style="opacity:0.30000000000000004"><path d="M303.62,436.17c-14.73-.08-30,2.53-42.08,11l6.16-1.21A170.68,170.68,0,0,1,347,443.5C332.85,439.57,318.34,436.26,303.62,436.17Z"></path></g><path d="M27.33,460.67s0-.08,0-.25a3.26,3.26,0,0,1,.14-.7,6.93,6.93,0,0,1,1.39-2.39,21.05,21.05,0,0,1,8.46-5.49c4.07-1.36,9-2.58,14.49-3.93s11.53-2.71,17.89-4.12,12.59-2.73,18.16-3.88l-.16.12a24.87,24.87,0,0,1,3.61-4.93,29.73,29.73,0,0,1,4.11-3.7,34.13,34.13,0,0,1,7.88-4.5,28.56,28.56,0,0,1,5.65-1.67,15.23,15.23,0,0,1,1.56-.22,2.2,2.2,0,0,1,.54,0l-.53.12c-.35.07-.87.12-1.54.29a30.52,30.52,0,0,0-5.57,1.79,35.19,35.19,0,0,0-7.75,4.54,31.23,31.23,0,0,0-4,3.7,24.72,24.72,0,0,0-3.51,4.84l-.06.1-.1,0L69.81,444.3c-6.36,1.41-12.41,2.78-17.9,4.08s-10.44,2.5-14.48,3.81A21.45,21.45,0,0,0,29,457.46a7.14,7.14,0,0,0-1.44,2.29,5,5,0,0,0-.19.68A2.26,2.26,0,0,1,27.33,460.67Z" style="fill:#263238"></path><path d="M468.44,460.67a1.51,1.51,0,0,1-.28-.17l-.8-.54c-.71-.47-1.75-1.16-3.11-2a104.25,104.25,0,0,0-11.95-6.55,57.4,57.4,0,0,0-8.81-3.23c-3.27-.84-6.83-1.5-10.57-2.23-7.49-1.41-15.74-2.84-24.42-4.3-4.33-.75-8.57-1.42-12.66-2.16l-11.76-2.17-19.91-3.7-13.42-2.54-3.64-.72-.95-.2-.32-.08a1.34,1.34,0,0,1,.33,0l1,.15,3.66.62,13.44,2.38,19.93,3.59L395.93,439c4.08.73,8.32,1.4,12.66,2.14,8.67,1.47,16.93,2.91,24.42,4.35,3.74.74,7.3,1.42,10.59,2.29a55.22,55.22,0,0,1,8.86,3.31,95.94,95.94,0,0,1,11.9,6.71c1.35.88,2.37,1.61,3.06,2.11l.77.58C468.36,460.59,468.45,460.66,468.44,460.67Z" style="fill:#263238"></path></g><g id="freepik--Breakfast--inject-307"><path d="M167.21,413.28a28.07,28.07,0,1,0,56.14,0Z" style="fill:#455a64"></path><path d="M167.21,413.28a1.1,1.1,0,0,1,.26,0l.8,0,3.13,0,11.73-.07,40.22-.12h.26v.26a29.7,29.7,0,0,1-1.11,7.81,28.14,28.14,0,0,1-8.18,13.13,28.45,28.45,0,0,1-5.9,4.14,28.93,28.93,0,0,1-13.15,3.22,28.23,28.23,0,0,1-20.57-9,26.7,26.7,0,0,1-4.93-7.32,30.91,30.91,0,0,1-1.33-3.38c-.31-1.07-.53-2.06-.75-2.95s-.25-1.71-.35-2.41-.07-1.32-.1-1.8,0-.82,0-1.09a1.46,1.46,0,0,1,0-.35,2.28,2.28,0,0,1,0,.38c0,.28.05.64.08,1.1s0,1.05.16,1.74.24,1.5.39,2.39.47,1.86.79,2.92a30.83,30.83,0,0,0,1.36,3.33,26.68,26.68,0,0,0,4.92,7.19,27.84,27.84,0,0,0,33.22,5.58,27.55,27.55,0,0,0,5.79-4.07A27.71,27.71,0,0,0,222,421a29.56,29.56,0,0,0,1.11-7.67l.25.25-40-.12-11.79-.07-3.19,0-.83,0Z" style="fill:#263238"></path><g style="opacity:0.6000000000000001"><rect x="258.79" y="397.23" width="19.89" height="38.83" style="fill:#fff"></rect></g><path d="M274.64,433.54H262.89a2.6,2.6,0,0,1-2.61-2.6V407.55l5.51.91a14.82,14.82,0,0,0,4.41.06l7-1v23.39A2.59,2.59,0,0,1,274.64,433.54Z" style="fill:#E1E4EB"></path><path d="M278.63,397.44a5.36,5.36,0,0,1-.75.27c-.49.15-1.2.34-2.09.53a29.51,29.51,0,0,1-3.17.5,37.38,37.38,0,0,1-3.92.15,36.42,36.42,0,0,1-7.07-.87c-.89-.2-1.6-.39-2.09-.54a6.25,6.25,0,0,1-.75-.25,4.65,4.65,0,0,1,.77.15c.5.13,1.22.28,2.11.46a41.24,41.24,0,0,0,7,.8c1.38,0,2.7,0,3.9-.14s2.26-.26,3.15-.43,1.61-.33,2.1-.46A6.71,6.71,0,0,1,278.63,397.44Z" style="fill:#263238"></path><path d="M260.32,400.83c.07,0,.12,6.69.12,14.93s-.05,14.92-.12,14.92-.13-6.68-.13-14.92S260.25,400.83,260.32,400.83Z" style="fill:#263238"></path><path d="M273.58,433.7c0,.07-2.38.13-5.32.13s-5.33-.06-5.33-.13,2.39-.13,5.33-.13S273.58,433.63,273.58,433.7Z" style="fill:#263238"></path><g style="opacity:0.30000000000000004"><path d="M260.32,407.65a9.79,9.79,0,0,0,6.09,3.12c3.87.45,7.59-1.42,11-3.24-5.69.81-11.6,1.59-17.08-.13" style="fill:#fff"></path></g><g style="opacity:0.30000000000000004"><path d="M269.73,417.12c-1.76,1.17-3.16,2.83-4.94,4s-4.22,1.66-5.92.42v2.68c1.7,1.25,4.14.72,5.92-.42s3.18-2.8,4.94-4a11.14,11.14,0,0,1,8.95-1.47v-2.68A11.14,11.14,0,0,0,269.73,417.12Z" style="fill:#fff"></path></g><path d="M253.2,395.18c0-3.62-2.66-7.41-5.32-11.14-1.8-2.5-2.22-6.09-2.3-8.2,0-.25,0-.47,0-.68h.24a2,2,0,0,0,2.09-1.78v-1.57a1.75,1.75,0,0,0-.16-.71,2.14,2.14,0,0,0-1.93-1.1l-13.14,0a2,2,0,0,0-2.1,1.79v1.57a2,2,0,0,0,2.08,1.8h.24c0,.2,0,.43,0,.68-.09,2.11-.53,5.69-2.33,8.18-2.69,3.72-5.36,7.49-5.38,11.11a.21.21,0,0,0,0,.08.43.43,0,0,1,0,.05l-.09,37.3a3.7,3.7,0,0,0,3.66,3.7l20.66.17a3.68,3.68,0,0,0,3.72-3.67l.09-37.42a.35.35,0,0,1,0-.06S253.2,395.2,253.2,395.18Z" style="fill:#fafafa"></path><path d="M253.2,395.18a3.92,3.92,0,0,1,0,.46c0,.33,0,.78,0,1.36,0,1.23,0,3,0,5.24,0,4.58,0,11.16,0,19.28v9.79c0,.58,0,1.14,0,1.76a3.89,3.89,0,0,1-3.85,3.55l-3.77,0-7.86-.06-8.26-.06a5.7,5.7,0,0,1-2.18-.26,3.94,3.94,0,0,1-2.55-3.52c0-.73,0-1.46,0-2.19,0-5.86,0-11.92,0-18.13,0-3.51,0-7,0-10.38,0-1.7,0-3.39,0-5.06,0-.85,0-1.65,0-2.52a10.72,10.72,0,0,1,.56-2.46c1.16-3.15,3.16-5.74,5-8.27a12,12,0,0,0,1.7-4.17,22,22,0,0,0,.51-4.39l.23.23a2.54,2.54,0,0,1-2.06-.78,1.88,1.88,0,0,1-.48-1.06c0-.39,0-.69,0-1a6.38,6.38,0,0,1,0-1.05,1.93,1.93,0,0,1,.54-1,2.55,2.55,0,0,1,2-.68l7.59,0,3.56,0h1.72a2.48,2.48,0,0,1,1.67.61,1.91,1.91,0,0,1,.63,1.61c0,.55,0,1,0,1.62a2,2,0,0,1-1,1.34,2.64,2.64,0,0,1-1.53.34l.17-.17c0,3.39.68,6.52,2.19,8.72a52.1,52.1,0,0,1,3.71,5.78,13.74,13.74,0,0,1,1.46,4,6.6,6.6,0,0,1,.1,1.48s0-.51-.19-1.47a14.45,14.45,0,0,0-1.53-4,53,53,0,0,0-3.77-5.72c-1.57-2.26-2.25-5.43-2.31-8.87V375h.17a2.32,2.32,0,0,0,1.35-.3,1.65,1.65,0,0,0,.79-1.1c0-.46,0-1,0-1.56a1.53,1.53,0,0,0-.51-1.33c-.76-.73-2-.44-3.14-.5H232.92a2.15,2.15,0,0,0-1.67.56,1.42,1.42,0,0,0-.41.76,7.44,7.44,0,0,0,0,1c0,.32,0,.7,0,1a1.49,1.49,0,0,0,.37.79,2.11,2.11,0,0,0,1.72.62h.24v.25a22.33,22.33,0,0,1-.51,4.5,12.48,12.48,0,0,1-1.77,4.34c-1.79,2.55-3.76,5.12-4.87,8.16a10.34,10.34,0,0,0-.54,2.34c-.06.78,0,1.64,0,2.47,0,1.67,0,3.36,0,5.06q0,5.12,0,10.38c0,6.21,0,12.27,0,18.13v2.17a3.33,3.33,0,0,0,.65,1.88,3.4,3.4,0,0,0,1.56,1.19,5.3,5.3,0,0,0,2,.23l8.26.08,7.86.08,3.77,0a3.46,3.46,0,0,0,3.43-3.15c0-.55,0-1.16,0-1.73,0-1.15,0-2.28,0-3.39q0-3.33,0-6.39c.06-8.12.1-14.7.13-19.28,0-2.25,0-4,.06-5.24,0-.58,0-1,0-1.36A1.77,1.77,0,0,1,253.2,395.18Z" style="fill:#263238"></path><path d="M244.82,375.07a51.83,51.83,0,0,1-5.85.15,52.85,52.85,0,0,1-5.85-.18,51.83,51.83,0,0,1,5.85-.15A52.85,52.85,0,0,1,244.82,375.07Z" style="fill:#263238"></path><path d="M251.59,432.57l.41-32.38a4.19,4.19,0,0,0-4,.16,15,15,0,0,1-3.85,1.66,7.47,7.47,0,0,1-4.7-1.22,29.29,29.29,0,0,0-4.35-2.39,8.49,8.49,0,0,0-8.76,2l-.08,31.8a2.44,2.44,0,0,0,2.4,2.44l20.47.3A2.44,2.44,0,0,0,251.59,432.57Z" style="fill:#E1E4EB"></path><polygon points="138.85 427.67 148.74 444.44 324.58 444.44 334.33 427.67 138.85 427.67" style="fill:#ae7461"></polygon><polygon points="153.84 444.44 149.02 460.76 156.89 460.76 162.24 444.44 153.84 444.44" style="fill:#ae7461"></polygon><polygon points="321.8 444.44 327.03 460.91 319.16 460.91 313.4 444.44 321.8 444.44" style="fill:#ae7461"></polygon><path d="M324.84,444.44c0,.15-39.5.26-88.22.26s-88.22-.11-88.22-.26,39.49-.26,88.22-.26S324.84,444.3,324.84,444.44Z" style="fill:#263238"></path><path d="M205.14,444.11a5.84,5.84,0,0,0,.18-2.14,6.27,6.27,0,0,0-3.3-4.59c-2.16-1.24-5.21-1.68-8.52-1.77a55.5,55.5,0,0,0-10.78,1c-3.81.64-7.38,1.48-10.74,1.89a8.83,8.83,0,0,1-4.77-.67,4.93,4.93,0,0,1-2.73-3.16,5.76,5.76,0,0,1,.31-3.45,8.3,8.3,0,0,1,1.35-2.23,11.09,11.09,0,0,1,1.11-1.2,1.88,1.88,0,0,1,.44-.37s-.54.57-1.39,1.69a8.69,8.69,0,0,0-1.24,2.21,5.53,5.53,0,0,0-.22,3.26,4.52,4.52,0,0,0,2.56,2.86,8.37,8.37,0,0,0,4.53.58c3.29-.42,6.89-1.28,10.7-1.92a53.24,53.24,0,0,1,10.88-.95c3.35.12,6.45.6,8.7,1.93a7,7,0,0,1,2.49,2.41,5.64,5.64,0,0,1,.82,2.48,4,4,0,0,1-.16,1.64,1.89,1.89,0,0,1-.15.4C205.17,444.07,205.14,444.12,205.14,444.11Z" style="fill:#6f4439"></path><path d="M242.45,444.28c-.09,0-.09-1.21-.49-3.1a18.7,18.7,0,0,0-3-6.86,18.89,18.89,0,0,0-5.42-5.13c-1.64-1-2.78-1.45-2.75-1.53a2.64,2.64,0,0,1,.83.22,15.59,15.59,0,0,1,2.1,1,17.25,17.25,0,0,1,8.55,12.24,13.4,13.4,0,0,1,.2,2.32A2.22,2.22,0,0,1,242.45,444.28Z" style="fill:#6f4439"></path><path d="M327,440.09a12.28,12.28,0,0,0-1.58-1.25,10.46,10.46,0,0,0-5.22-1.41,53.16,53.16,0,0,0-8.16.66c-3.07.4-6.44,1-10,1.15a30.91,30.91,0,0,1-10.07-.93,18.28,18.28,0,0,1-7.29-3.88,9.19,9.19,0,0,1-2-2.48,5.5,5.5,0,0,1-.69-2.32,4,4,0,0,1,.17-1.51c.11-.34.2-.5.22-.49a5.44,5.44,0,0,0-.19,2,7.11,7.11,0,0,0,2.76,4.54,18.15,18.15,0,0,0,7.17,3.68,31.07,31.07,0,0,0,9.91.88c3.56-.19,6.92-.73,10-1.11a51.14,51.14,0,0,1,8.23-.55,10.3,10.3,0,0,1,5.32,1.61,6.35,6.35,0,0,1,1.15,1A1.49,1.49,0,0,1,327,440.09Z" style="fill:#6f4439"></path></g></svg>
