<svg xmlns="http://www.w3.org/2000/svg" viewBox="0 0 500 500"><g id="freepik--background-simple--inject-128"><path d="M488.67,241c-5.18,43.91-25.23,94.95-65.27,118.4C362.91,394.84,368,449.35,249.9,473A242.91,242.91,0,0,1,197.55,478a202.49,202.49,0,0,1-25.69-2.1c-75-11-125.54-63.12-144.07-126.09-24.38-82.8,24.3-137,56.57-169.68S140.26,45.68,256.15,21.47A235.49,235.49,0,0,1,310,16.36c41.23,1,86.2,14.55,117.32,42.81q3.51,3.18,6.83,6.59C477.36,110.16,495.74,181.15,488.67,241Z" style="fill:#EBE4E4"></path><path d="M488.67,241c-5.18,43.91-25.23,94.95-65.27,118.4C362.91,394.84,368,449.35,249.9,473A242.91,242.91,0,0,1,197.55,478a202.49,202.49,0,0,1-25.69-2.1c-75-11-125.54-63.12-144.07-126.09-24.38-82.8,24.3-137,56.57-169.68S140.26,45.68,256.15,21.47A235.49,235.49,0,0,1,310,16.36c41.23,1,86.2,14.55,117.32,42.81q3.51,3.18,6.83,6.59C477.36,110.16,495.74,181.15,488.67,241Z" style="fill:#fff;opacity:0.7000000000000001"></path></g><g id="freepik--Floor--inject-128"><line x1="494.13" y1="463.98" x2="7.31" y2="463.98" style="fill:none;stroke:#263238;stroke-linecap:round;stroke-linejoin:round"></line></g><g id="freepik--Clock--inject-128"><g style="opacity:0.30000000000000004"><circle cx="404.34" cy="151.83" r="34.51" style="fill:none;stroke:#000;stroke-linecap:round;stroke-linejoin:round"></circle><circle cx="404.34" cy="151.83" r="32.17" style="fill:none;stroke:#000;stroke-linecap:round;stroke-linejoin:round"></circle><polyline points="391.46 151.83 404.34 151.83 420.42 136.04" style="fill:none;stroke:#000;stroke-linecap:round;stroke-linejoin:round"></polyline></g></g><g id="freepik--Window--inject-128"><g style="opacity:0.30000000000000004"><rect x="199.8" y="167.13" width="45.88" height="80.53" style="fill:none;stroke:#000;stroke-linecap:round;stroke-linejoin:round"></rect><polyline points="245.68 305.08 245.68 254.67 199.8 254.67 199.8 335.2 245.68 335.2 245.68 311.85" style="fill:none;stroke:#000;stroke-linecap:round;stroke-linejoin:round"></polyline><rect x="199.8" y="342.21" width="45.88" height="80.53" style="fill:none;stroke:#000;stroke-linecap:round;stroke-linejoin:round"></rect><polyline points="168.71 167.13 148.41 167.13 148.41 247.67 194.29 247.67 194.29 167.13 175.1 167.13" style="fill:none;stroke:#000;stroke-linecap:round;stroke-linejoin:round"></polyline><polyline points="167.11 254.67 148.41 254.67 148.41 335.2 194.29 335.2 194.29 254.67 173.5 254.67" style="fill:none;stroke:#000;stroke-linecap:round;stroke-linejoin:round"></polyline><rect x="148.41" y="342.21" width="45.88" height="80.53" style="fill:none;stroke:#000;stroke-linecap:round;stroke-linejoin:round"></rect><rect x="97.02" y="167.13" width="45.88" height="80.53" style="fill:none;stroke:#000;stroke-linecap:round;stroke-linejoin:round"></rect><rect x="97.02" y="254.67" width="45.88" height="80.53" style="fill:none;stroke:#000;stroke-linecap:round;stroke-linejoin:round"></rect><polyline points="45.63 233.96 45.63 247.67 91.52 247.67 91.52 167.13 45.63 167.13 45.63 227.19" style="fill:none;stroke:#000;stroke-linecap:round;stroke-linejoin:round"></polyline><rect x="45.63" y="254.67" width="45.88" height="80.53" style="fill:none;stroke:#000;stroke-linecap:round;stroke-linejoin:round"></rect></g></g><g id="freepik--Plant--inject-128"><path d="M69.55,316.17s-2.45,6.75-7.68,7.68-14.43-9.22-8.6-14.44S67.1,312.48,69.55,316.17Z" style="fill:#EBE4E4;stroke:#263238;stroke-linecap:round;stroke-linejoin:round"></path><path d="M77.54,283s-7.68,18.74-4.61,27.95,22.12,16,27.65,4-6.76-28.88-11.37-32.56S79.08,279.92,77.54,283Z" style="fill:#EBE4E4;stroke:#263238;stroke-linecap:round;stroke-linejoin:round"></path><path d="M122.39,291s-13.21,12-14.75,24,7.38,16.28,16.59,14.74,13.82-24.88,11.06-35.63S122.39,291,122.39,291Z" style="fill:#EBE4E4;stroke:#263238;stroke-linecap:round;stroke-linejoin:round"></path><path d="M124.85,357.33s-14.75.61-15.36,7.68,6.45,8.6,13.51,2.46S131,357.64,124.85,357.33Z" style="fill:#EBE4E4;stroke:#263238;stroke-linecap:round;stroke-linejoin:round"></path><path d="M109.73,366.69s11.62-5.31,16.85-6.24" style="fill:none;stroke:#263238;stroke-miterlimit:10"></path><path d="M128.13,403.56s-10.83-10-16.27-5.48-1.55,10.64,7.78,11.32S132.25,408.13,128.13,403.56Z" style="fill:#EBE4E4;stroke:#263238;stroke-linecap:round;stroke-linejoin:round"></path><path d="M110.84,399.44s12,4.49,16.3,7.55" style="fill:none;stroke:#263238;stroke-miterlimit:10"></path><path d="M71,400.61s14.93-13.82,22.44-7.56,2.14,14.67-10.74,15.61S65.33,406.91,71,400.61Z" style="fill:#EBE4E4;stroke:#263238;stroke-linecap:round;stroke-linejoin:round"></path><path d="M94.85,394.93s-16.5,6.19-22.48,10.41" style="fill:none;stroke:#263238;stroke-miterlimit:10"></path><path d="M88.29,372.07s-1.53,7.38-7.06,10.14-15.36-3.07-10.14-12S85.53,368.39,88.29,372.07Z" style="fill:#EBE4E4;stroke:#263238;stroke-linecap:round;stroke-linejoin:round"></path><path d="M75.39,349s-2.77-6.15-13.52-2.16-15,10.14-8.29,12.29S75.39,349,75.39,349Z" style="fill:#EBE4E4;stroke:#263238;stroke-linecap:round;stroke-linejoin:round"></path><path d="M73.33,348.76S61.94,350,55.79,355.22" style="fill:none;stroke:#263238;stroke-miterlimit:10"></path><path d="M106.11,275.31s1.84,4.3,5.53,3.38,4.6-6.45,10.44-4.91,10.75,8.29,10.75,5.22-7.37-11.06-15.66-11.06S106.41,271.32,106.11,275.31Z" style="fill:#EBE4E4;stroke:#263238;stroke-linecap:round;stroke-linejoin:round"></path><path d="M75.39,349s13.23-2.54,18.73,12.14a42.81,42.81,0,0,1,1.39,4.5" style="fill:none;stroke:#263238;stroke-miterlimit:10"></path><path d="M130.59,334.81s2.77-6.15,13.52-2.15,15,10.13,8.29,12.28S130.59,334.81,130.59,334.81Z" style="fill:#EBE4E4;stroke:#263238;stroke-linecap:round;stroke-linejoin:round"></path><path d="M133.05,335.21s11.08-.61,16.31,5.85" style="fill:none;stroke:#263238;stroke-miterlimit:10"></path><path d="M130.59,334.81a17,17,0,0,0-9.15,1.24" style="fill:none;stroke:#263238;stroke-miterlimit:10"></path><path d="M82.44,323.79c-6.48-6.62-12.89-7.62-12.89-7.62s-9.46-2.51-13.15.88" style="fill:none;stroke:#263238;stroke-miterlimit:10"></path><line x1="83.76" y1="289.76" x2="83.18" y2="287.19" style="fill:none;stroke:#263238;stroke-miterlimit:10"></line><path d="M98.71,425.56s1.38-52.9,0-69-7.8-34.88-7.8-34.88l-6.54-29.23" style="fill:none;stroke:#263238;stroke-miterlimit:10"></path><line x1="126.02" y1="301.12" x2="127.2" y2="298.58" style="fill:none;stroke:#263238;stroke-miterlimit:10"></line><path d="M101.93,425.5s.46-48.25,2.29-62,9.18-35.34,9.18-35.34L124.67,304" style="fill:none;stroke:#263238;stroke-miterlimit:10"></path><path d="M109.73,366.69s-3.21,27.67-5,58.88" style="fill:none;stroke:#263238;stroke-miterlimit:10"></path><path d="M94.12,425.5s.92-44.12-.91-50.09-4.92-3.34-4.92-3.34-8.49,1-11.57,5.93" style="fill:none;stroke:#263238;stroke-miterlimit:10"></path><path d="M96.23,369.12c2.4,13.45.19,56.43.19,56.43" style="fill:none;stroke:#263238;stroke-miterlimit:10"></path><path d="M118.83,337.5a19.11,19.11,0,0,0-7,9.45c-5.51,14.69-4.88,78.62-4.88,78.62" style="fill:none;stroke:#263238;stroke-miterlimit:10"></path><path d="M84,325.54a43.4,43.4,0,0,1,7.79,14.07c7.34,21.12,10.1,75.79,8.72,85.89" style="fill:none;stroke:#263238;stroke-miterlimit:10"></path><path d="M102.69,345.3c-.45,26.64-.76,80.2-.76,80.2" style="fill:none;stroke:#263238;stroke-miterlimit:10"></path><path d="M102.75,342c.3-17.62.66-34.86,1-44.14.92-23.87,2.35-22.53,2.35-22.53s1.7-5.36,11.24-4.74" style="fill:none;stroke:#263238;stroke-miterlimit:10"></path><path d="M91,362.1s-7.68-6.84-4.61-10.21,22.12-5.84,27.65-1.46-6.76,10.55-11.36,11.9S92.53,363.23,91,362.1Z" style="fill:#EBE4E4;stroke:#263238;stroke-linecap:round;stroke-linejoin:round"></path><path d="M98.08,356.5a14.39,14.39,0,0,0-.17,2" style="fill:none;stroke:#263238;stroke-miterlimit:10"></path><path d="M100.72,348.5a35.32,35.32,0,0,0-2,5.09" style="fill:none;stroke:#263238;stroke-miterlimit:10"></path><path d="M91,406.88s-7.68-6.85-4.61-10.22,22.12-5.83,27.65-1.46-6.76,10.56-11.36,11.9S92.53,408,91,406.88Z" style="fill:#EBE4E4;stroke:#263238;stroke-linecap:round;stroke-linejoin:round"></path><path d="M100.72,393.28s-2.81,5.62-2.81,10" style="fill:none;stroke:#263238;stroke-miterlimit:10"></path><path d="M96.71,387.94s-5.21-4.65-3.13-6.93,15-4,18.77-1-4.59,7.16-7.72,8.08S97.75,388.71,96.71,387.94Z" style="fill:#EBE4E4;stroke:#263238;stroke-linecap:round;stroke-linejoin:round"></path><path d="M103.32,378.71s-1.91,3.81-1.91,6.81" style="fill:none;stroke:#263238;stroke-miterlimit:10"></path><rect x="89.5" y="417.89" width="20.79" height="46.1" style="fill:#263238;stroke:#263238;stroke-linecap:round;stroke-linejoin:round"></rect></g><g id="freepik--Table--inject-128"><rect x="457.03" y="312.82" width="23.66" height="6.07" transform="translate(937.72 631.71) rotate(180)" style="fill:#263238"></rect><path d="M469.47,314.89a2.36,2.36,0,0,0,2.36-2.21L475.78,255a2.37,2.37,0,0,0-4.73-.33l-3.95,57.65a2.38,2.38,0,0,0,2.21,2.53Z" style="fill:#263238"></path><path d="M473.71,257.85a2.37,2.37,0,0,0,1.42-4.27l-38.89-27.37a1.17,1.17,0,0,0-1.39,1.87l37.45,29.3A2.34,2.34,0,0,0,473.71,257.85Z" style="fill:#263238"></path><path d="M470.08,255.18a3.64,3.64,0,1,1,3.64,3.64A3.64,3.64,0,0,1,470.08,255.18Z" style="fill:#263238"></path><path d="M431.24,228.48a3.64,3.64,0,1,1,3.64,3.64A3.64,3.64,0,0,1,431.24,228.48Z" style="fill:#263238"></path><path d="M419.44,233.47l13.73,11,4.6-11.89a5.19,5.19,0,0,0-1.6-5.92h0a5.17,5.17,0,0,0-6.12-.27Z" style="fill:#263238"></path><polygon points="328.15 248.35 265.7 245.81 264.71 256.55 326.88 262.25 328.15 248.35" style="fill:#EBE4E4;stroke:#263238;stroke-linecap:round;stroke-linejoin:round"></polygon><polygon points="299.46 249.83 267.63 247.83 266.89 255.9 298.59 258.81 299.46 249.83" style="fill:#fff;stroke:#263238;stroke-linecap:round;stroke-linejoin:round"></polygon><path d="M299.46,249.83a4.31,4.31,0,1,0,4.41,4.7A4.57,4.57,0,0,0,299.46,249.83Zm-.2,7.32c-2.11-.2-3.71-1.7-3.55-3.37s2-2.85,4.11-2.66,3.71,1.7,3.55,3.37S301.38,257.34,299.26,257.15Z" style="fill:#fff;stroke:#263238;stroke-linecap:round;stroke-linejoin:round"></path><polygon points="328.15 248.35 299.67 247.08 298.51 259.65 326.88 262.25 328.15 248.35" style="fill:#EBE4E4;stroke:#263238;stroke-linecap:round;stroke-linejoin:round"></polygon><rect x="303.75" y="253.11" width="19.42" height="2.91" transform="translate(24.56 -27.56) rotate(5.24)" style="fill:#fff;stroke:#263238;stroke-linecap:round;stroke-linejoin:round"></rect><line x1="295.59" y1="251.01" x2="272.82" y2="249.84" style="fill:#fff;stroke:#263238;stroke-linecap:round;stroke-linejoin:round;stroke-width:0.5px"></line><line x1="274.78" y1="252.23" x2="280.38" y2="252.52" style="fill:#fff;stroke:#263238;stroke-linecap:round;stroke-linejoin:round;stroke-width:0.5px"></line><line x1="293.92" y1="254.85" x2="282.74" y2="253.93" style="fill:#fff;stroke:#263238;stroke-linecap:round;stroke-linejoin:round;stroke-width:0.5px"></line><line x1="292.45" y1="253.2" x2="285.36" y2="252.55" style="fill:#fff;stroke:#263238;stroke-linecap:round;stroke-linejoin:round;stroke-width:0.5px"></line><line x1="276.98" y1="255.35" x2="289.87" y2="256.53" style="fill:#fff;stroke:#263238;stroke-linecap:round;stroke-linejoin:round;stroke-width:0.5px"></line><polygon points="262.19 254.81 324.33 261.57 323.71 272.33 261.39 268.74 262.19 254.81" style="fill:#263238;stroke:#263238;stroke-linecap:round;stroke-linejoin:round"></polygon><polygon points="290.35 260.53 322.12 263.28 321.66 271.37 289.87 269.54 290.35 260.53" style="fill:#fff;stroke:#263238;stroke-linecap:round;stroke-linejoin:round"></polygon><path d="M290.35,260.53a4.31,4.31,0,1,1-5.06,4A4.58,4.58,0,0,1,290.35,260.53Zm-.89,7.27c2.12.12,3.92-1.13,4-2.8s-1.54-3.12-3.67-3.24-3.92,1.13-4,2.8S287.33,267.68,289.46,267.8Z" style="fill:#fff;stroke:#263238;stroke-linecap:round;stroke-linejoin:round"></path><polygon points="262.19 254.81 290.55 257.79 289.82 270.38 261.39 268.74 262.19 254.81" style="fill:#263238;stroke:#263238;stroke-linecap:round;stroke-linejoin:round"></polygon><rect x="266.09" y="261.69" width="19.42" height="2.91" transform="translate(536 541.71) rotate(-176.7)" style="fill:#fff;stroke:#263238;stroke-linecap:round;stroke-linejoin:round"></rect><line x1="294" y1="262.27" x2="316.69" y2="264.5" style="fill:#fff;stroke:#263238;stroke-linecap:round;stroke-linejoin:round;stroke-width:0.5px"></line><line x1="314.4" y1="266.57" x2="308.81" y2="266.03" style="fill:#fff;stroke:#263238;stroke-linecap:round;stroke-linejoin:round;stroke-width:0.5px"></line><line x1="295.08" y1="266.32" x2="306.27" y2="267.07" style="fill:#fff;stroke:#263238;stroke-linecap:round;stroke-linejoin:round;stroke-width:0.5px"></line><line x1="296.78" y1="264.9" x2="303.89" y2="265.31" style="fill:#fff;stroke:#263238;stroke-linecap:round;stroke-linejoin:round;stroke-width:0.5px"></line><line x1="311.76" y1="269.33" x2="298.83" y2="268.59" style="fill:#fff;stroke:#263238;stroke-linecap:round;stroke-linejoin:round;stroke-width:0.5px"></line><polygon points="269.48 269.19 331.86 273.11 331.73 283.89 269.31 283.13 269.48 269.19" style="fill:#263238;stroke:#263238;stroke-linecap:round;stroke-linejoin:round"></polygon><polygon points="297.86 273.62 329.73 274.92 329.63 283.02 297.8 282.64 297.86 273.62" style="fill:#fff;stroke:#263238;stroke-linecap:round;stroke-linejoin:round"></polygon><path d="M297.86,273.61a4.31,4.31,0,1,1-4.86,4.23A4.59,4.59,0,0,1,297.86,273.61Zm-.56,7.31c2.13,0,3.87-1.31,3.89-3s-1.69-3.05-3.81-3.08-3.87,1.31-3.89,3S295.18,280.89,297.3,280.92Z" style="fill:#fff;stroke:#263238;stroke-linecap:round;stroke-linejoin:round"></path><polygon points="269.48 269.19 297.94 270.86 297.79 283.48 269.31 283.13 269.48 269.19" style="fill:#263238;stroke:#263238;stroke-linecap:round;stroke-linejoin:round"></polygon><rect x="273.74" y="275.43" width="19.42" height="2.91" transform="translate(563.53 557.17) rotate(-179.31)" style="fill:#fff;stroke:#263238;stroke-linecap:round;stroke-linejoin:round"></rect><line x1="301.59" y1="275.19" x2="324.36" y2="276.38" style="fill:#fff;stroke:#263238;stroke-linecap:round;stroke-linejoin:round;stroke-width:0.5px"></line><line x1="322.17" y1="278.55" x2="316.56" y2="278.27" style="fill:#fff;stroke:#263238;stroke-linecap:round;stroke-linejoin:round;stroke-width:0.5px"></line><line x1="302.85" y1="279.18" x2="314.07" y2="279.42" style="fill:#fff;stroke:#263238;stroke-linecap:round;stroke-linejoin:round;stroke-width:0.5px"></line><line x1="304.49" y1="277.69" x2="311.61" y2="277.78" style="fill:#fff;stroke:#263238;stroke-linecap:round;stroke-linejoin:round;stroke-width:0.5px"></line><line x1="319.65" y1="281.43" x2="306.71" y2="281.28" style="fill:#fff;stroke:#263238;stroke-linecap:round;stroke-linejoin:round;stroke-width:0.5px"></line><polygon points="331.19 283.24 268.68 282.73 268.05 293.49 330.37 297.17 331.19 283.24" style="fill:#263238;stroke:#263238;stroke-linecap:round;stroke-linejoin:round"></polygon><polygon points="302.56 285.64 270.68 284.69 270.21 292.77 301.99 294.65 302.56 285.64" style="fill:#fff;stroke:#263238;stroke-linecap:round;stroke-linejoin:round"></polygon><path d="M302.56,285.65a4.31,4.31,0,1,0,4.56,4.55A4.57,4.57,0,0,0,302.56,285.65Zm0,7.32c-2.12-.13-3.76-1.58-3.66-3.25s1.9-2.92,4-2.79,3.76,1.58,3.66,3.24S304.73,293.09,302.6,293Z" style="fill:#fff;stroke:#263238;stroke-linecap:round;stroke-linejoin:round"></path><polygon points="331.19 283.24 302.68 282.89 301.94 295.49 330.37 297.17 331.19 283.24" style="fill:#263238;stroke:#263238;stroke-linecap:round;stroke-linejoin:round"></polygon><rect x="307" y="288.47" width="19.42" height="2.91" transform="translate(17.61 -18.14) rotate(3.37)" style="fill:#fff;stroke:#263238;stroke-linecap:round;stroke-linejoin:round"></rect><line x1="298.73" y1="286.95" x2="275.94" y2="286.53" style="fill:#fff;stroke:#263238;stroke-linecap:round;stroke-linejoin:round;stroke-width:0.5px"></line><line x1="277.97" y1="288.85" x2="283.58" y2="288.96" style="fill:#fff;stroke:#263238;stroke-linecap:round;stroke-linejoin:round;stroke-width:0.5px"></line><line x1="297.19" y1="290.84" x2="285.99" y2="290.29" style="fill:#fff;stroke:#263238;stroke-linecap:round;stroke-linejoin:round;stroke-width:0.5px"></line><line x1="295.67" y1="289.24" x2="288.56" y2="288.82" style="fill:#fff;stroke:#263238;stroke-linecap:round;stroke-linejoin:round;stroke-width:0.5px"></line><line x1="280.28" y1="291.9" x2="293.2" y2="292.66" style="fill:#fff;stroke:#263238;stroke-linecap:round;stroke-linejoin:round;stroke-width:0.5px"></line><polygon points="265.48 291.84 327.81 296.57 327.54 307.35 265.13 305.79 265.48 291.84" style="fill:#EBE4E4;stroke:#263238;stroke-linecap:round;stroke-linejoin:round"></polygon><polygon points="293.8 296.64 325.65 298.35 325.45 306.45 293.62 305.66 293.8 296.64" style="fill:#fff;stroke:#263238;stroke-linecap:round;stroke-linejoin:round"></polygon><path d="M293.8,296.64a4.31,4.31,0,1,1-4.92,4.16A4.58,4.58,0,0,1,293.8,296.64Zm-.65,7.29c2.12.06,3.88-1.26,3.92-2.93s-1.65-3.06-3.77-3.12-3.88,1.26-3.93,2.93S291,303.88,293.15,303.93Z" style="fill:#fff;stroke:#263238;stroke-linecap:round;stroke-linejoin:round"></path><polygon points="265.48 291.84 293.92 293.89 293.6 306.5 265.13 305.79 265.48 291.84" style="fill:#EBE4E4;stroke:#263238;stroke-linecap:round;stroke-linejoin:round"></polygon><rect x="269.64" y="298.27" width="19.42" height="2.91" transform="translate(551.12 606.33) rotate(-178.57)" style="fill:#fff;stroke:#263238;stroke-linecap:round;stroke-linejoin:round"></rect><line x1="297.51" y1="298.26" x2="320.26" y2="299.75" style="fill:#fff;stroke:#263238;stroke-linecap:round;stroke-linejoin:round;stroke-width:0.5px"></line><line x1="318.04" y1="301.89" x2="312.44" y2="301.53" style="fill:#fff;stroke:#263238;stroke-linecap:round;stroke-linejoin:round;stroke-width:0.5px"></line><line x1="298.72" y1="302.27" x2="309.93" y2="302.66" style="fill:#fff;stroke:#263238;stroke-linecap:round;stroke-linejoin:round;stroke-width:0.5px"></line><line x1="300.37" y1="300.8" x2="307.49" y2="300.98" style="fill:#fff;stroke:#263238;stroke-linecap:round;stroke-linejoin:round;stroke-width:0.5px"></line><line x1="315.49" y1="304.74" x2="302.55" y2="304.42" style="fill:#fff;stroke:#263238;stroke-linecap:round;stroke-linejoin:round;stroke-width:0.5px"></line><polygon points="274.77 304.39 337.19 307.56 337.19 318.34 274.77 318.34 274.77 304.39" style="fill:#EBE4E4;stroke:#263238;stroke-linecap:round;stroke-linejoin:round"></polygon><polygon points="303.2 308.48 335.08 309.4 335.08 317.5 303.25 317.5 303.2 308.48" style="fill:#fff;stroke:#263238;stroke-linecap:round;stroke-linejoin:round"></polygon><path d="M303.2,308.48a4.31,4.31,0,1,1-4.82,4.28A4.58,4.58,0,0,1,303.2,308.48Zm-.47,7.31c2.13,0,3.85-1.36,3.85-3s-1.72-3-3.85-3-3.85,1.35-3.85,3S300.6,315.79,302.73,315.79Z" style="fill:#fff;stroke:#263238;stroke-linecap:round;stroke-linejoin:round"></path><polygon points="274.77 304.39 303.25 305.73 303.25 318.34 274.77 318.34 274.77 304.39" style="fill:#EBE4E4;stroke:#263238;stroke-linecap:round;stroke-linejoin:round"></polygon><rect x="279.12" y="310.47" width="19.42" height="2.91" transform="translate(577.65 623.84) rotate(180)" style="fill:#fff;stroke:#263238;stroke-linecap:round;stroke-linejoin:round"></rect><line x1="306.95" y1="310.01" x2="329.73" y2="310.93" style="fill:#fff;stroke:#263238;stroke-linecap:round;stroke-linejoin:round;stroke-width:0.5px"></line><line x1="327.56" y1="313.12" x2="321.95" y2="312.91" style="fill:#fff;stroke:#263238;stroke-linecap:round;stroke-linejoin:round;stroke-width:0.5px"></line><line x1="308.26" y1="313.99" x2="319.47" y2="314.09" style="fill:#fff;stroke:#263238;stroke-linecap:round;stroke-linejoin:round;stroke-width:0.5px"></line><line x1="309.87" y1="312.48" x2="316.99" y2="312.48" style="fill:#fff;stroke:#263238;stroke-linecap:round;stroke-linejoin:round;stroke-width:0.5px"></line><line x1="325.08" y1="316.04" x2="312.14" y2="316.04" style="fill:#fff;stroke:#263238;stroke-linecap:round;stroke-linejoin:round;stroke-width:0.5px"></line><polygon points="409.57 283.27 472.02 280.61 473.03 291.35 410.87 297.16 409.57 283.27" style="fill:#263238;stroke:#263238;stroke-linecap:round;stroke-linejoin:round"></polygon><polygon points="438.26 284.69 470.09 282.63 470.85 290.7 439.15 293.67 438.26 284.69" style="fill:#fff;stroke:#263238;stroke-linecap:round;stroke-linejoin:round"></polygon><path d="M438.26,284.69a4.31,4.31,0,1,1-4.39,4.71A4.58,4.58,0,0,1,438.26,284.69Zm.22,7.32c2.11-.2,3.7-1.71,3.55-3.37s-2-2.85-4.12-2.65-3.71,1.7-3.55,3.37S436.36,292.21,438.48,292Z" style="fill:#fff;stroke:#263238;stroke-linecap:round;stroke-linejoin:round"></path><polygon points="409.57 283.27 438.05 281.95 439.23 294.51 410.87 297.16 409.57 283.27" style="fill:#263238;stroke:#263238;stroke-linecap:round;stroke-linejoin:round"></polygon><rect x="414.56" y="288" width="19.42" height="2.91" transform="translate(873.67 538.13) rotate(174.66)" style="fill:#fff;stroke:#263238;stroke-linecap:round;stroke-linejoin:round"></rect><line x1="442.14" y1="285.87" x2="464.91" y2="284.66" style="fill:#fff;stroke:#263238;stroke-linecap:round;stroke-linejoin:round;stroke-width:0.5px"></line><line x1="462.95" y1="287.04" x2="457.35" y2="287.35" style="fill:#fff;stroke:#263238;stroke-linecap:round;stroke-linejoin:round;stroke-width:0.5px"></line><line x1="443.81" y1="289.7" x2="454.99" y2="288.76" style="fill:#fff;stroke:#263238;stroke-linecap:round;stroke-linejoin:round;stroke-width:0.5px"></line><line x1="445.28" y1="288.05" x2="452.37" y2="287.39" style="fill:#fff;stroke:#263238;stroke-linecap:round;stroke-linejoin:round;stroke-width:0.5px"></line><line x1="460.75" y1="290.18" x2="447.87" y2="291.38" style="fill:#fff;stroke:#263238;stroke-linecap:round;stroke-linejoin:round;stroke-width:0.5px"></line><polygon points="475.54 289.61 413.41 296.48 414.05 307.24 476.37 303.54 475.54 289.61" style="fill:#EBE4E4;stroke:#263238;stroke-linecap:round;stroke-linejoin:round"></polygon><polygon points="447.4 295.38 415.63 298.19 416.11 306.28 447.89 304.39 447.4 295.38" style="fill:#fff;stroke:#263238;stroke-linecap:round;stroke-linejoin:round"></polygon><path d="M447.4,295.38a4.31,4.31,0,1,0,5.06,4A4.58,4.58,0,0,0,447.4,295.38Zm.9,7.26c-2.12.13-3.92-1.12-4-2.79s1.54-3.12,3.66-3.25,3.93,1.13,4,2.8S450.43,302.52,448.3,302.64Z" style="fill:#fff;stroke:#263238;stroke-linecap:round;stroke-linejoin:round"></path><polygon points="475.54 289.61 447.19 292.63 447.94 305.23 476.37 303.54 475.54 289.61" style="fill:#EBE4E4;stroke:#263238;stroke-linecap:round;stroke-linejoin:round"></polygon><rect x="452.24" y="296.51" width="19.42" height="2.91" transform="translate(-16.87 27.95) rotate(-3.4)" style="fill:#fff;stroke:#263238;stroke-linecap:round;stroke-linejoin:round"></rect><line x1="443.75" y1="297.13" x2="421.06" y2="299.4" style="fill:#fff;stroke:#263238;stroke-linecap:round;stroke-linejoin:round;stroke-width:0.5px"></line><line x1="423.36" y1="301.46" x2="428.94" y2="300.91" style="fill:#fff;stroke:#263238;stroke-linecap:round;stroke-linejoin:round;stroke-width:0.5px"></line><line x1="442.68" y1="301.17" x2="431.49" y2="301.95" style="fill:#fff;stroke:#263238;stroke-linecap:round;stroke-linejoin:round;stroke-width:0.5px"></line><line x1="440.97" y1="299.76" x2="433.87" y2="300.19" style="fill:#fff;stroke:#263238;stroke-linecap:round;stroke-linejoin:round;stroke-width:0.5px"></line><line x1="426" y1="304.22" x2="438.92" y2="303.45" style="fill:#fff;stroke:#263238;stroke-linecap:round;stroke-linejoin:round;stroke-width:0.5px"></line><polygon points="466.75 304.39 404.33 307.56 404.33 318.34 466.75 318.34 466.75 304.39" style="fill:#EBE4E4;stroke:#263238;stroke-linecap:round;stroke-linejoin:round"></polygon><polygon points="438.32 308.48 406.44 309.4 406.44 317.5 438.27 317.5 438.32 308.48" style="fill:#fff;stroke:#263238;stroke-linecap:round;stroke-linejoin:round"></polygon><path d="M438.32,308.48a4.31,4.31,0,1,0,4.82,4.28A4.58,4.58,0,0,0,438.32,308.48Zm.47,7.31c-2.12,0-3.85-1.36-3.85-3s1.73-3,3.85-3,3.85,1.35,3.85,3S440.92,315.79,438.79,315.79Z" style="fill:#fff;stroke:#263238;stroke-linecap:round;stroke-linejoin:round"></path><polygon points="466.75 304.39 438.27 305.73 438.27 318.34 466.75 318.34 466.75 304.39" style="fill:#EBE4E4;stroke:#263238;stroke-linecap:round;stroke-linejoin:round"></polygon><rect x="442.98" y="310.47" width="19.42" height="2.91" style="fill:#fff;stroke:#263238;stroke-linecap:round;stroke-linejoin:round"></rect><line x1="434.57" y1="310.01" x2="411.79" y2="310.93" style="fill:#fff;stroke:#263238;stroke-linecap:round;stroke-linejoin:round;stroke-width:0.5px"></line><line x1="413.96" y1="313.12" x2="419.57" y2="312.91" style="fill:#fff;stroke:#263238;stroke-linecap:round;stroke-linejoin:round;stroke-width:0.5px"></line><line x1="433.27" y1="313.99" x2="422.05" y2="314.09" style="fill:#fff;stroke:#263238;stroke-linecap:round;stroke-linejoin:round;stroke-width:0.5px"></line><line x1="431.65" y1="312.48" x2="424.53" y2="312.48" style="fill:#fff;stroke:#263238;stroke-linecap:round;stroke-linejoin:round;stroke-width:0.5px"></line><line x1="416.44" y1="316.04" x2="429.38" y2="316.04" style="fill:#fff;stroke:#263238;stroke-linecap:round;stroke-linejoin:round;stroke-width:0.5px"></line><polygon points="379.08 318.64 360.65 318.64 357.12 298.19 375.55 298.19 379.08 318.64" style="fill:#263238;stroke:#263238;stroke-linecap:round;stroke-linejoin:round"></polygon><rect x="349.29" y="316.62" width="29.8" height="2.02" style="fill:#263238;stroke:#263238;stroke-linecap:round;stroke-linejoin:round"></rect><rect x="327.4" y="242.75" width="73.58" height="60.81" style="fill:#263238;stroke:#263238;stroke-linecap:round;stroke-linejoin:round"></rect><rect x="325.05" y="242.75" width="73.58" height="60.81" style="fill:#fff;stroke:#263238;stroke-linecap:round;stroke-linejoin:round"></rect><rect x="328.87" y="245.9" width="65.94" height="54.5" style="fill:#EBE4E4;stroke:#263238;stroke-linecap:round;stroke-linejoin:round"></rect><rect x="331.62" y="252.88" width="60.03" height="42.77" style="fill:#fff;stroke:#263238;stroke-linecap:round;stroke-linejoin:round;stroke-width:0.5px"></rect><line x1="332.65" y1="257.52" x2="391.65" y2="257.52" style="fill:none;stroke:#263238;stroke-linecap:round;stroke-linejoin:round;stroke-width:0.5px"></line><line x1="332.65" y1="264.48" x2="391.65" y2="264.48" style="fill:none;stroke:#263238;stroke-linecap:round;stroke-linejoin:round;stroke-width:0.5px"></line><line x1="332.65" y1="271.43" x2="391.65" y2="271.43" style="fill:none;stroke:#263238;stroke-linecap:round;stroke-linejoin:round;stroke-width:0.5px"></line><line x1="332.65" y1="278.39" x2="391.65" y2="278.39" style="fill:none;stroke:#263238;stroke-linecap:round;stroke-linejoin:round;stroke-width:0.5px"></line><line x1="332.65" y1="285.35" x2="391.65" y2="285.35" style="fill:none;stroke:#263238;stroke-linecap:round;stroke-linejoin:round;stroke-width:0.5px"></line><line x1="332.65" y1="292.3" x2="391.65" y2="292.3" style="fill:none;stroke:#263238;stroke-linecap:round;stroke-linejoin:round;stroke-width:0.5px"></line><line x1="338.06" y1="258.04" x2="338.06" y2="295.13" style="fill:none;stroke:#263238;stroke-linecap:round;stroke-linejoin:round;stroke-width:0.5px"></line><line x1="344.69" y1="258.04" x2="344.69" y2="295.13" style="fill:none;stroke:#263238;stroke-linecap:round;stroke-linejoin:round;stroke-width:0.5px"></line><line x1="351.31" y1="258.04" x2="351.31" y2="295.13" style="fill:none;stroke:#263238;stroke-linecap:round;stroke-linejoin:round;stroke-width:0.5px"></line><line x1="357.94" y1="258.04" x2="357.94" y2="295.13" style="fill:none;stroke:#263238;stroke-linecap:round;stroke-linejoin:round;stroke-width:0.5px"></line><line x1="364.56" y1="258.04" x2="364.56" y2="295.13" style="fill:none;stroke:#263238;stroke-linecap:round;stroke-linejoin:round;stroke-width:0.5px"></line><line x1="371.18" y1="258.04" x2="371.18" y2="295.13" style="fill:none;stroke:#263238;stroke-linecap:round;stroke-linejoin:round;stroke-width:0.5px"></line><line x1="377.81" y1="258.04" x2="377.81" y2="295.13" style="fill:none;stroke:#263238;stroke-linecap:round;stroke-linejoin:round;stroke-width:0.5px"></line><line x1="384.43" y1="258.04" x2="384.43" y2="295.13" style="fill:none;stroke:#263238;stroke-linecap:round;stroke-linejoin:round;stroke-width:0.5px"></line><rect x="292.07" y="315.9" width="61.66" height="2.74" style="fill:#fff;stroke:#263238;stroke-linecap:round;stroke-linejoin:round"></rect><path d="M393.37,329.7l11.16,132.81a1.44,1.44,0,0,0,1.74,1.21,1.41,1.41,0,0,0,1.08-1.53l-7.6-132.49Z" style="fill:#263238;stroke:#263238;stroke-linecap:round;stroke-linejoin:round"></path><path d="M468.33,329.7,479.53,463a1.46,1.46,0,0,0,1.75,1.22,1.43,1.43,0,0,0,1.08-1.54L474.73,329.7Z" style="fill:#263238;stroke:#263238;stroke-linecap:round;stroke-linejoin:round"></path><path d="M273.58,329.7l-5.89,131.65a1.47,1.47,0,0,0,1.1,1.54h0a1.4,1.4,0,0,0,1.73-1.19l9.44-132Z" style="fill:#263238;stroke:#263238;stroke-linecap:round;stroke-linejoin:round"></path><path d="M204.49,329.7l-5.87,131.2a1.45,1.45,0,0,0,1.1,1.55,1.41,1.41,0,0,0,1.73-1.19l9.4-131.56Z" style="fill:#263238;stroke:#263238;stroke-linecap:round;stroke-linejoin:round"></path><rect x="200.32" y="322.34" width="282.6" height="11.4" style="fill:#fff;stroke:#263238;stroke-linecap:round;stroke-linejoin:round"></rect><rect x="200.32" y="322.34" width="282.6" height="3.91" style="fill:#263238;stroke:#263238;stroke-linecap:round;stroke-linejoin:round"></rect><rect x="383.53" y="322.34" width="99.39" height="11.4" style="fill:#263238;stroke:#263238;stroke-linecap:round;stroke-linejoin:round"></rect><rect x="196.78" y="318.55" width="289.68" height="4.35" style="fill:#fff;stroke:#263238;stroke-linecap:round;stroke-linejoin:round"></rect><rect x="387.67" y="318.55" width="98.79" height="4.35" style="fill:#263238;stroke:#263238;stroke-linecap:round;stroke-linejoin:round"></rect></g><g id="freepik--Character--inject-128"><path d="M254.9,224.9a4.95,4.95,0,1,1-3.42-6.11A4.95,4.95,0,0,1,254.9,224.9Z" style="fill:none;stroke:#263238;stroke-linecap:round;stroke-linejoin:round"></path><path d="M261.37,214.15s-8.62,5.57-8.9,7.21a12.88,12.88,0,0,0,0,3.42s-7.89,5-7.26,6.15a45.49,45.49,0,0,0,3.21,4.14s-1.58,9.65-1.43,10.46,5.53,2.7,5.53,2.7l-2.61,7.83,20.7,3,3-6.76s11-17.28,11.83-20.28.59-9.55-1.73-12.11-12.84-7.82-12.84-7.82a5.7,5.7,0,0,0-5.43-3.05C261.3,209,259.42,212.27,261.37,214.15Z" style="fill:#fff;stroke:#263238;stroke-linecap:round;stroke-linejoin:round"></path><path d="M283.75,219.9c-2.33-2.56-12.84-7.82-12.84-7.82a5.7,5.7,0,0,0-5.43-3.05c-4.18,0-6.06,3.24-4.11,5.12,0,0,5.95,1.87,5.52,2.7s-6.41,3.15-6.76,4.38,1.85,4.91,1.85,4.91l-2.88,4.14,2.75,1.73s2.39-2.38,4.46-.27,1.51,7.48.08,9.17-5.51,1.3-5.51,1.3a67.58,67.58,0,0,0,2.38,6.39c.32.37,6.92,2.73,10.29,3.91l.1-.22s11-17.28,11.83-20.28S286.07,222.46,283.75,219.9Z" style="fill:#263238;stroke:#263238;stroke-linecap:round;stroke-linejoin:round"></path><line x1="245.38" y1="222.21" x2="262.91" y2="230.97" style="fill:none;stroke:#263238;stroke-linecap:round;stroke-linejoin:round"></line><line x1="252.51" y1="248.23" x2="253.71" y2="245.33" style="fill:none;stroke:#263238;stroke-linecap:round;stroke-linejoin:round"></line><path d="M276.54,259.13s-3.31-4.34-5.59-5.58-20.67-1.24-22.33-.83S242,258.1,242,258.1s22.33-.42,26.67.2a62.7,62.7,0,0,1,9.3,2.28Z" style="fill:#fff;stroke:#263238;stroke-linecap:round;stroke-linejoin:round"></path><polygon points="332.16 300.9 337.53 297.38 342.29 303.59 337.86 307.46 332.16 300.9" style="fill:#fff;stroke:#263238;stroke-linecap:round;stroke-linejoin:round"></polygon><path d="M293.7,268l22.54,39.29,14.42-7.4a2.12,2.12,0,0,1,2.75.73l4.45,6.82a2.11,2.11,0,0,1-.55,2.89c-6.19,4.38-27.58,19.38-29.34,18.67-2.07-.83-15.51-19.23-15.51-19.23Z" style="fill:#fff;stroke:#263238;stroke-linecap:round;stroke-linejoin:round"></path><path d="M337.53,297.38s9.34-11.36,9.6-11.36,3.22.33,3.22.33a22.45,22.45,0,0,1,3.31,0c.6.17,1.11.34,1.11.34a10.59,10.59,0,0,1,3.05-.17c.68.26,3.48,6.45,3.48,6.45a1.38,1.38,0,0,1-1.1.51c-.85.09-2.38-1.78-2.38-1.78s.68,1.87,0,1.95a6.59,6.59,0,0,1-2.29-.68s-3.73,3.48-4.84,4.59-5.94,3.22-5.94,3.22l-2.46,2.81Z" style="fill:#fff;stroke:#263238;stroke-linecap:round;stroke-linejoin:round"></path><line x1="355.53" y1="292.97" x2="357.74" y2="289.41" style="fill:#fff;stroke:#263238;stroke-linecap:round;stroke-linejoin:round"></line><line x1="292.46" y1="309.79" x2="297.17" y2="291.37" style="fill:none;stroke:#263238;stroke-linecap:round;stroke-linejoin:round"></line><line x1="316.24" y1="307.31" x2="319.23" y2="310.95" style="fill:none;stroke:#263238;stroke-linecap:round;stroke-linejoin:round"></line><path d="M221.12,267.4s-19.4,47.47-18.78,50,4.53,10.1,8.24,10.3,7.22-4.12,7.22-4.12l4.54-8.45Z" style="fill:#fff;stroke:#263238;stroke-linecap:round;stroke-linejoin:round"></path><line x1="221.92" y1="295.08" x2="218.83" y2="279.82" style="fill:none;stroke:#263238;stroke-linecap:round;stroke-linejoin:round"></line><line x1="221.92" y1="300.85" x2="215.53" y2="290.34" style="fill:none;stroke:#263238;stroke-linecap:round;stroke-linejoin:round"></line><path d="M285.38,451.71s-.95,9.82-.6,10.52,2.64,1.23,2.64,1.23h15s.17-3.52-1.06-4.75a17.67,17.67,0,0,1-2.46-2.81,14.82,14.82,0,0,1-1.52-3.92Z" style="fill:#263238;stroke:#263238;stroke-linecap:round;stroke-linejoin:round"></path><path d="M272.06,378.47l13.32,73.24s3.26,2.44,6,2.44,6-2.17,6-2.17,1.09-4.35.55-6.8-3.54-6.08-3.26-7.17-.82-60.35-.82-60.35Z" style="fill:#EBE4E4;stroke:#263238;stroke-linecap:round;stroke-linejoin:round"></path><path d="M335.52,449.86s7.84,4.54,10.1,5.57,7.63,2.89,9.08,2.89,2.06,1.44,1.65,2.88-8.25,2.06-12.37,2.27-25.57,0-25.57,0a10.39,10.39,0,0,1,0-4.74c.62-2.48,1.65-5.36,1.65-5.36S334.08,449.45,335.52,449.86Z" style="fill:#263238;stroke:#263238;stroke-linecap:round;stroke-linejoin:round"></path><path d="M222.57,351.35s-2.5,14.24-2.3,17.13,2.48,9.07,3.3,9.89a8.86,8.86,0,0,0,4.54,1.86h92.77l.42,63.45L319,445.53l1,7.84a39.9,39.9,0,0,0,7.22-1c2.88-.83,8.24-2.48,8.24-2.48s1.45-6.39.83-7.83-1.65-4.95-1.65-4.95,8.66-74,8.45-75.41-.62-3.09-2.27-3.3S291,353.22,291,353.22l-2.27-5L224,349.1Z" style="fill:#EBE4E4;stroke:#263238;stroke-linecap:round;stroke-linejoin:round"></path><line x1="320.88" y1="380.23" x2="336.76" y2="380.23" style="fill:none;stroke:#263238;stroke-linecap:round;stroke-linejoin:round"></line><line x1="327.07" y1="380.64" x2="337.58" y2="383.32" style="fill:none;stroke:#263238;stroke-linecap:round;stroke-linejoin:round"></line><line x1="290.99" y1="353.22" x2="295.32" y2="363.32" style="fill:none;stroke:#263238;stroke-linecap:round;stroke-linejoin:round"></line><path d="M261.1,377.75s-1.24-.41-3.3-3.91a15.8,15.8,0,0,1-2.07-7.22h24.54s.21,5.77,3.09,9.07" style="fill:none;stroke:#263238;stroke-linecap:round;stroke-linejoin:round"></path><path d="M238.42,366.41H222.13s-1,6.81,2.47,10.31" style="fill:none;stroke:#263238;stroke-linecap:round;stroke-linejoin:round"></path><path d="M246.66,355.9a41.75,41.75,0,0,0-1,11.75" style="fill:none;stroke:#263238;stroke-linecap:round;stroke-linejoin:round"></path><path d="M242,258.1s-21.3,7.85-20.89,9.3S223,346,223,346s-1.86,1.66-1.44,2.49a26.91,26.91,0,0,1,1,2.89s31.29,5.29,47.8,2.49c13.13-2.23,20.53-2.44,22.5-3.32,1.53-.67-.21-3.51-.41-4.13a10,10,0,0,1-.83-2.28c0-.62,2.07-76.09,2.07-76.09L278,260.58S265.78,254.37,242,258.1Z" style="fill:#fff;stroke:#263238;stroke-linecap:round;stroke-linejoin:round"></path><path d="M283.36,343.53s-19.38,2.27-34,3.09" style="fill:none;stroke:#263238;stroke-linecap:round;stroke-linejoin:round"></path><path d="M264.19,347s-15.05,2.89-23.09,3.1" style="fill:none;stroke:#263238;stroke-linecap:round;stroke-linejoin:round"></path><path d="M274.91,268.9S252.23,287,248.72,291.78" style="fill:none;stroke:#263238;stroke-linecap:round;stroke-linejoin:round"></path><path d="M252.44,284.15s-10.11,9.9-12,13.2" style="fill:none;stroke:#263238;stroke-linecap:round;stroke-linejoin:round"></path><rect x="266.09" y="391.44" width="5.91" height="49.99" style="fill:#263238;stroke:#263238;stroke-linecap:round;stroke-linejoin:round"></rect><circle cx="242.34" cy="459.38" r="4.04" style="fill:#6b6b6b;stroke:#263238;stroke-linecap:round;stroke-linejoin:round"></circle><path d="M244.36,459.38a2,2,0,1,0-2,2A2,2,0,0,0,244.36,459.38Z" style="fill:#263238;stroke:#263238;stroke-linecap:round;stroke-linejoin:round"></path><path d="M266.13,442.75s-1.71,4-3.27,4.82-18.34,1.24-21,2.33a5.28,5.28,0,0,0-3.1,5.29h2v2.48H242v-2.33h2.64a4.37,4.37,0,0,1,3.42-3.88c3.27-.78,14.46,0,16.79-1.09s3.27-7.31,3.27-7.31Z" style="fill:#263238;stroke:#263238;stroke-linecap:round;stroke-linejoin:round"></path><circle cx="294.89" cy="459.38" r="4.04" style="fill:#6b6b6b;stroke:#263238;stroke-linecap:round;stroke-linejoin:round"></circle><path d="M292.87,459.38a2,2,0,1,1,2,2A2,2,0,0,1,292.87,459.38Z" style="fill:#263238;stroke:#263238;stroke-linecap:round;stroke-linejoin:round"></path><path d="M271.1,442.75s1.71,4,3.27,4.82,18.34,1.24,21,2.33a5.27,5.27,0,0,1,3.11,5.29h-2v2.48H295.2v-2.33h-2.65a4.35,4.35,0,0,0-3.42-3.88c-3.26-.78-14.45,0-16.79-1.09s-3.26-7.31-3.26-7.31Z" style="fill:#263238;stroke:#263238;stroke-linecap:round;stroke-linejoin:round"></path><rect x="263.43" y="427.61" width="11.24" height="17.76" style="fill:#6b6b6b;stroke:#263238;stroke-linecap:round;stroke-linejoin:round"></rect><polygon points="257.22 393.21 258.42 398.91 279.4 398.91 281.2 393.21 257.22 393.21" style="fill:#6b6b6b;stroke:#263238;stroke-linecap:round;stroke-linejoin:round"></polygon><rect x="255.42" y="387.52" width="27.88" height="8.09" style="fill:#6b6b6b;stroke:#263238;stroke-linecap:round;stroke-linejoin:round"></rect><path d="M215.95,380.67H317.21a0,0,0,0,1,0,0v3.79a4.49,4.49,0,0,1-4.49,4.49H219.78a3.84,3.84,0,0,1-3.84-3.84v-4.44A0,0,0,0,1,215.95,380.67Z" style="fill:#a3a3a3;stroke:#263238;stroke-linecap:round;stroke-linejoin:round"></path><path d="M274.37,380.67h42.84a0,0,0,0,1,0,0v4.44a3.84,3.84,0,0,1-3.84,3.84h-39a0,0,0,0,1,0,0v-8.28A0,0,0,0,1,274.37,380.67Z" style="fill:#6b6b6b;stroke:#263238;stroke-linecap:round;stroke-linejoin:round"></path><path d="M281.09,305.77h0A52.16,52.16,0,0,0,250,293.4h-.22a52.21,52.21,0,0,0-31.08,12.37h0a20.86,20.86,0,0,0-7,19.45l9.65,55.45h57.15l9.64-55.45A20.83,20.83,0,0,0,281.09,305.77Z" style="fill:#6b6b6b;stroke:#263238;stroke-linecap:round;stroke-linejoin:round"></path><path d="M277,305.77h0A52.16,52.16,0,0,0,245.9,293.4h-.22a52.21,52.21,0,0,0-31.08,12.37h0a20.86,20.86,0,0,0-7,19.45l9.65,55.45h57.15L284,325.22A20.83,20.83,0,0,0,277,305.77Z" style="fill:#a3a3a3;stroke:#263238;stroke-linecap:round;stroke-linejoin:round"></path></g><g id="freepik--Hand--inject-128"><path d="M42.69,142.66l19,17.75a13,13,0,0,0,4.54,7.72c4.12,3.59,6.13,5.6,6.13,5.6L100,151.85s-21-13.84-23.78-16.16a62.92,62.92,0,0,1-6.55-7.19Z" style="fill:#fff;stroke:#263238;stroke-linecap:round;stroke-linejoin:round"></path><path d="M74.81,149.63S72.06,157.14,79,160" style="fill:none;stroke:#263238;stroke-linecap:round;stroke-linejoin:round"></path><polygon points="73.04 130.27 36.13 159.88 31.17 150.59 65.25 120.59 73.04 130.27" style="fill:#fff;stroke:#263238;stroke-linecap:round;stroke-linejoin:round"></polygon><polygon points="67.73 122.71 27.24 157.98 0 119.84 0 -0.2 16.69 -0.2 18.28 52.95 34.87 84.76 67.73 122.71" style="fill:#EBE4E4;stroke:#263238;stroke-linecap:round;stroke-linejoin:round"></polygon><path d="M165.45,138.32c-15.57-17.75-5-52.46,23.53-77.54s64.36-31,79.94-13.28a27.06,27.06,0,0,1,2.68,3.64,38.3,38.3,0,0,0-.87-5.23L274,43.07,264,32.55h0c-.54-.61-1.1-1.2-1.68-1.76l-.43-.45,0,0c-18.06-16.74-55.48-9.69-85.6,16.75-29.51,25.9-41.48,61.16-28.54,81.46l-.22.18,1.28,1.38c.52.71,1.07,1.41,1.66,2.08a28.33,28.33,0,0,0,3,2.92l7,7.61,2.35-2.06a40.25,40.25,0,0,0,7.71,2.08A27.12,27.12,0,0,1,165.45,138.32Z" style="fill:#263238;stroke:#263238;stroke-linecap:round;stroke-linejoin:round"></path><path d="M274,43.07c-17.1-19.48-56.38-12.95-87.74,14.57s-42.92,65.63-25.83,85.11,56.38,12.95,87.74-14.58S291.06,62.55,274,43.07Zm-28.58,82c-28.58,25.08-64.36,31-79.94,13.28s-5-52.46,23.53-77.54,64.36-31,79.94-13.28S274,100,245.39,125Z" style="fill:#fff;stroke:#263238;stroke-linecap:round;stroke-linejoin:round"></path><path d="M143.19,113.94s-3.26,5.12-7,9.78a26.29,26.29,0,0,1-7.21,6.52l7.68,8.85s10.48-7.22,13-16.07Z" style="fill:#969696;stroke:#263238;stroke-linecap:round;stroke-linejoin:round"></path><path d="M136.67,139.09l5.12,11.64a74.33,74.33,0,0,1,10.71-4,75.66,75.66,0,0,1,9.08-1.63L149.71,123S147.84,131.17,136.67,139.09Z" style="fill:#fff;stroke:#263238;stroke-linecap:round;stroke-linejoin:round"></path><polygon points="128.99 130.24 133.6 142.23 141.79 150.73 136.67 139.09 128.99 130.24" style="fill:#969696;stroke:#263238;stroke-linecap:round;stroke-linejoin:round"></polygon><polygon points="119.39 138.46 130.16 155.84 138.47 147.56 130.59 135.14 119.39 138.46" style="fill:#fff;stroke:#263238;stroke-linecap:round;stroke-linejoin:round"></polygon><polygon points="119.39 138.46 19.3 197.08 27.06 212.02 130.16 155.84 119.39 138.46" style="fill:#263238;stroke:#263238;stroke-linecap:round;stroke-linejoin:round"></polygon><path d="M19.3,197.08S18,194.24,17,195.56s-2.84,8.33-.38,13.62,11.17,5.3,11.35,4.55-.94-1.71-.94-1.71Z" style="fill:#fff;stroke:#263238;stroke-linecap:round;stroke-linejoin:round"></path><path d="M164,136.44l.27.36c.39.51.8,1,1.23,1.52s.89,1,1.36,1.43l.5.47c.31.29.62.57.95.84s.41.35.62.52.65.5,1,.74l.61.45c17.36,12,49.09,4.95,74.93-17.73,26.73-23.47,37.67-55.36,26.21-73.91h0l-.31-.47c6.38,18.9-4.89,46.88-29,68-28.57,25.07-64.36,31-79.94,13.28a27,27,0,0,1-2.37-3.2c0,.12.08.23.13.35.17.5.36,1,.56,1.47l.21.52c.24.56.5,1.1.77,1.64.07.14.15.27.22.4.26.48.52,1,.8,1.41l.19.32C163.23,135.42,163.58,135.93,164,136.44Z" style="fill:#263238;stroke:#263238;stroke-linecap:round;stroke-linejoin:round"></path><line x1="182.89" y1="86.87" x2="173.99" y2="88.83" style="fill:none;stroke:#263238;stroke-linecap:round;stroke-linejoin:round"></line><line x1="274.94" y1="66.64" x2="188.75" y2="85.59" style="fill:none;stroke:#263238;stroke-linecap:round;stroke-linejoin:round"></line><line x1="209.93" y1="98.12" x2="220.99" y2="95.36" style="fill:none;stroke:#263238;stroke-linecap:round;stroke-linejoin:round"></line><line x1="165.29" y1="109.28" x2="201.84" y2="100.14" style="fill:none;stroke:#263238;stroke-linecap:round;stroke-linejoin:round"></line><path d="M117.6,162.84s-13.42-8.77-15.21-9-2.86,1.06-2.33,3.07,9.62,11.62,10.88,12.78,4.34,1.9,5.92,1.06,2-3.49,1.8-5.29A4.65,4.65,0,0,0,117.6,162.84Z" style="fill:#fff;stroke:#263238;stroke-linecap:round;stroke-linejoin:round"></path><path d="M100.06,156.93s-4.22-5-6.76-3.91a4.36,4.36,0,0,0-2.22,5.81c.85,1.9,10.46,18.49,12.68,18.91s5.92-1.9,6.66-3.59,2.22-2.43.52-4.44L108.62,167Z" style="fill:#fff;stroke:#263238;stroke-linecap:round;stroke-linejoin:round"></path><path d="M91.08,158.83s-2.64-3.17-4.86-2.43-3.28,4.22-2.11,6.44,6.55,11.1,8.24,13.84,2.64,5.71,6.23,4.13,3.49-4.55,3.49-4.55Z" style="fill:#fff;stroke:#263238;stroke-linecap:round;stroke-linejoin:round"></path><path d="M85,165s-2.85-2.12-4.65.1.64,7.61,1.59,9.51,1.69,7.19,3.38,8.45,5.49,2.22,7.18,1.06,1.59-4,1.59-4Z" style="fill:#fff;stroke:#263238;stroke-linecap:round;stroke-linejoin:round"></path><path d="M79.77,142s22.19-4.65,23.36-4.65,3.48,2,3.91,2.53,5.6,7,7.29,8.77,1,4.12,1,6.13,1.37,7.19,0,8.56-4.34.63-6-1.16-3.17-10.57-3.17-10.57l-6.55-2.43-7.18,3.49" style="fill:#fff;stroke:#263238;stroke-linecap:round;stroke-linejoin:round"></path><polygon points="37.04 87.27 14.25 104.03 44.2 95.54 37.04 87.27" style="fill:#263238;stroke:#263238;stroke-linecap:round;stroke-linejoin:round"></polygon><polygon points="25.61 67.01 18.28 52.95 16.69 -0.2 0 -0.2 0 109.87 25.61 67.01" style="fill:#263238;stroke:#263238;stroke-linecap:round;stroke-linejoin:round"></polygon></g></svg>
