<svg xmlns="http://www.w3.org/2000/svg" viewBox="0 0 500 500"><g id="freepik--Floor--inject-44"><ellipse id="freepik--floor--inject-44" cx="250" cy="356.83" rx="243.71" ry="126.31" style="fill:#f5f5f5"></ellipse></g><g id="freepik--Shadows--inject-44"><path id="freepik--Shadow--inject-44" d="M314.4,383.23c35.62-20.56,35.62-53.9,0-74.47s-93.38-20.57-129,0-35.62,53.91,0,74.48S278.77,403.8,314.4,383.23Z" style="fill:#e0e0e0"></path><path id="freepik--shadow--inject-44" d="M416.23,310C402,323,381.77,336.39,361.75,346.5a8.52,8.52,0,0,1-5.63.43c-28-9.23-40.45-15.77-58.93-32.75a2.44,2.44,0,0,1,.22-3.9C317,296,339.88,286.16,366.25,281.2a14.78,14.78,0,0,1,5.92.32c23.65,7.22,31.59,10.52,44.24,24.08A3.1,3.1,0,0,1,416.23,310Z" style="fill:#e0e0e0"></path><path id="freepik--shadow--inject-44" d="M83.77,310C98,323,118.23,336.39,138.25,346.5a8.52,8.52,0,0,0,5.63.43c28-9.23,40.45-15.77,58.93-32.75a2.44,2.44,0,0,0-.22-3.9C183,296,160.12,286.16,133.75,281.2a14.78,14.78,0,0,0-5.92.32C104.18,288.74,96.24,292,83.59,305.6A3.1,3.1,0,0,0,83.77,310Z" style="fill:#e0e0e0"></path><ellipse id="freepik--shadow--inject-44" cx="412.68" cy="383.87" rx="62.29" ry="35.96" style="fill:#e0e0e0"></ellipse><ellipse id="freepik--shadow--inject-44" cx="91.78" cy="383.87" rx="62.29" ry="35.96" style="fill:#e0e0e0"></ellipse></g><g id="freepik--Chairs--inject-44"><g id="freepik--Chair--inject-44"><polygon points="366.3 228.75 370.15 228.86 373.96 176.4 370.12 176.29 366.3 228.75" style="fill:#455a64"></polygon><polygon points="399.19 246.81 403.04 246.92 406.86 194.46 403.01 194.34 399.19 246.81" style="fill:#455a64"></polygon><path d="M397.9,250.47h6.37l7.41,56.65h0a.76.76,0,0,1-.46.7,2.48,2.48,0,0,1-2.28,0,.85.85,0,0,1-.45-.54h0Z" style="fill:#455a64"></path><path d="M359.66,228.4H366l7.41,56.65h0a.74.74,0,0,1-.46.7,2.52,2.52,0,0,1-2.27,0,.83.83,0,0,1-.45-.55h0Z" style="fill:#455a64"></path><path d="M310.43,315.47l11-65h6.37l-14.17,65.15h0a.86.86,0,0,1-.45.55,2.52,2.52,0,0,1-2.27,0,.76.76,0,0,1-.47-.7Z" style="fill:#455a64"></path><path d="M351.85,339.38l9.26-66.18h6.37l-12.43,66.33h0a.86.86,0,0,1-.45.55,2.52,2.52,0,0,1-2.27,0,.76.76,0,0,1-.47-.7Z" style="fill:#455a64"></path><path d="M321.43,250.47h6.37l-2.59,11.91q-2.18-1.8-4.24-3.69a4.3,4.3,0,0,1-.76-1Z" style="fill:#37474f"></path><path d="M404.27,250.47l1,8a4.7,4.7,0,0,1-1.17,2.08c-1.18,1.09-2.44,2.18-3.75,3.28l-2.49-13.34Z" style="fill:#37474f"></path><path d="M359.83,282.33l1.28-9.13h6.37l-2.08,11.11C363.5,283.68,361.65,283,359.83,282.33Z" style="fill:#37474f"></path><path d="M365.4,230.1a6.9,6.9,0,0,1,.86-.09L373,282c-1.16.63-1.87,1-3,1.6l-9.82-52.38C361.9,230.81,363.64,230.43,365.4,230.1Z" style="fill:#37474f"></path><path d="M365.47,279.3c-18-6-32.61-14.72-44.5-25.65a5.08,5.08,0,0,1-1.43-3.3v-3.43a4.34,4.34,0,0,1,1.57-3.13c12.61-9.21,27.32-15.52,44.29-18.72a9.41,9.41,0,0,1,3.81.21q22.83,7,35,20.06a5.75,5.75,0,0,1,1.31,3.42v3.43a5.17,5.17,0,0,1-1.42,3.31c-9.13,8.4-22.18,17-35.05,23.53A5.44,5.44,0,0,1,365.47,279.3Z" style="fill:#C4A283"></path><path d="M319.54,246.92v3.43a5.13,5.13,0,0,0,1.43,3.31c11.89,10.92,26.47,19.67,44.49,25.64a5.09,5.09,0,0,0,2,.16V225a8.68,8.68,0,0,0-2.08.08c-17,3.2-31.68,9.51-44.29,18.72A4.36,4.36,0,0,0,319.54,246.92Z" style="fill:#fff;opacity:0.55"></path><path d="M367.48,225v54.47a4.53,4.53,0,0,0,1.61-.43C382,272.53,395,263.9,404.14,255.5a5.17,5.17,0,0,0,1.43-3.3v-3.45a5.69,5.69,0,0,0-1.32-3.41q-12.21-13.09-35-20.06A7.7,7.7,0,0,0,367.48,225Z" style="fill:#fff;opacity:0.35000000000000003"></path><path d="M404.14,248.12c-9.13,8.39-22.18,17-35.05,23.51a5.46,5.46,0,0,1-3.63.27c-18-5.93-32.6-14.68-44.49-25.61a1.57,1.57,0,0,1,.14-2.51c12.61-9.21,27.32-15.51,44.29-18.71a9.41,9.41,0,0,1,3.81.21q22.83,7,35,20A2,2,0,0,1,404.14,248.12Z" style="fill:#C4A283"></path><path d="M404.14,248.12c-9.13,8.39-22.18,17-35.05,23.51a5.46,5.46,0,0,1-3.63.27c-18-5.93-32.6-14.68-44.49-25.61a1.57,1.57,0,0,1,.14-2.51c12.61-9.21,27.32-15.51,44.29-18.71a9.41,9.41,0,0,1,3.81.21q22.83,7,35,20A2,2,0,0,1,404.14,248.12Z" style="fill:#fff;opacity:0.75"></path><path d="M414.4,187.39q-18.31-23.53-47.85-27.63a6.42,6.42,0,0,0-3.53.68,3.62,3.62,0,0,0-1.6,2.88v14.47a2.3,2.3,0,0,0,1.95,2.21q29.53,4.08,47.84,27.62a2.22,2.22,0,0,0,2.78.64,3.62,3.62,0,0,0,1.6-2.88V190.91A6.72,6.72,0,0,0,414.4,187.39Z" style="fill:#C4A283"></path><path d="M401.42,197.13l13.84-8a6.14,6.14,0,0,1,.33,1.78v14.47a3.62,3.62,0,0,1-1.6,2.88,2.22,2.22,0,0,1-2.78-.64A78,78,0,0,0,401.42,197.13Z" style="fill:#fff;opacity:0.35000000000000003"></path><path d="M401.42,197.13Q385.57,183.08,363.37,180a2.3,2.3,0,0,1-1.95-2.21V163.32a3.62,3.62,0,0,1,1.6-2.88,6.42,6.42,0,0,1,3.53-.68q29.54,4.1,47.85,27.63a5.89,5.89,0,0,1,.86,1.74Z" style="fill:#fff;opacity:0.75"></path><path d="M411.21,207.62q-18.3-23.53-47.84-27.62a2.3,2.3,0,0,1-1.95-2.21V163.32a1.68,1.68,0,0,1,1.95-1.72q29.53,4.1,47.84,27.63a6.63,6.63,0,0,1,1.19,3.52v14.47C412.4,208.3,411.88,208.48,411.21,207.62Z" style="fill:#C4A283"></path><path d="M411.21,207.62q-18.3-23.53-47.84-27.62a2.3,2.3,0,0,1-1.95-2.21V163.32a1.68,1.68,0,0,1,1.95-1.72q29.53,4.1,47.84,27.63a6.63,6.63,0,0,1,1.19,3.52v14.47C412.4,208.3,411.88,208.48,411.21,207.62Z" style="fill:#fff;opacity:0.55"></path></g><g id="freepik--chair--inject-44"><polygon points="131.63 228.75 127.78 228.86 123.96 176.4 127.81 176.29 131.63 228.75" style="fill:#455a64"></polygon><polygon points="98.73 246.81 94.88 246.92 91.06 194.46 94.91 194.34 98.73 246.81" style="fill:#455a64"></polygon><path d="M100,250.47H93.66l-7.41,56.65h0a.74.74,0,0,0,.46.7,2.46,2.46,0,0,0,2.27,0,.82.82,0,0,0,.45-.54h0Z" style="fill:#455a64"></path><path d="M138.26,228.4h-6.37l-7.41,56.65h0a.77.77,0,0,0,.46.7,2.52,2.52,0,0,0,2.27,0,.88.88,0,0,0,.46-.55h0Z" style="fill:#455a64"></path><path d="M187.5,315.47l-11-65h-6.37l14.18,65.15h0a.85.85,0,0,0,.46.55,2.52,2.52,0,0,0,2.27,0,.77.77,0,0,0,.46-.7Z" style="fill:#455a64"></path><path d="M146.08,339.38l-9.26-66.18h-6.38l12.44,66.33h0a.88.88,0,0,0,.46.55,2.52,2.52,0,0,0,2.27,0,.77.77,0,0,0,.46-.7Z" style="fill:#455a64"></path><path d="M176.49,250.47h-6.37l2.59,11.91q2.17-1.8,4.24-3.69a4.3,4.3,0,0,0,.76-1Z" style="fill:#37474f"></path><path d="M93.66,250.47l-1,7.93a5,5,0,0,0,1.16,2.13q1.78,1.64,3.75,3.28l2.5-13.34Z" style="fill:#37474f"></path><path d="M138.09,282.33l-1.27-9.13h-6.38l2.09,11.11Q135.36,283.37,138.09,282.33Z" style="fill:#37474f"></path><path d="M132.52,230.1a6.9,6.9,0,0,0-.86-.09l-6.78,52c1.17.63,1.87,1,3,1.6l9.82-52.38C136,230.81,134.29,230.43,132.52,230.1Z" style="fill:#37474f"></path><path d="M132.46,279.3c18-6,32.6-14.72,44.49-25.65a5.08,5.08,0,0,0,1.43-3.3v-3.43a4.3,4.3,0,0,0-1.57-3.13c-12.61-9.21-27.32-15.52-44.29-18.72a9.43,9.43,0,0,0-3.81.21q-22.83,7-35,20.06a5.75,5.75,0,0,0-1.31,3.42v3.43a5.13,5.13,0,0,0,1.43,3.31c9.12,8.4,22.17,17,35.05,23.53A5.43,5.43,0,0,0,132.46,279.3Z" style="fill:#C4A283"></path><path d="M178.38,246.92v3.43a5.13,5.13,0,0,1-1.43,3.31c-11.88,10.92-26.47,19.67-44.49,25.64a5.07,5.07,0,0,1-2,.16V225a8.68,8.68,0,0,1,2.08.08,107.93,107.93,0,0,1,44.3,18.72A4.35,4.35,0,0,1,178.38,246.92Z" style="fill:#fff;opacity:0.55"></path><path d="M130.44,225v54.47a4.53,4.53,0,0,1-1.6-.43c-12.88-6.5-25.93-15.13-35.06-23.53a5.16,5.16,0,0,1-1.42-3.3v-3.45a5.75,5.75,0,0,1,1.31-3.41q12.21-13.09,35-20.06A7.7,7.7,0,0,1,130.44,225Z" style="fill:#fff;opacity:0.35000000000000003"></path><path d="M93.79,248.12c9.12,8.39,22.17,17,35.05,23.51a5.43,5.43,0,0,0,3.62.27c18-5.93,32.6-14.68,44.49-25.61a1.57,1.57,0,0,0-.14-2.51c-12.61-9.21-27.32-15.51-44.29-18.71a9.43,9.43,0,0,0-3.81.21q-22.83,7-35,20A2,2,0,0,0,93.79,248.12Z" style="fill:#C4A283"></path><path d="M93.79,248.12c9.12,8.39,22.17,17,35.05,23.51a5.43,5.43,0,0,0,3.62.27c18-5.93,32.6-14.68,44.49-25.61a1.57,1.57,0,0,0-.14-2.51c-12.61-9.21-27.32-15.51-44.29-18.71a9.43,9.43,0,0,0-3.81.21q-22.83,7-35,20A2,2,0,0,0,93.79,248.12Z" style="fill:#fff;opacity:0.75"></path><path d="M83.52,187.39q18.32-23.53,47.85-27.63a6.46,6.46,0,0,1,3.54.68,3.61,3.61,0,0,1,1.59,2.88v14.47a2.3,2.3,0,0,1-1.94,2.21Q105,184.08,86.71,207.62a2.22,2.22,0,0,1-2.78.64,3.61,3.61,0,0,1-1.59-2.88V190.91A6.7,6.7,0,0,1,83.52,187.39Z" style="fill:#C4A283"></path><path d="M96.51,197.13l-13.85-8a6.1,6.1,0,0,0-.32,1.78v14.47a3.61,3.61,0,0,0,1.59,2.88,2.22,2.22,0,0,0,2.78-.64A77.37,77.37,0,0,1,96.51,197.13Z" style="fill:#fff;opacity:0.35000000000000003"></path><path d="M96.51,197.13q15.85-14.06,38.05-17.13a2.3,2.3,0,0,0,1.94-2.21V163.32a3.61,3.61,0,0,0-1.59-2.88,6.46,6.46,0,0,0-3.54-.68q-29.53,4.1-47.85,27.63a5.89,5.89,0,0,0-.86,1.74Z" style="fill:#fff;opacity:0.75"></path><path d="M86.71,207.62Q105,184.09,134.56,180a2.3,2.3,0,0,0,1.94-2.21V163.32a1.68,1.68,0,0,0-1.94-1.72Q105,165.7,86.71,189.23a6.63,6.63,0,0,0-1.19,3.52v14.47C85.52,208.3,86.05,208.48,86.71,207.62Z" style="fill:#C4A283"></path><path d="M86.71,207.62Q105,184.09,134.56,180a2.3,2.3,0,0,0,1.94-2.21V163.32a1.68,1.68,0,0,0-1.94-1.72Q105,165.7,86.71,189.23a6.63,6.63,0,0,0-1.19,3.52v14.47C85.52,208.3,86.05,208.48,86.71,207.62Z" style="fill:#fff;opacity:0.55"></path></g></g><g id="freepik--Table--inject-44"><g id="freepik--table--inject-44"><path d="M305.72,224a2.55,2.55,0,0,0-1.51-2.11,8.07,8.07,0,0,0-7.32,0,2.55,2.55,0,0,0-1.51,2.11L319,357.05h0A1.84,1.84,0,0,0,320,358.5a5.68,5.68,0,0,0,5.17,0,1.84,1.84,0,0,0,1.07-1.45h0Z" style="fill:#455a64"></path><path d="M192.54,224a2.55,2.55,0,0,1,1.51-2.11,8.07,8.07,0,0,1,7.32,0,2.56,2.56,0,0,1,1.52,2.11l-23.57,133.1h0a1.84,1.84,0,0,1-1.07,1.45,5.68,5.68,0,0,1-5.17,0,1.81,1.81,0,0,1-1.06-1.45h0Z" style="fill:#455a64"></path><path d="M254.35,227.94a2.58,2.58,0,0,0-1.52-2.11,8.07,8.07,0,0,0-7.32,0,2.56,2.56,0,0,0-1.51,2.11l1.51,153.72h0a1.82,1.82,0,0,0,1.07,1.46,5.74,5.74,0,0,0,5.17,0,1.81,1.81,0,0,0,1.06-1.46h0Z" style="fill:#455a64"></path><path d="M337.86,316.41h0l-6.58-75.8H168.44l-6.27,73.23c-.68,12,5.2,23.37,17.24,33l-.2,1.82a2,2,0,0,0,.5,1.54,44.52,44.52,0,0,0,25.41,13.37,2,2,0,0,0,2.28-1.95h0A126.41,126.41,0,0,0,231.16,367l-.19,2.1a2,2,0,0,0,1.56,2.11c9.64,2,23.67,1.8,33.83-.24a2,2,0,0,0,1.57-2.15l-.19-1.7a125.83,125.83,0,0,0,28.39-6.77v1.31a2,2,0,0,0,2.27,1.95,44.44,44.44,0,0,0,25.41-13.37,2,2,0,0,0,.51-1.54l-.5-4.53C333.13,335.93,338.25,326.61,337.86,316.41Z" style="fill:#C4A283"></path><path d="M337.86,316.41h0l-6.58-75.8H168.44l-6.27,73.23c-.68,12,5.2,23.37,17.24,33l-.2,1.82a2,2,0,0,0,.5,1.54,44.52,44.52,0,0,0,25.41,13.37,2,2,0,0,0,2.28-1.95h0A126.41,126.41,0,0,0,231.16,367l-.19,2.1a2,2,0,0,0,1.56,2.11c9.64,2,23.67,1.8,33.83-.24a2,2,0,0,0,1.57-2.15l-.19-1.7a125.83,125.83,0,0,0,28.39-6.77v1.31a2,2,0,0,0,2.27,1.95,44.44,44.44,0,0,0,25.41-13.37,2,2,0,0,0,.51-1.54l-.5-4.53C333.13,335.93,338.25,326.61,337.86,316.41Z" style="fill:#fff;opacity:0.75"></path><g style="opacity:0.4"><path d="M210.84,303.34l1,59.68-4.44-1.38,2.84-58.28A.3.3,0,0,1,210.84,303.34Z" style="fill:#C4A283"></path><path d="M179.43,346.62l3.94-30.16a.3.3,0,0,0-.59-.08L177.6,345Z" style="fill:#C4A283"></path><path d="M234.59,310.82l-3.42,56-4.29-.38,7.31-55.68A.2.2,0,0,1,234.59,310.82Z" style="fill:#C4A283"></path><path d="M266.12,330.8l5,36-3.37.27-2.21-36.21A.3.3,0,0,1,266.12,330.8Z" style="fill:#C4A283"></path><path d="M293.63,311.53l-.73,50,3.23-1.15-1.9-48.78A.3.3,0,0,0,293.63,311.53Z" style="fill:#C4A283"></path><path d="M321.39,316.45l4.87,25.41-2.44,2.28-3-27.6A.3.3,0,0,1,321.39,316.45Z" style="fill:#C4A283"></path></g><ellipse cx="249.83" cy="242.81" rx="81.48" ry="47.04" style="fill:#C4A283"></ellipse><path d="M307.51,276.07c31.82-18.37,31.82-48.15,0-66.53s-83.41-18.37-115.22,0-31.82,48.16,0,66.53S275.69,294.44,307.51,276.07Z" style="fill:#fff;opacity:0.85"></path></g><g id="freepik--Crockery--inject-44"><path id="freepik--shadow--inject-44" d="M241.65,259.32c-5.2-3-5.2-7.86,0-10.86s13.62-3,18.82,0,5.2,7.86,0,10.86S246.84,262.32,241.65,259.32Z" style="opacity:0.1"></path><g id="freepik--Centerpiece--inject-44"><g id="freepik--Vase--inject-44"><path d="M263.78,242.22c1.86-6.29,3.52-18.3,2.8-22.35s-5.42-5.51-5.76-6.51H241.1c-.33,1-5,2.47-5.75,6.51s.94,16.06,2.8,22.35a50.76,50.76,0,0,0,5.6,11.81,5.23,5.23,0,0,0,1.8,1.84,10.93,10.93,0,0,0,10.82,0,5.48,5.48,0,0,0,1.47-1.33h0a2.78,2.78,0,0,0,.33-.51A51.1,51.1,0,0,0,263.78,242.22Z" style="fill:#C4A283"></path><path d="M263.78,242.22c1.86-6.29,3.52-18.3,2.8-22.35s-5.42-5.51-5.76-6.51H241.1c-.33,1-5,2.47-5.75,6.51s.94,16.06,2.8,22.35a50.76,50.76,0,0,0,5.6,11.81,5.23,5.23,0,0,0,1.8,1.84,10.93,10.93,0,0,0,10.82,0,5.48,5.48,0,0,0,1.47-1.33h0a2.78,2.78,0,0,0,.33-.51A51.1,51.1,0,0,0,263.78,242.22Z" style="opacity:0.1"></path><path d="M263.78,242.22a52,52,0,0,1-5.6,11.82,4.91,4.91,0,0,1-.34.5,5.48,5.48,0,0,1-1.47,1.33,10.93,10.93,0,0,1-10.82,0,5.29,5.29,0,0,1-1.8-1.83,51.53,51.53,0,0,1-5.6-11.82c-1.86-6.3-3.52-18.3-2.8-22.35a5.67,5.67,0,0,1,.56-1.64c-.81,3,.61,6.21,4.25,8.54,6,3.81,15.64,3.81,21.61,0,3.63-2.32,5.05-5.51,4.26-8.51a5.47,5.47,0,0,1,.55,1.61C267.3,223.92,265.64,235.92,263.78,242.22Z" style="opacity:0.1"></path><path d="M243.88,219l.7-5.65H241.1c-.33,1-5,2.47-5.75,6.51s.94,16.06,2.8,22.35a50.76,50.76,0,0,0,5.6,11.81,5.23,5.23,0,0,0,1.8,1.84,11.12,11.12,0,0,0,9.6.63c-3.33.59-7.67-.54-10.62-5.72-3.15-5.53-5.64-21.15-5.64-25.52S241.86,220.4,243.88,219Z" style="opacity:0.1"></path><path d="M258,210c3.91,2.49,3.91,6.54,0,9a14.3,14.3,0,0,1-14.16,0c-3.91-2.5-3.91-6.55,0-9A14.3,14.3,0,0,1,258,210Z" style="fill:#C4A283"></path><path d="M256.37,210.7c3,1.73,3,4.53,0,6.25a11.93,11.93,0,0,1-10.82,0c-3-1.72-3-4.52,0-6.25A12,12,0,0,1,256.37,210.7Z" style="fill:#C4A283"></path><path d="M256.37,210.7c3,1.73,3,4.53,0,6.25a11.93,11.93,0,0,1-10.82,0c-3-1.72-3-4.52,0-6.25A12,12,0,0,1,256.37,210.7Z" style="opacity:0.30000000000000004"></path></g><path d="M233.28,221.51a9.11,9.11,0,0,0,4.3-.36,15.91,15.91,0,0,0,4-1.73,15.11,15.11,0,0,0,3.47-3.06,20.36,20.36,0,0,0,1.49-2,10.19,10.19,0,0,0,1.18-2c.06-.17-.2-.29-.31-.16-.48.63-.85,1.34-1.3,2a20.7,20.7,0,0,1-1.32,1.76,15.55,15.55,0,0,1-3.26,3,15.34,15.34,0,0,1-3.43,1.67,11.14,11.14,0,0,1-4.83.84c-.06,0-.06.09,0,.1Z" style="fill:#37474f"></path><path d="M234.35,221.59a1.46,1.46,0,0,1-2.51-.13,2.18,2.18,0,0,1,1.44-.45A1.49,1.49,0,0,1,234.35,221.59Z" style="fill:#C4A283"></path><path d="M244.91,218.69a1.42,1.42,0,0,1,.35,1.92,4.28,4.28,0,0,1-2.36,1.84,7.44,7.44,0,0,1,.35-2.55A1.82,1.82,0,0,1,244.91,218.69Z" style="fill:#C4A283"></path><path d="M243,215.94a1.4,1.4,0,0,1-1.76.82,4.24,4.24,0,0,1-2.38-1.81,7.2,7.2,0,0,1,2.56-.3A1.77,1.77,0,0,1,243,215.94Z" style="fill:#C4A283"></path><path d="M241.21,221a1.6,1.6,0,0,1-.13,1.58c-.53.84-1.91.82-1.91.82a2.77,2.77,0,0,1,.53-2.06A1.42,1.42,0,0,1,241.21,221Z" style="fill:#C4A283"></path><path d="M239.45,218.07a1.6,1.6,0,0,1-1.43.66c-1-.06-1.65-1.27-1.65-1.27a2.75,2.75,0,0,1,2.06-.55A1.41,1.41,0,0,1,239.45,218.07Z" style="fill:#C4A283"></path><path d="M237.68,222.11a1.5,1.5,0,0,1-.21,1.39,2.75,2.75,0,0,1-1.8.83,3.76,3.76,0,0,1,.32-1.7C236.34,222.23,237.68,222.11,237.68,222.11Z" style="fill:#C4A283"></path><path d="M233.13,219a1.4,1.4,0,0,0,.8.94,2.32,2.32,0,0,0,1.69-.12s-.59-1-1-1.12S233.13,219,233.13,219Z" style="fill:#C4A283"></path><g style="opacity:0.35000000000000003"><path d="M234.35,221.59a1.46,1.46,0,0,1-2.51-.13,2.18,2.18,0,0,1,1.44-.45A1.49,1.49,0,0,1,234.35,221.59Z" style="fill:#fff"></path><path d="M244.91,218.69a1.42,1.42,0,0,1,.35,1.92,4.28,4.28,0,0,1-2.36,1.84,7.44,7.44,0,0,1,.35-2.55A1.82,1.82,0,0,1,244.91,218.69Z" style="fill:#fff"></path><path d="M243,215.94a1.4,1.4,0,0,1-1.76.82,4.24,4.24,0,0,1-2.38-1.81,7.2,7.2,0,0,1,2.56-.3A1.77,1.77,0,0,1,243,215.94Z" style="fill:#fff"></path><path d="M241.21,221a1.6,1.6,0,0,1-.13,1.58c-.53.84-1.91.82-1.91.82a2.77,2.77,0,0,1,.53-2.06A1.42,1.42,0,0,1,241.21,221Z" style="fill:#fff"></path><path d="M239.45,218.07a1.6,1.6,0,0,1-1.43.66c-1-.06-1.65-1.27-1.65-1.27a2.75,2.75,0,0,1,2.06-.55A1.41,1.41,0,0,1,239.45,218.07Z" style="fill:#fff"></path><path d="M237.68,222.11a1.5,1.5,0,0,1-.21,1.39,2.75,2.75,0,0,1-1.8.83,3.76,3.76,0,0,1,.32-1.7C236.34,222.23,237.68,222.11,237.68,222.11Z" style="fill:#fff"></path><path d="M233.13,219a1.4,1.4,0,0,0,.8.94,2.32,2.32,0,0,0,1.69-.12s-.59-1-1-1.12S233.13,219,233.13,219Z" style="fill:#fff"></path></g><path d="M243.86,221.17a8.74,8.74,0,0,0,.77-1.32,10.76,10.76,0,0,0,.57-1.62c.13-.5.25-1,.35-1.52a2.87,2.87,0,0,0,.1-1.36c0-.08-.19-.17-.23,0a9.4,9.4,0,0,0-.2,1.31c-.1.48-.21,1-.33,1.45a13.59,13.59,0,0,1-1.08,3s0,.12.05.07Z" style="fill:#37474f"></path><path d="M240,222.57a1.54,1.54,0,0,0,.76-.62,9.1,9.1,0,0,0,.59-.93,9.64,9.64,0,0,0,.48-1c.07-.19.12-.37.18-.56a1.9,1.9,0,0,0,.16-.61c0-.06-.12-.17-.18-.1a1.91,1.91,0,0,0-.27.6c-.08.19-.15.38-.22.58a10.32,10.32,0,0,1-.48,1c-.15.28-.32.56-.48.84a2,2,0,0,1-.57.73s0,.11,0,.09Z" style="fill:#37474f"></path><path d="M240.76,215.78a5.76,5.76,0,0,1,1.81.51,6.31,6.31,0,0,1,.73.38,3.92,3.92,0,0,1,.32.25c.09.08.15.19.25.25s.25,0,.24-.09-.33-.44-.52-.56a4.69,4.69,0,0,0-.8-.42,5.91,5.91,0,0,0-2-.43s0,.1,0,.11Z" style="fill:#37474f"></path><path d="M237.47,217.82a9.63,9.63,0,0,1,1.08.11,6.39,6.39,0,0,1,1.13.34,6.46,6.46,0,0,1,.92.44,6.34,6.34,0,0,0,.82.42.1.1,0,0,0,.15-.09c0-.3-.44-.44-.66-.55a7.13,7.13,0,0,0-1-.49,6,6,0,0,0-1.16-.3,3,3,0,0,0-1.26,0c-.07,0,0,.13,0,.14Z" style="fill:#37474f"></path><path d="M236.61,223.57a3.73,3.73,0,0,0,.61-.58c.2-.23.38-.47.56-.72a6.67,6.67,0,0,0,.45-.68l.2-.34c.12-.19.29-.36.39-.56s-.1-.25-.2-.17a3.16,3.16,0,0,0-.51.69l-.45.74c-.15.24-.32.47-.48.71a7,7,0,0,1-.6.83s0,.12,0,.08Z" style="fill:#37474f"></path><path d="M234.3,219.43a3.5,3.5,0,0,1,.94.28c.32.12.65.24,1,.39s.52.33.79.49.29.17.42.27.17.17.3.18a.06.06,0,0,0,.08,0v0a.11.11,0,0,0,0-.16,3.46,3.46,0,0,0-.65-.49,5.3,5.3,0,0,0-.89-.52,8.43,8.43,0,0,0-1-.34,3.67,3.67,0,0,0-1-.17c-.07,0-.05.12,0,.12Z" style="fill:#37474f"></path><path d="M257.14,195.5a1.48,1.48,0,0,0,.05-1.42,1.44,1.44,0,0,0-1.17-.77,2.09,2.09,0,0,0,.17,1.46A1.49,1.49,0,0,0,257.14,195.5Z" style="fill:#C4A283"></path><path d="M256.57,194.62a10,10,0,0,1,1.06,3.83,16.45,16.45,0,0,1,.08,3.84,14.44,14.44,0,0,1-1.23,4.38,19.88,19.88,0,0,1-1.08,2c-.45.76-1,1.48-1.44,2.26-.09.17.2.26.3.15a15.15,15.15,0,0,0,2.57-4.1,14.6,14.6,0,0,0,1.35-4.76c.24-2.57-.06-5.55-1.56-7.71,0,0-.07,0-.05.07Z" style="fill:#37474f"></path><path d="M258.78,206.08a1.39,1.39,0,0,0,1.85-.46,4.14,4.14,0,0,0,.7-2.83,7.05,7.05,0,0,0-2.13,1.33A1.75,1.75,0,0,0,258.78,206.08Z" style="fill:#C4A283"></path><path d="M255.56,205.48a1.39,1.39,0,0,0,0-1.91,4.16,4.16,0,0,0-2.57-1.39,7.15,7.15,0,0,0,.75,2.4A1.74,1.74,0,0,0,255.56,205.48Z" style="fill:#C4A283"></path><path d="M259.34,201.86a1.57,1.57,0,0,0,1.36-.74,2.41,2.41,0,0,0,0-2s-1.31.39-1.63,1.31A1.36,1.36,0,0,0,259.34,201.86Z" style="fill:#C4A283"></path><path d="M256,201.46a1.57,1.57,0,0,0,0-1.55c-.45-.86-1.79-1-1.79-1a2.7,2.7,0,0,0,.34,2.06A1.38,1.38,0,0,0,256,201.46Z" style="fill:#C4A283"></path><path d="M258.94,198.26a1.49,1.49,0,0,0,1.15-.74,2.64,2.64,0,0,0,0-1.94s-1.16.5-1.38,1S258.94,198.26,258.94,198.26Z" style="fill:#C4A283"></path><path d="M254.34,195.44a1.4,1.4,0,0,1,1.17.34,2.29,2.29,0,0,1,.57,1.55,3.5,3.5,0,0,1-1.42-.46C254.34,196.54,254.34,195.44,254.34,195.44Z" style="fill:#C4A283"></path><path d="M260.51,204.1c-.15.2-.34.38-.51.57s-.35.37-.53.55a12.68,12.68,0,0,1-1.17,1c-.37.31-.77.61-1.16.89s-.79.48-1.17.74c-.11.08,0,.23.14.2a4,4,0,0,0,1.18-.67c.4-.29.8-.58,1.18-.89a9.54,9.54,0,0,0,1.1-1c.2-.21.38-.43.56-.66a6.92,6.92,0,0,0,.42-.68s0-.11,0-.07Z" style="fill:#37474f"></path><path d="M260.21,200.17a2.33,2.33,0,0,1-.48.87c-.2.27-.38.54-.58.8a8.21,8.21,0,0,1-.67.77l-.43.43a1.67,1.67,0,0,0-.38.42c0,.08.06.2.14.16a2.32,2.32,0,0,0,.48-.4l.47-.44a8.58,8.58,0,0,0,.73-.85,2.76,2.76,0,0,0,.78-1.76s0-.06-.06,0Z" style="fill:#37474f"></path><path d="M254.44,203.6a9,9,0,0,0,1.1,1.56,4.35,4.35,0,0,0,.67.55,1.39,1.39,0,0,0,.77.3c.07,0,.16-.1.1-.18a1.52,1.52,0,0,0-.43-.19,3.37,3.37,0,0,1-.32-.19,5.09,5.09,0,0,1-.58-.46,5.41,5.41,0,0,1-1.25-1.45c0-.07-.08,0-.06.06Z" style="fill:#37474f"></path><path d="M254.9,199.81a2,2,0,0,0,.1.41c.08.17.17.33.26.49a5.33,5.33,0,0,0,.72,1,5.06,5.06,0,0,0,.84.76c.25.2.56.55.91.51a.11.11,0,0,0,.08-.13,1.1,1.1,0,0,0-.34-.3l-.35-.28a6.79,6.79,0,0,1-.77-.65,8.88,8.88,0,0,1-.71-.79,5.25,5.25,0,0,1-.33-.49c-.1-.18-.22-.36-.32-.55s-.1,0-.09,0Z" style="fill:#37474f"></path><path d="M259.75,196.7a6.65,6.65,0,0,1-.5.86c-.17.26-.32.53-.49.79s-.32.45-.47.68a2.41,2.41,0,0,0-.39.7c0,.11.15.23.22.12s.31-.52.49-.77.33-.48.48-.73a7.63,7.63,0,0,0,.39-.75,5.47,5.47,0,0,0,.32-.85s0-.1-.05-.05Z" style="fill:#37474f"></path><path d="M255.1,196.37a3.42,3.42,0,0,0,.23.42,3,3,0,0,0,.31.39,6.13,6.13,0,0,0,.65.7,5.7,5.7,0,0,0,.75.54,3.5,3.5,0,0,0,.78.43c.19.06.27-.16.09-.24a3.21,3.21,0,0,1-.67-.4,6.32,6.32,0,0,1-.68-.47c-.22-.18-.42-.4-.63-.59a3.83,3.83,0,0,1-.29-.28,2.85,2.85,0,0,1-.47-.56c0-.07-.1,0-.07.06Z" style="fill:#37474f"></path><path d="M255.84,213.29c.11-4.65,3.23-6,9.55-5.39,0,0-.11,3.48-2,5.2C260.93,215.26,257.05,214.89,255.84,213.29Z" style="fill:#C4A283"></path><path d="M255.84,213.29c.11-4.65,3.23-6,9.55-5.39,0,0-.11,3.48-2,5.2C260.93,215.26,257.05,214.89,255.84,213.29Z" style="opacity:0.30000000000000004"></path><path d="M264.09,208.56c-1.89.74-6.59,2.39-8.25,4.73l0-1S257.1,210.1,264.09,208.56Z" style="opacity:0.2"></path><path d="M256.76,214.14c4.25-1.9,6.78.36,9,6.31,0,0-3.19,1.4-5.58.39C257.18,219.58,255.84,215.93,256.76,214.14Z" style="fill:#C4A283"></path><path d="M256.76,214.14c4.25-1.9,6.78.36,9,6.31,0,0-3.19,1.4-5.58.39C257.18,219.58,255.84,215.93,256.76,214.14Z" style="opacity:0.2"></path><path d="M264.58,219.56c-1.48-1.39-5-4.92-7.82-5.42l.95-.39S260.18,213.91,264.58,219.56Z" style="opacity:0.2"></path><path d="M252,213.19l-1.32.3a8.13,8.13,0,0,1-1.35,2.77c-1,1.2-4.21,2.06-5.11.91l-2-2.55s-1,1-1.69.73-2-3.92-1.81-4.86a1.73,1.73,0,0,1,.39-.93s-.17-.14.27-.9a7.23,7.23,0,0,0,.27-3.33c0-1,1.27-2.12,2.59-2.18s2.81-.4,3.11-1,2.54-1.81,3.4-1.2,1.91,1.44,1.63,2.27a6.59,6.59,0,0,0,0,2.45,1.91,1.91,0,0,1,2.31,0c1,.94,2.13,3.74,1.25,5S252,213.19,252,213.19Z" style="fill:#C4A283"></path><path d="M252,213.19l-1.32.3a8.13,8.13,0,0,1-1.35,2.77c-1,1.2-4.21,2.06-5.11.91l-2-2.55s-1,1-1.69.73-2-3.92-1.81-4.86a1.73,1.73,0,0,1,.39-.93s-.17-.14.27-.9a7.23,7.23,0,0,0,.27-3.33c0-1,1.27-2.12,2.59-2.18s2.81-.4,3.11-1,2.54-1.81,3.4-1.2,1.91,1.44,1.63,2.27a6.59,6.59,0,0,0,0,2.45,1.91,1.91,0,0,1,2.31,0c1,.94,2.13,3.74,1.25,5S252,213.19,252,213.19Z" style="fill:#fff;opacity:0.75"></path><path d="M251.12,212.69a2.21,2.21,0,0,1-.49,2.52c-1.18,1.12-6.4.43-6.82-3.41a3.87,3.87,0,0,0,4,1.37A9,9,0,0,1,251.12,212.69Z" style="fill:#C4A283"></path><path d="M251.12,212.69a2.21,2.21,0,0,1-.49,2.52c-1.18,1.12-6.4.43-6.82-3.41a3.87,3.87,0,0,0,4,1.37A9,9,0,0,1,251.12,212.69Z" style="fill:#fff;opacity:0.65"></path><path d="M249.92,204.93a3.3,3.3,0,0,1,1.67-.32c.82.11,1.81,4.1,1.81,4.1s-.28-1.35-.64-.42,0,2.83-1.64,4.4L250,207.9S248.81,205.66,249.92,204.93Z" style="fill:#C4A283"></path><path d="M249.92,204.93a3.3,3.3,0,0,1,1.67-.32c.82.11,1.81,4.1,1.81,4.1s-.28-1.35-.64-.42,0,2.83-1.64,4.4L250,207.9S248.81,205.66,249.92,204.93Z" style="fill:#fff;opacity:0.65"></path><path d="M250.21,204.93s.08.11.28-.78a2.39,2.39,0,0,0-.7-2.08c-.32-.23-1.15.76-2.1.71s-3.1-.17-3.09-1.14a1.71,1.71,0,0,0,.53,2.29C246.46,204.8,249.54,204.39,250.21,204.93Z" style="fill:#C4A283"></path><path d="M250.21,204.93s.08.11.28-.78a2.39,2.39,0,0,0-.7-2.08c-.32-.23-1.15.76-2.1.71s-3.1-.17-3.09-1.14a1.71,1.71,0,0,0,.53,2.29C246.46,204.8,249.54,204.39,250.21,204.93Z" style="fill:#fff;opacity:0.65"></path><path d="M244.7,203.54s.93-.34-.2,1.19-1.57,2.06-1.57,2.06-.86-.44-1.2.18a4.73,4.73,0,0,1-2.42,1.81,2.83,2.83,0,0,0,.63-1.94c-.05-1.21.11-1.89,1.74-2A4.56,4.56,0,0,0,244.7,203.54Z" style="fill:#C4A283"></path><path d="M244.7,203.54s.93-.34-.2,1.19-1.57,2.06-1.57,2.06-.86-.44-1.2.18a4.73,4.73,0,0,1-2.42,1.81,2.83,2.83,0,0,0,.63-1.94c-.05-1.21.11-1.89,1.74-2A4.56,4.56,0,0,0,244.7,203.54Z" style="fill:#fff;opacity:0.65"></path><path d="M239.09,209.56s-.6-.79,1.73-1.6c.81-.28,1.78,5.74,1.78,5.74S238,213.18,239.09,209.56Z" style="fill:#C4A283"></path><path d="M239.09,209.56s-.6-.79,1.73-1.6c.81-.28,1.78,5.74,1.78,5.74S238,213.18,239.09,209.56Z" style="fill:#fff;opacity:0.65"></path><path d="M242.74,213.7a2.39,2.39,0,0,0-.54,1.92c.1,1.34,3.64,3.09,4.9,1.2a5.4,5.4,0,0,1-3-3.95Z" style="fill:#C4A283"></path><path d="M242.74,213.7a2.39,2.39,0,0,0-.54,1.92c.1,1.34,3.64,3.09,4.9,1.2a5.4,5.4,0,0,1-3-3.95Z" style="fill:#fff;opacity:0.65"></path><path d="M248.39,211.45a1.45,1.45,0,0,1-2.1,0l-1.31-.86a4.31,4.31,0,0,1,.77-2.21c.63-.57.63,0,.63,0a1,1,0,0,0,.2,1.62C247.67,210.64,249.19,210.21,248.39,211.45Z" style="fill:#C4A283"></path><path d="M242.67,208.06a3.77,3.77,0,0,0,.33,2.66,3.44,3.44,0,0,0,2.21,1.89,2.84,2.84,0,0,1-.51-2c.1-1.37.58-3.71.58-3.71S243.75,205.67,242.67,208.06Z" style="fill:#C4A283"></path><path d="M244.61,206.66a2.27,2.27,0,0,1,2.32-.74c1.32.46,2.13,1.94,3,2,0,0,.08,1.23-.74,1.09s-2.81-.67-3.34.38C245.87,209.37,243.92,208.29,244.61,206.66Z" style="fill:#C4A283"></path><path d="M250.21,210.61c-.23.39-.43.81-.7,1.18a3,3,0,0,1-2.49.93c-.8,0-1.61,0-2.4,0-.6,0-.4.12-.66.49s-.43.23-.67,0a5.68,5.68,0,0,1-.55-1,14.07,14.07,0,0,1-1.22-1.85c-.49-1.18-.59-3.36,1-3.67.48-.09.7,0,1-.45a3.81,3.81,0,0,1,2.19-1.64,3.94,3.94,0,0,1,3.35.55,4.17,4.17,0,0,1,1.14,1.26,4.58,4.58,0,0,1,.43,2A3.61,3.61,0,0,1,250.21,210.61Z" style="fill:#C4A283"></path><path d="M250.21,210.61c-.23.39-.43.81-.7,1.18a3,3,0,0,1-2.49.93c-.8,0-1.61,0-2.4,0-.6,0-.4.12-.66.49s-.43.23-.67,0a5.68,5.68,0,0,1-.55-1,14.07,14.07,0,0,1-1.22-1.85c-.49-1.18-.59-3.36,1-3.67.48-.09.7,0,1-.45a3.81,3.81,0,0,1,2.19-1.64,3.94,3.94,0,0,1,3.35.55,4.17,4.17,0,0,1,1.14,1.26,4.58,4.58,0,0,1,.43,2A3.61,3.61,0,0,1,250.21,210.61Z" style="fill:#fff;opacity:0.5"></path><path d="M250,207.9c.2.33.5,2.93-1.45,3.95s-4.69,0-4.69,0,1.08,2.33,3.24,2.56,4.18-1.11,4.4-2.47S251.36,208.25,250,207.9Z" style="fill:#fff"></path><path d="M246.29,211.43a1.45,1.45,0,0,1-.51-2.15c.83-1.51,2.24-2.25,1.14-2.71s-2.48-.44-3.06.94A2.85,2.85,0,0,0,246.29,211.43Z" style="fill:#fff"></path><path d="M248.39,211.45a2.51,2.51,0,0,0,.79-2.55c-.52-1.42-2-1.29-2.81,0,0,0,.94-.38,1.71.79A2.57,2.57,0,0,1,248.39,211.45Z" style="fill:#fff"></path><path d="M250.47,205.63c.32,1.23-.42,1.54-1.68.71s-2.42-1.43-3.5-.78a15.29,15.29,0,0,0-2.62,2.5A7.28,7.28,0,0,0,243,206c0-1,1.73-2.7,3.65-2.77S250.05,204,250.47,205.63Z" style="fill:#fff"></path><path d="M243,206.64a3.36,3.36,0,0,0-.82,3c.2,2.15,1.89,2.84,1.63,4s-1.42,1.1-2.61-.43a5,5,0,0,1-.7-4.79C241,206.67,242.44,206.26,243,206.64Z" style="fill:#fff"></path><path d="M250.32,204.77a3.23,3.23,0,0,1,3.55,1C255,207.2,255.59,207,255,209s-.25,2.6-3.06,4.22a8.93,8.93,0,0,1,.71-1.11c.73-1.06.18-2.8.25-4.41C253,205.57,250.32,204.77,250.32,204.77Z" style="fill:#fff"></path><path d="M251.22,214.43c0-.69-.25.4-1.42,1.19s-3.08,1.55-4.64,1a5.17,5.17,0,0,1-2.8-2.3,2.61,2.61,0,0,0,0,2.16c.51,1.55,2.78,2.88,5.06,2.33A4.69,4.69,0,0,0,251.22,214.43Z" style="fill:#fff"></path><path d="M239.09,209.56a4.08,4.08,0,0,0,.37,3.34c1,1.66,3.09.78,2.86,1.54s-.87,1.35-2.2.75A3.17,3.17,0,0,1,238,212C238.22,210.7,238.16,209.82,239.09,209.56Z" style="fill:#fff"></path><path d="M244.79,203.18c-.12,1-.73.76-2.07.88s-1.84.46-2.26,2.09a8.38,8.38,0,0,1-1.15,2.63,2.87,2.87,0,0,0,0-1.9c-.35-1.08-.63-3.85,2.06-4.45S244.84,202.74,244.79,203.18Z" style="fill:#fff"></path><path d="M250.49,204.15a2.67,2.67,0,0,0-1.08-3.32c-2-1.36-4.83.24-4.88,1s1.33,1.17,1.92.73,1.75-1.49,3-.63A2.61,2.61,0,0,1,250.49,204.15Z" style="fill:#fff"></path><path d="M258,213.89l-.43.62a4.57,4.57,0,0,1,.48,1.66c.05.86-1,2.43-1.78,2.3l-1.78-.31s-.05.81-.43.94a5.13,5.13,0,0,1-2.57-1.34,1,1,0,0,1-.19-.53s-.12,0-.23-.48a4.08,4.08,0,0,0-1.14-1.48,1.46,1.46,0,0,1,.26-1.87c.52-.52,1-1.22.92-1.58s.37-1.7,1-1.77,1.33-.12,1.52.33a3.71,3.71,0,0,0,.92,1s.19-.87,1-.86,2.29.74,2.38,1.58S258,213.89,258,213.89Z" style="fill:#C4A283"></path><path d="M258,213.89l-.43.62a4.57,4.57,0,0,1,.48,1.66c.05.86-1,2.43-1.78,2.3l-1.78-.31s-.05.81-.43.94a5.13,5.13,0,0,1-2.57-1.34,1,1,0,0,1-.19-.53s-.12,0-.23-.48a4.08,4.08,0,0,0-1.14-1.48,1.46,1.46,0,0,1,.26-1.87c.52-.52,1-1.22.92-1.58s.37-1.7,1-1.77,1.33-.12,1.52.33a3.71,3.71,0,0,0,.92,1s.19-.87,1-.86,2.29.74,2.38,1.58S258,213.89,258,213.89Z" style="fill:#fff;opacity:0.75"></path><path d="M257.5,214a1.23,1.23,0,0,1,.74,1.23c-.06.91-2.48,2.58-4.1,1.15a2.15,2.15,0,0,0,2.16-.93A5.15,5.15,0,0,1,257.5,214Z" style="fill:#C4A283"></path><path d="M257.5,214a1.23,1.23,0,0,1,.74,1.23c-.06.91-2.48,2.58-4.1,1.15a2.15,2.15,0,0,0,2.16-.93A5.15,5.15,0,0,1,257.5,214Z" style="fill:#fff;opacity:0.65"></path><path d="M254.09,211.24a1.76,1.76,0,0,1,.56-.76c.39-.26,2.29,1,2.29,1s-.62-.46-.42.06,1.06,1.19,1,2.44l-2.29-1.55S253.9,212,254.09,211.24Z" style="fill:#C4A283"></path><path d="M254.09,211.24a1.76,1.76,0,0,1,.56-.76c.39-.26,2.29,1,2.29,1s-.62-.46-.42.06,1.06,1.19,1,2.44l-2.29-1.55S253.9,212,254.09,211.24Z" style="fill:#fff;opacity:0.65"></path><path d="M254.2,211.13s.08,0-.17-.43a1.36,1.36,0,0,0-1.08-.6c-.22,0-.19.75-.6,1.09s-1.35,1.09-1.71.68a1,1,0,0,0,1.08.75C252.6,212.48,253.72,211.16,254.2,211.13Z" style="fill:#C4A283"></path><path d="M254.2,211.13s.08,0-.17-.43a1.36,1.36,0,0,0-1.08-.6c-.22,0-.19.75-.6,1.09s-1.35,1.09-1.71.68a1,1,0,0,0,1.08.75C252.6,212.48,253.72,211.16,254.2,211.13Z" style="fill:#fff;opacity:0.65"></path><path d="M251.4,212.63s.26-.5.36.56.13,1.45.13,1.45-.53.14-.43.53a2.62,2.62,0,0,1-.32,1.65,1.62,1.62,0,0,0-.47-1c-.48-.48-.67-.82,0-1.48A2.58,2.58,0,0,0,251.4,212.63Z" style="fill:#C4A283"></path><path d="M251.4,212.63s.26-.5.36.56.13,1.45.13,1.45-.53.14-.43.53a2.62,2.62,0,0,1-.32,1.65,1.62,1.62,0,0,0-.47-1c-.48-.48-.67-.82,0-1.48A2.58,2.58,0,0,0,251.4,212.63Z" style="fill:#fff;opacity:0.65"></path><path d="M251.34,217.23s-.55-.1.11-1.31c.23-.42,2.9,1.7,2.9,1.7S252.25,219.14,251.34,217.23Z" style="fill:#C4A283"></path><path d="M251.34,217.23s-.55-.1.11-1.31c.23-.42,2.9,1.7,2.9,1.7S252.25,219.14,251.34,217.23Z" style="fill:#fff;opacity:0.65"></path><path d="M254.41,217.57a1.32,1.32,0,0,0,.5,1c.54.52,2.67-.09,2.48-1.34a3,3,0,0,1-2.74-.51Z" style="fill:#C4A283"></path><path d="M254.41,217.57a1.32,1.32,0,0,0,.5,1c.54.52,2.67-.09,2.48-1.34a3,3,0,0,1-2.74-.51Z" style="fill:#fff;opacity:0.65"></path><path d="M255.9,214.51s0,.71-.88.78l-.86.14a2.37,2.37,0,0,1-.51-1.2c0-.48.26-.23.26-.23s0,.73.69.59S255.77,213.7,255.9,214.51Z" style="fill:#C4A283"></path><path d="M252.26,215.26a2.07,2.07,0,0,0,1.13,1,1.93,1.93,0,0,0,1.63-.05,1.58,1.58,0,0,1-1-.65c-.47-.61-1.15-1.76-1.15-1.76S251.81,213.87,252.26,215.26Z" style="fill:#C4A283"></path><path d="M252.53,214a1.27,1.27,0,0,1,.69-1.18c.72-.3,1.61,0,2-.32,0,0,.5.49.11.74s-1.42.78-1.24,1.41C254.08,214.6,252.86,214.89,252.53,214Z" style="fill:#C4A283"></path><path d="M256.34,213.48a6.63,6.63,0,0,1,.15.75,1.67,1.67,0,0,1-.68,1.32c-.33.3-.68.59-1,.91s-.12.2-.09.45-.09.26-.29.24a2.54,2.54,0,0,1-.59-.19,8.77,8.77,0,0,1-1.2-.3c-.64-.31-1.5-1.18-.94-1.92.16-.22.27-.28.25-.57a2.1,2.1,0,0,1,.29-1.5,2.2,2.2,0,0,1,1.59-1,2.35,2.35,0,0,1,.95.09,2.52,2.52,0,0,1,.94.68A2,2,0,0,1,256.34,213.48Z" style="fill:#C4A283"></path><path d="M256.34,213.48a6.63,6.63,0,0,1,.15.75,1.67,1.67,0,0,1-.68,1.32c-.33.3-.68.59-1,.91s-.12.2-.09.45-.09.26-.29.24a2.54,2.54,0,0,1-.59-.19,8.77,8.77,0,0,1-1.2-.3c-.64-.31-1.5-1.18-.94-1.92.16-.22.27-.28.25-.57a2.1,2.1,0,0,1,.29-1.5,2.2,2.2,0,0,1,1.59-1,2.35,2.35,0,0,1,.95.09,2.52,2.52,0,0,1,.94.68A2,2,0,0,1,256.34,213.48Z" style="fill:#fff;opacity:0.5"></path><path d="M255.21,212.45a2,2,0,0,1,.89,2.19,3.65,3.65,0,0,1-2,1.74,2.59,2.59,0,0,0,2.3-.15,2.25,2.25,0,0,0,.89-2.68C256.91,212.9,255.93,212.07,255.21,212.45Z" style="fill:#fff"></path><path d="M255,215.29a.81.81,0,0,1-1-.7c-.22-.93.09-1.77-.54-1.55s-1.2.76-.92,1.55A1.6,1.6,0,0,0,255,215.29Z" style="fill:#fff"></path><path d="M255.9,214.51a1.39,1.39,0,0,0-.63-1.35c-.75-.39-1.3.2-1.18,1a.83.83,0,0,1,1-.31A1.43,1.43,0,0,1,255.9,214.51Z" style="fill:#fff"></path><path d="M254.57,211.32c.6.39.41.8-.43.93s-1.54.31-1.74,1a8.4,8.4,0,0,0-.14,2,4,4,0,0,0-.66-1,2.18,2.18,0,0,1,.47-2.52A1.93,1.93,0,0,1,254.57,211.32Z" style="fill:#fff"></path><path d="M251.85,214.56a1.9,1.9,0,0,0,.77,1.53c.89.81,1.85.46,2.2,1.06s-.18,1-1.25.8a2.78,2.78,0,0,1-2.09-1.72C251,215.33,251.49,214.6,251.85,214.56Z" style="fill:#fff"></path><path d="M254.19,211a1.81,1.81,0,0,1,1.83-.93c1,.17,1.21-.11,1.7.9s.87,1.17.32,2.9a4.62,4.62,0,0,1-.12-.73c-.1-.71-1-1.22-1.56-1.92C255.61,210.34,254.19,211,254.19,211Z" style="fill:#fff"></path><path d="M258.19,214.69c-.24-.3.05.25-.14,1a3.14,3.14,0,0,1-1.54,2.16,2.81,2.81,0,0,1-2,.1c0,.15.2.56.8.9a2.44,2.44,0,0,0,3-.94A2.61,2.61,0,0,0,258.19,214.69Z" style="fill:#fff"></path><path d="M251.34,217.23a2.27,2.27,0,0,0,1.4,1.24c1,.31,1.59-.84,1.77-.43s.15.88-.62,1.13a1.75,1.75,0,0,1-2.06-.51C251.41,218,251.05,217.69,251.34,217.23Z" style="fill:#fff"></path><path d="M251.3,212.45c.32.44,0,.58-.53,1.13s-.59.89-.15,1.72a4.77,4.77,0,0,1,.52,1.52,1.63,1.63,0,0,0-.71-.8,1.8,1.8,0,0,1-.81-2.61C250.51,212.15,251.16,212.24,251.3,212.45Z" style="fill:#fff"></path><path d="M254,210.7a1.5,1.5,0,0,0-1.7-1c-1.34.19-1.91,1.92-1.64,2.26s1,0,1.07-.42.16-1.28,1-1.37A1.48,1.48,0,0,1,254,210.7Z" style="fill:#fff"></path></g><path id="freepik--shadow--inject-44" d="M289.84,249.41c-8.42-4.86-8.42-12.74,0-17.6s22.08-4.86,30.5,0,8.42,12.74,0,17.6S298.27,254.27,289.84,249.41Z" style="opacity:0.1"></path><path id="freepik--shadow--inject-44" d="M179.66,249.41c-8.42-4.86-8.42-12.74,0-17.6s22.08-4.86,30.5,0,8.42,12.74,0,17.6S188.08,254.27,179.66,249.41Z" style="opacity:0.1"></path><g id="freepik--Plate--inject-44"><path d="M209.45,230.85c-8-4.64-21-4.64-29.08,0h0V230c-4.2,2.43-6.2,5.64-6,8.82-.19,3.17,1.81,6.39,6,8.81,8,4.64,21,4.64,29.08,0S217.48,235.49,209.45,230.85Z" style="fill:#C4A283"></path><path d="M209.45,230.85c-8-4.64-21-4.64-29.08,0h0V230c-4.2,2.43-6.2,5.64-6,8.82-.19,3.17,1.81,6.39,6,8.81,8,4.64,21,4.64,29.08,0S217.48,235.49,209.45,230.85Z" style="fill:#fff;opacity:0.30000000000000004"></path><path d="M209.45,230c8,4.64,8,12.16,0,16.8s-21,4.63-29.08,0-8-12.16,0-16.8S201.42,225.38,209.45,230Z" style="fill:#fafafa"></path><path d="M185.05,231.63c-5.52,3.19-5.52,8.35,0,11.54s14.47,3.18,20,0,5.52-8.35,0-11.54S190.57,228.44,185.05,231.63Z" style="fill:#C4A283"></path><path d="M185.05,231.63c-5.52,3.19-5.52,8.35,0,11.54s14.47,3.18,20,0,5.52-8.35,0-11.54S190.57,228.44,185.05,231.63Z" style="fill:#fff;opacity:0.5"></path><path d="M185.73,232c-5.15,3-5.15,7.79,0,10.76s13.48,3,18.63,0,5.14-7.79,0-10.76S190.87,229.05,185.73,232Z" style="fill:#fafafa"></path></g><g id="freepik--plate--inject-44"><path d="M319.63,230.85c-8-4.64-21.05-4.64-29.08,0h0V230c-4.2,2.43-6.2,5.64-6,8.82-.19,3.17,1.81,6.39,6,8.81,8,4.64,21.05,4.64,29.08,0S327.67,235.49,319.63,230.85Z" style="fill:#C4A283"></path><path d="M319.63,230.85c-8-4.64-21.05-4.64-29.08,0h0V230c-4.2,2.43-6.2,5.64-6,8.82-.19,3.17,1.81,6.39,6,8.81,8,4.64,21.05,4.64,29.08,0S327.67,235.49,319.63,230.85Z" style="fill:#fff;opacity:0.30000000000000004"></path><path d="M319.63,230c8,4.64,8,12.16,0,16.8s-21.05,4.63-29.08,0-8-12.16,0-16.8S311.6,225.38,319.63,230Z" style="fill:#fafafa"></path><path d="M295.23,231.63c-5.52,3.19-5.52,8.35,0,11.54s14.47,3.19,20,0,5.52-8.35,0-11.54S300.75,228.44,295.23,231.63Z" style="fill:#C4A283"></path><path d="M295.23,231.63c-5.52,3.19-5.52,8.35,0,11.54s14.47,3.19,20,0,5.52-8.35,0-11.54S300.75,228.44,295.23,231.63Z" style="fill:#fff;opacity:0.5"></path><path d="M295.91,232c-5.14,3-5.14,7.79,0,10.76s13.48,3,18.63,0,5.14-7.79,0-10.76S301.05,229.05,295.91,232Z" style="fill:#fafafa"></path></g><g id="freepik--glass-of-wine--inject-44"><path id="freepik--shadow--inject-44" d="M286.55,224.79c-2.59-1.5-2.59-3.92,0-5.41a10.32,10.32,0,0,1,9.37,0c2.59,1.49,2.59,3.91,0,5.41A10.38,10.38,0,0,1,286.55,224.79Z" style="opacity:0.1"></path><g id="freepik--glass-of-wine--inject-44"><path d="M291.2,202.46a.72.72,0,0,0-.72.72l.07,16a1.5,1.5,0,0,1-1.28,1.48c-1.58.24-2.68.76-2.67,1.51,0,1,2.1,1.87,4.68,1.86s4.66-.88,4.65-1.92c0-.75-1.08-1.26-2.65-1.48a1.49,1.49,0,0,1-1.3-1.46l-.07-16.05A.7.7,0,0,0,291.2,202.46Z" style="fill:#C4A283"></path><path d="M291.2,202.46a.72.72,0,0,0-.72.72l.07,16a1.5,1.5,0,0,1-1.28,1.48c-1.58.24-2.68.76-2.67,1.51,0,1,2.1,1.87,4.68,1.86s4.66-.88,4.65-1.92c0-.75-1.08-1.26-2.65-1.48a1.49,1.49,0,0,1-1.3-1.46l-.07-16.05A.7.7,0,0,0,291.2,202.46Z" style="fill:#fff;opacity:0.5"></path><path d="M291.91,203.17a.7.7,0,0,0-.71-.71.72.72,0,0,0-.72.72l0,4a2.31,2.31,0,0,0,1.43,0Z" style="opacity:0.15"></path><path d="M296.94,180.33c-.42-1.24-2.66-2.2-5.66-2.2s-5.23.89-5.65,2.24-2.09,14.81-2.06,18.33a7.73,7.73,0,0,0,15.42,0A151.81,151.81,0,0,0,296.94,180.33Z" style="fill:#C4A283"></path><g style="opacity:0.6000000000000001"><path d="M296.94,180.33c-.42-1.24-2.66-2.2-5.66-2.2s-5.23.89-5.65,2.24-2.09,14.81-2.06,18.33a7.73,7.73,0,0,0,15.42,0A151.81,151.81,0,0,0,296.94,180.33Z" style="fill:#fff"></path></g><path d="M287.55,202.46c-3.65-3.43-3.05-14.48-2.31-20.1-.65,4.19-1.69,13.5-1.67,16.34a7.27,7.27,0,0,0,7.69,7.15,7.87,7.87,0,0,0,4.67-1.36A9.22,9.22,0,0,1,287.55,202.46Z" style="fill:#C4A283;opacity:0.2"></path><g style="opacity:0.2"><path d="M293.93,203.79c0,.6-1.19,1.09-2.65,1.09s-2.65-.49-2.65-1.09,1.18-1.08,2.65-1.08S293.93,203.19,293.93,203.79Z" style="fill:#C4A283"></path></g><ellipse cx="291.28" cy="180.67" rx="5.12" ry="2.09" style="fill:#C4A283;opacity:0.2"></ellipse></g></g><g id="freepik--glass-of-wine--inject-44"><path id="freepik--shadow--inject-44" d="M204,224.79c-2.59-1.5-2.59-3.92,0-5.41a10.32,10.32,0,0,1,9.37,0c2.59,1.49,2.59,3.91,0,5.41A10.38,10.38,0,0,1,204,224.79Z" style="opacity:0.1"></path><g id="freepik--glass-of-wine--inject-44"><path d="M208.64,202.46a.7.7,0,0,0-.71.72l.06,16a1.5,1.5,0,0,1-1.28,1.48c-1.58.24-2.68.76-2.67,1.51,0,1,2.1,1.87,4.68,1.86s4.66-.88,4.65-1.92c0-.75-1.08-1.26-2.65-1.48a1.49,1.49,0,0,1-1.3-1.46l-.06-16.05A.71.71,0,0,0,208.64,202.46Z" style="fill:#C4A283"></path><path d="M208.64,202.46a.7.7,0,0,0-.71.72l.06,16a1.5,1.5,0,0,1-1.28,1.48c-1.58.24-2.68.76-2.67,1.51,0,1,2.1,1.87,4.68,1.86s4.66-.88,4.65-1.92c0-.75-1.08-1.26-2.65-1.48a1.49,1.49,0,0,1-1.3-1.46l-.06-16.05A.71.71,0,0,0,208.64,202.46Z" style="fill:#fff;opacity:0.5"></path><path d="M209.36,203.17a.72.72,0,0,0-1.43,0v4a2.31,2.31,0,0,0,1.43,0Z" style="opacity:0.15"></path><path d="M214.39,180.33c-.42-1.24-2.67-2.2-5.67-2.2s-5.23.89-5.65,2.24S201,195.18,201,198.7a7.73,7.73,0,0,0,15.42,0A152,152,0,0,0,214.39,180.33Z" style="fill:#C4A283"></path><g style="opacity:0.6000000000000001"><path d="M214.39,180.33c-.42-1.24-2.67-2.2-5.67-2.2s-5.23.89-5.65,2.24S201,195.18,201,198.7a7.73,7.73,0,0,0,15.42,0A152,152,0,0,0,214.39,180.33Z" style="fill:#fff"></path></g><path d="M205,202.46c-3.64-3.43-3.05-14.48-2.3-20.1-.66,4.19-1.7,13.5-1.68,16.34a7.28,7.28,0,0,0,7.69,7.15,7.87,7.87,0,0,0,4.67-1.36A9.22,9.22,0,0,1,205,202.46Z" style="fill:#C4A283;opacity:0.2"></path><g style="opacity:0.2"><ellipse cx="208.72" cy="203.79" rx="2.65" ry="1.08" style="fill:#C4A283"></ellipse></g><path d="M213.84,180.67c0,1.16-2.29,2.1-5.12,2.1s-5.12-.94-5.12-2.1,2.29-2.09,5.12-2.09S213.84,179.52,213.84,180.67Z" style="fill:#C4A283;opacity:0.2"></path></g></g></g></g><g id="freepik--character-2--inject-44"><g id="freepik--Character--inject-44"><g id="freepik--Bottom--inject-44"><path d="M452.74,355.8a94.88,94.88,0,0,1,2.36,10.13c.68,3.84,1.12,6.69,2.56,13.23,1.32,6,2.85,10.39-1.44,15.65-3.51,4.31-11.48,5.59-13.92,1.16-2.79-5.07-1.67-12.45-1.55-17.69s-.63-7.81-.76-12c-.12-3.67,0-5.18.09-8.35C444.24,357.56,448.59,356.29,452.74,355.8Z" style="fill:#37474f"></path><path d="M449.6,283.19c3.63,15.38,1.95,22.48,2.32,30.58.49,10.69.56,11.77.45,21.89-.1,8.68.11,15.22.37,20.14.37,6.8,3.13,17.74,2.32,23-1.21,7.9-10.59,11-12.22,2.19-1-5.52-2-17.69-2.86-23.72-1-7-2.16-12.69-4-21.23s-6.69-34.74-9.34-50.63Z" style="fill:#ffbda7"></path><path d="M372.4,378.91a33.53,33.53,0,0,0,3.36-3.14,11.79,11.79,0,0,0,1.82-2.76,80.68,80.68,0,0,0,4.94-11.67c1.5-4.45,2.33-7.66,2.41-11.51.1-4.51-.35-53.72-1.16-68.13l24.93,1.74c.08,10.85-.21,15-1.85,23.77s-6.54,29.28-7,35.18c-.48,6.13-.85,7.48.49,9.42l0,.05c1.54,2.25,2.72,4.34,2.56,5.82-.19,1.78-1.44,3.33-2.47,4.75a23.74,23.74,0,0,0-2.18,4.22c-1.61,3.44-2.27,7.2-3,10.89a14.38,14.38,0,0,1-.93,3.29c-1.67,3.58-5.92,5.33-9.92,6s-8.3,1.14-12.18,0c-1.64-.47-3.08-1.21-3.28-3.08S370,380.93,372.4,378.91Z" style="fill:#ffbda7"></path><path d="M399.76,381.61l-1.43-.2c-.09-4.33.18-8.3-.93-10.34l2.05-5.32Z" style="fill:#263238"></path><path d="M403.32,361.87c-.32,3-2.08,6-2.22,11.88a49.2,49.2,0,0,0,.14,7.48l-1.48.38-.31-15.86Z" style="fill:#263238"></path><path d="M369.34,385.62s.07,1.74.84,2.3,2.4,2.28,10.32,1.82,10.7-2.34,13.41-4.72,3.43-8.62,3.84-11.57c.8-5.71,3.27-8.7,5.57-11.58a4.89,4.89,0,0,0,.24-3s-5.33.95-8.18,7.94-6.29,13.8-12.7,15.74A114.06,114.06,0,0,1,369.34,385.62Z" style="fill:#263238"></path><path d="M402.88,354.57c-1.12-1.92-2.15-2.45-3.24-4.11a8.29,8.29,0,0,0-2.56,4c-.49,1.53-1.77,9-3.7,15-1.44,4.48-3.85,6.85-7.17,8.07a13.79,13.79,0,0,1-6.53.71h0c-4.11-.54-3.14-3.39-3.14-3.39-1,1.26-4.89,4.35-7.21,6.62-1.33,1.29-.71,3.24.29,4.5,1.14,1,3.82,2.85,13.65,1.47,8.73-1.23,10.78-5.11,11.61-6.86a40.51,40.51,0,0,0,1.82-7.9,24.51,24.51,0,0,1,3.08-8.37c.2-.32.39-.63.58-.89h0c.59-.83,1.28-1.75,2.07-2.67.61-.71,1.09-1,1.27-1.72A6.14,6.14,0,0,0,402.88,354.57Z" style="fill:#37474f"></path><path d="M452.82,313c.26-10,1.67-15.89-2.28-29.74-1.05-30.63.31-69.42-3-84.47-3.57-16.48-7-21.71-10.87-29.27,0,0-12.91,6-26.08,6.64-15,.77-24.06-6.08-24.06-6.08-.06,2.47-1.81,12.33-3,27.52-2.13,27.93-1.32,65.48-.57,86.22.52,14.37.89,33.17,1.75,45.83,4.2,2.71,12.53,4.48,17.29,1.68,2.38-11.35,4.1-14.47,6.39-26.8,1.23-6.66,2.08-12.77.93-21.17.91-8.89,4.56-31.95,5.84-39.52,0,0,7.34,29.72,9.68,40.95,3.28,15.78,8.6,41.48,10.76,49.9,3.2,2.05,12.05,1.65,16.72-2.27C452.5,322.32,452.54,323.71,452.82,313Z" style="fill:#37474f"></path><path d="M415.23,243.86l-5.5-23s-9.91-3.23-15.49-7.87c0,0,3,5.86,12.13,9.83l5.84,26.56-2.38,30.15Z" style="fill:#37474f"></path></g><g id="freepik--Top--inject-44"><g id="freepik--Arm--inject-44"><path d="M351.27,122.16c-.66-1.26-.63-4.61-.78-7.28s-.7-5.53-.24-7.31c.56-2.2,1.14-4-1.24-2.82s-3,4.73-3.62,6.49c-.35,1-.64,1.89-1.64,1.1a25.87,25.87,0,0,1-4.25-5.49c-1.27-2.13-1.34-4.58-2.35-5.68s-1.33-.85-1.56-.62a11.48,11.48,0,0,0,.12,5.81c.72,2.67,2.39,4.45,2,4.63a1.08,1.08,0,0,1-.68,0c-.53-.12-2.42-3.46-3.56-5.48-1.36-2.4-2.29-4.66-3.22-5.36s-2-.92-2-.1a28.23,28.23,0,0,0,1.68,5.7c.68,1.51,3.73,5.42,3.37,5.64a.83.83,0,0,1-.74-.07c-.93-.59-2.24-2.78-3.29-4-1.3-1.51-2.26-3-3.05-3.75-1.15-1.12-1.72-.16-1.65.3.36,2.15,2.52,5.73,4.33,7.9,1.5,1.82,1.19,2.59.72,2.75s6.1,3.76,6.1,3.76Z" style="fill:#f0997a"></path><path d="M322.48,107.32c1.93.44,5.24,5.9,8.33,7.2,3.58,1,11.36.13,15.6,1.89s5.18,2.57,6.81,6.33c2,4.36,6,13.57,9.8,20.63h0s18.84-19.71,22.42-23.14,8.54-6.07,13.14-5.52l-7.79,28s-12,11-22.15,19.76c-8.55,7.36-13.06,6.08-16.88-1.58-.35-.67-.7-1.42-1.05-2.29-3.59-8.9-5.89-18.12-9.32-29.08,0,0-1.19-4.42-2.85-6.09-1.87-1.9-9.23-4.12-11-5.56s-3.32-3.91-5.1-6.59c-1-1.5-1.86-2.56-1.9-3.44C320.57,107.31,321.64,107.12,322.48,107.32Z" style="fill:#ffbda7"></path><path d="M363,143.37a40.81,40.81,0,0,1,3.39,12.16s1.43-4.48-1.92-13.71Z" style="fill:#f28f8f"></path><path d="M398.42,114.48A15,15,0,0,0,387.59,118c-4,3.27-24.57,25-24.57,25l-4.94-9.87a16,16,0,0,1-5.8,4.26,22.44,22.44,0,0,1-8.15,1.31s1.77,7.19,3.34,12.26,4.24,13.21,8.18,15.65,6.22.88,8.74-.53,26.06-21.93,26.06-21.93Z" style="fill:#C4A283"></path><path d="M398.42,114.48A15,15,0,0,0,387.59,118c-4,3.27-24.57,25-24.57,25l-4.94-9.87a16,16,0,0,1-5.8,4.26,22.44,22.44,0,0,1-8.15,1.31s1.77,7.19,3.34,12.26,4.24,13.21,8.18,15.65,6.22.88,8.74-.53,26.06-21.93,26.06-21.93Z" style="fill:#fff;opacity:0.75"></path><path d="M363,142.92c1.56,3.06,3.21,9.25,2.74,12.47,1.69-5.31-.44-12.25-1.33-13.95Z" style="opacity:0.2"></path></g><path d="M302.89,99.21h0c0-5.31,3.49-10.62,10.5-14.67,14-8.1,36.8-8.1,50.84,0,7.35,4.25,10.84,9.88,10.48,15.44v1.87c.36,5.57-3.13,11.2-10.48,15.45-14,8.1-36.8,8.1-50.84,0-7-4.06-10.5-9.37-10.5-14.68h0Z" style="fill:#37474f"></path><ellipse cx="338.82" cy="99.21" rx="35.94" ry="20.75" style="fill:#263238"></ellipse><path d="M305.74,98.74c0,4.65,3.23,9.28,9.69,12.81,12.92,7.08,33.87,7.08,46.79,0,6.45-3.53,9.68-8.16,9.68-12.81,0-17.33-14.81-31.37-33.08-31.37S305.74,81.41,305.74,98.74Z" style="fill:#455a64"></path><path d="M340.07,66.76h-2.5v4.55h0a.53.53,0,0,0,.35.54,2,2,0,0,0,1.77,0,.54.54,0,0,0,.36-.54h0Z" style="fill:#263238"></path><path d="M335.11,66.61a3.71,3.71,0,1,0,3.71-3.52A3.61,3.61,0,0,0,335.11,66.61Z" style="fill:#37474f"></path><path d="M336,65.88a2.06,2.06,0,1,0,2.06-2A2,2,0,0,0,336,65.88Z" style="fill:#455a64"></path><path d="M326.26,113.15c12.85,2.82,30.95-1.62,36.49-10s3.78-21.5-2.81-28.52a30.68,30.68,0,0,1,12,24.14c0,4.65-3.23,9.28-9.68,12.81-12.92,7.08-33.87,7.08-46.79,0a21,21,0,0,1-7.73-6.72C308.48,105.54,314.33,110.54,326.26,113.15Z" style="fill:#37474f"></path><path d="M436.7,169.56c-.61.28-13.22,6-26.07,6.63-15,.77-24.06-6.08-24.06-6.08,0,.43-.07,1.1-.18,2,.11-1.28.16-2.15.25-3.32a108,108,0,0,0-.4-13.39c-7.2-8.59-4.58-16-2.88-20.29s8.17-12.93,15.06-20.6l7.19.2,14.07.19L438,116.14c-8.23,12.69,1.45,30.27,1.45,30.27a106.89,106.89,0,0,0-4.23,16.68C434.88,164.7,435.56,166.89,436.7,169.56Z" style="fill:#C4A283"></path><path d="M436.7,169.56c-.61.28-13.22,6-26.07,6.63-15,.77-24.06-6.08-24.06-6.08,0,.43-.07,1.1-.18,2,.11-1.28.16-2.15.25-3.32a108,108,0,0,0-.4-13.39c-7.2-8.59-4.58-16-2.88-20.29s8.17-12.93,15.06-20.6l7.19.2,14.07.19L438,116.14c-8.23,12.69,1.45,30.27,1.45,30.27a106.89,106.89,0,0,0-4.23,16.68C434.88,164.7,435.56,166.89,436.7,169.56Z" style="fill:#fff;opacity:0.85"></path><g id="freepik--Head--inject-44"><path d="M435.53,75.26C433.76,68,427.16,61.39,416.71,60c-3.92-.54-11.26-1.75-19.3,3a7.52,7.52,0,0,0-3.67,6.83,5.77,5.77,0,0,0-5.19,4.66c-.33,2,.39,3.93.54,5.91a3.55,3.55,0,0,1-.56,2.54,1.59,1.59,0,0,1-2.31.23,1.83,1.83,0,0,0,.95,1.5,3.59,3.59,0,0,0,1.8.42,7.18,7.18,0,0,0,3.21-.73c-.14,1.92,1,4.3,1.46,6.2l1.53,6.28c.45,1.83.89,3.67,1.34,5.5a10.2,10.2,0,0,0,.57,2.36s25.56,7.75,25.81,3.29C425.23,100,440,93.61,435.53,75.26Z" style="fill:#37474f"></path><path d="M422.8,115.2,423,99.5s2.4,2.66,6.26.14c3.46-2.25,5.13-7.41,2.95-10.23-1.55-2-6.6-3.33-8.83.67-4.62-.74-7.37-2-11.25-9.82-3.37-6.74-9-9-15.8-8.36-2.32,1.58-4.75,6.47-5.24,19.68-.37,9.77,3.75,14.67,5.89,16.47,1.75,1.47,4.06,1.79,8,1.36l-.07,6.26c-1.8,6.72,0,9.69,0,9.69,1.64-.75,3.76-3.68,5.85-4.58C415,119,419.4,118.92,422.8,115.2Z" style="fill:#ffbda7"></path><path d="M405,109.41c4.18-.31,12.85-2.25,14.36-5.49a8.56,8.56,0,0,1-3.23,4.06C413.45,110,405,112,405,112Z" style="fill:#f0997a"></path><path d="M408,97.47l-4.85,1.88a2.55,2.55,0,0,0,3.32,1.58A2.73,2.73,0,0,0,408,97.47Z" style="fill:#f0997a"></path><path d="M393,83.35l4.21-1.55a2.15,2.15,0,0,0-2.81-1.37A2.35,2.35,0,0,0,393,83.35Z" style="fill:#263238"></path><path d="M411.88,84.21l-4.08-2a2.18,2.18,0,0,1,3-1.1A2.39,2.39,0,0,1,411.88,84.21Z" style="fill:#263238"></path><polygon points="402.19 84.98 401.75 95.76 396.39 93.7 402.19 84.98" style="fill:#f0997a"></polygon><path d="M396.87,87.89a1.92,1.92,0,0,1-1.75,2,1.8,1.8,0,0,1-2-1.68,1.91,1.91,0,0,1,1.75-2A1.8,1.8,0,0,1,396.87,87.89Z" style="fill:#263238"></path><path d="M410.47,88.86a1.93,1.93,0,0,1-1.76,2,1.81,1.81,0,0,1-2-1.69,1.93,1.93,0,0,1,1.76-2A1.8,1.8,0,0,1,410.47,88.86Z" style="fill:#263238"></path><path d="M423.39,89.17l-.29,5.42h0a3.83,3.83,0,0,1-3.65-4l.28-5.23Z" style="fill:#37474f"></path></g><path d="M405,125.36c2.73-1.73,2.49-4,7.5-6.45s10.38-6.43,10.39-7.61v-1.94c1.16.16,2.49,3.59,4.77,6.06-.46,5.36-7.38,9.78-12.21,13,0,0-1.49-4.44-2.84-6.07C409.51,118.69,408.57,124.64,405,125.36Z" style="fill:#C4A283"></path><path d="M405,125.36c2.73-1.73,2.49-4,7.5-6.45s10.38-6.43,10.39-7.61v-1.94c1.16.16,2.49,3.59,4.77,6.06-.46,5.36-7.38,9.78-12.21,13,0,0-1.49-4.44-2.84-6.07C409.51,118.69,408.57,124.64,405,125.36Z" style="fill:#fff;opacity:0.75"></path><path d="M405,125.36c-.95-1-1.25-4.2-1.32-5.63s-4.09,1.44-5.14,4.08c-.16-1.58.68-5.22,2.32-8.54s2.85-4.93,4.14-4.72l0,5.12a41.76,41.76,0,0,0-.52,4.85A19.4,19.4,0,0,0,405,125.36Z" style="fill:#C4A283"></path><path d="M405,125.36c-.95-1-1.25-4.2-1.32-5.63s-4.09,1.44-5.14,4.08c-.16-1.58.68-5.22,2.32-8.54s2.85-4.93,4.14-4.72l0,5.12a41.76,41.76,0,0,0-.52,4.85A19.4,19.4,0,0,0,405,125.36Z" style="fill:#fff;opacity:0.75"></path><path d="M403.48,125.61a2.67,2.67,0,0,0,.86-2.66c-1.61-3.7-5.87-4.64-7.07-4.27-2.15.66-2.77,7.8-.7,8.74S403.49,126,403.48,125.61Z" style="fill:#C4A283"></path><path d="M403.08,123.76c-.9-.49-4.57-2.82-4.89-2.05-.39,1,4,2.33,4,2.33s-4.5-.12-4.3,1c.13.74,4.78-.43,4.78-.43Z" style="opacity:0.1"></path><path d="M403.4,123l-.22.19a2.7,2.7,0,0,0-.8,2.36,2.54,2.54,0,0,0,1.65,1.62,3.5,3.5,0,0,0,3-.2,2.38,2.38,0,0,0,1.06-2.41C407.69,122.6,404.91,121.9,403.4,123Z" style="fill:#C4A283"></path><path d="M403.4,123l-.22.19a2.7,2.7,0,0,0-.8,2.36,2.54,2.54,0,0,0,1.65,1.62,3.5,3.5,0,0,0,3-.2,2.38,2.38,0,0,0,1.06-2.41C407.69,122.6,404.91,121.9,403.4,123Z" style="opacity:0.2"></path><path d="M407.06,124.28c.52-1.19,6-4.42,8.84-2,1.49,1.26-.17,7.87-2.09,8.44-2.77.83-6.49-2.1-7-4.18A2.74,2.74,0,0,1,407.06,124.28Z" style="fill:#C4A283"></path><path d="M406.79,124.9a4.32,4.32,0,0,0-.1.54c.33.41,4.62,2.54,4.8,1.8s-3.9-2.06-3.9-2.06,4.9-.37,4.7-1.26C412.17,123.34,407.38,124.5,406.79,124.9Z" style="opacity:0.1"></path><path d="M430.76,98.33s4.32,4.1.57,11.94a10.65,10.65,0,0,1,1.19,5,7.16,7.16,0,0,1-1.53,4.47,6.15,6.15,0,0,1,1.05,4.8,6.86,6.86,0,0,1-2.81,4.25,4.64,4.64,0,0,1-.29,4.17,8.37,8.37,0,0,1-3.61,3.3,5,5,0,0,1-.51,4.31c-1.6,2.63-3.31,2.77-3.31,2.77a4.67,4.67,0,0,1,.44,4.23,4,4,0,0,0,.64,4.16,7.77,7.77,0,0,1-5.18-5.81c-.85-3.24,1.23-4.12,1.23-4.12s-.67-3.06.17-4.87c.95-2.07,1.89-2.25,1.89-2.25a7.9,7.9,0,0,1,.19-4.59,4.22,4.22,0,0,1,2.24-2.65,11.65,11.65,0,0,1-.43-4.44c.37-2.34,1.47-2.88,1.47-2.88a6.86,6.86,0,0,1-.62-7.32,4.8,4.8,0,0,1-.68-3l0-4.06a40.92,40.92,0,0,1,3.07-5A7,7,0,0,0,430.76,98.33Z" style="fill:#37474f"></path><path d="M446.79,200.61c-.33,2.94-.35,4.37-1.15,6.38a7.55,7.55,0,0,1-2.22,3.31c-2.38,2.16-2.55,4.06-4.19,6.55-1.28,1.94-2.55,2.6-2.25,3.09a2.65,2.65,0,0,0,3.55.58,13.8,13.8,0,0,0,2.94-2.37c-.17.16-.22.9-.29,1.11a26.48,26.48,0,0,1-1.12,3.13,34.85,34.85,0,0,1-2.33,4.5,30.72,30.72,0,0,0-2.72,4.26c-.5,1.25.78,1.63,1.85,1.55s2.21-.88,3.42-.81a10.06,10.06,0,0,1,1.6.46c1.22.26,1.87-.28,2.89-.81a20.47,20.47,0,0,0,4.35-2.52,18.06,18.06,0,0,0,3.3-4.18,26,26,0,0,0,2-4.09c.54-1.42.75-2.93,1.16-4.4,1.21-4.29,1.52-9.63,2.2-15.25s2.72-28.16,2.72-28.16l-16.79-.67S447.12,197.67,446.79,200.61Z" style="fill:#ffbda7"></path><path d="M433.59,115.84c3.46.17,8.63-.28,12.64,3.55,4.38,4.17,7.38,14.65,10.66,25.41s4.16,14.15,5.65,22.11a24.18,24.18,0,0,1-.08,6.61c-.46,4.93-.87,8.91-.87,8.91s-9.14,3.47-15.38,0l-.77-13.69-12.18-30.5A34.84,34.84,0,0,1,433.59,115.84Z" style="fill:#C4A283"></path><path d="M433.59,115.84c3.46.17,8.63-.28,12.64,3.55,4.38,4.17,7.38,14.65,10.66,25.41s4.16,14.15,5.65,22.11a24.18,24.18,0,0,1-.08,6.61c-.46,4.93-.87,8.91-.87,8.91s-9.14,3.47-15.38,0l-.77-13.69-12.18-30.5A34.84,34.84,0,0,1,433.59,115.84Z" style="fill:#fff;opacity:0.75"></path><path d="M433.4,170.37,443.79,308s-7.15,6.86-34.51,5.21-31.62-7.32-31.62-7.32.69-48.34,2.34-80.23,6.26-53.89,6.26-53.89S412.19,181.59,433.4,170.37Z" style="fill:#C4A283"></path><path d="M433.4,170.37,443.79,308s-7.15,6.86-34.51,5.21-31.62-7.32-31.62-7.32.69-48.34,2.34-80.23,6.26-53.89,6.26-53.89S412.19,181.59,433.4,170.37Z" style="opacity:0.4"></path><path d="M386.72,165.83s5.37,4.87,18.64,5.79c15.18,1.06,30.06-5.62,30.06-5.62l2.42,5.76S422.27,179,405,177.46c-14.75-1.32-18.69-5.71-18.69-5.71Z" style="fill:#C4A283"></path><path d="M386.72,165.83s5.37,4.87,18.64,5.79c15.18,1.06,30.06-5.62,30.06-5.62l2.42,5.76S422.27,179,405,177.46c-14.75-1.32-18.69-5.71-18.69-5.71Z" style="opacity:0.2"></path></g></g></g><g id="freepik--character-1--inject-44"><g id="freepik--Chartacter--inject-44"><g id="freepik--bottom--inject-44"><polygon points="102.69 369.04 108.17 367.01 106.4 363.3 103.02 366.42 102.69 369.04"></polygon><path d="M97.1,359.15s-.24,3.56-.3,4.68,4.71,4.63,5.89,5.21l.33-2.63a20.6,20.6,0,0,1,2.72,4.27c.91,1.6,2.06,4.63,4.58,6.7,3.74,3.08,9.58,4.67,15.55,4.91s9.39-1.19,11.09-2.48,2.25-2.8,1.84-4.31S97.1,359.15,97.1,359.15Z" style="fill:#263238"></path><path d="M113.12,347.09l.09-2.06c1.1,0,1.21,3,2.81,5.59a53.37,53.37,0,0,0,8.34,10.79c6,5.55,11.4,9,14.09,11.54,3.6,3.34-2.78,8.58-12.52,8-4.83-.3-13.41-2.78-15.81-5.65s-3.85-7.33-5.77-9.41-6.06-4.2-7.25-6.73c-.66-1.39-.29-4.62.12-7.36.37-2.52.47-6.38,1.89-6.06l.09,1.3c.58,1.1,1.91,2.93,5.81,3.61C107,351,112.76,351.18,113.12,347.09Z" style="fill:#455a64"></path><path d="M108.14,350.76c1.86-.15,3.86-.76,4.65-2.43l0-.06a4.72,4.72,0,0,0,1.23,4c1.73,2.05,12.66,16.48,12.66,16.48s-10.18-11.91-12.13-14.16c-2.89-3.31-3.81-3.7-6.46-3.81Z" style="opacity:0.15"></path><path d="M110.55,354.58a.6.6,0,0,1-1.19-.14.6.6,0,0,1,1.19.14Z" style="opacity:0.15"></path><path d="M113.41,357.77a.6.6,0,0,1-.67.52.59.59,0,0,1-.52-.66.6.6,0,0,1,1.19.14Z" style="opacity:0.15"></path><path d="M116.26,361a.59.59,0,0,1-.66.53.6.6,0,0,1,.14-1.19A.59.59,0,0,1,116.26,361Z" style="opacity:0.15"></path><path d="M119.12,364.16a.6.6,0,0,1-.66.52.59.59,0,1,1,.66-.52Z" style="opacity:0.15"></path><path d="M122,367.35a.59.59,0,1,1-.52-.66A.6.6,0,0,1,122,367.35Z" style="opacity:0.15"></path><path d="M109.94,354.75a.33.33,0,0,1-.16-.07.24.24,0,0,1,0-.34,9.77,9.77,0,0,1,6.75-2.63h0a.24.24,0,0,1,.22.25.25.25,0,0,1-.25.23c-3.54-.23-6.36,2.46-6.39,2.49A.26.26,0,0,1,109.94,354.75Z" style="fill:#263238"></path><path d="M112.79,357.93a.23.23,0,0,1-.15-.07.24.24,0,0,1,0-.34,9.77,9.77,0,0,1,6.75-2.63h0a.24.24,0,0,1,.22.26.24.24,0,0,1-.25.22c-3.54-.22-6.36,2.47-6.39,2.49A.23.23,0,0,1,112.79,357.93Z" style="fill:#263238"></path><path d="M115.65,361.13a.19.19,0,0,1-.15-.07.25.25,0,0,1,0-.34,9.92,9.92,0,0,1,6.75-2.63h0a.25.25,0,0,1,.22.26.24.24,0,0,1-.26.22c-3.53-.22-6.35,2.47-6.38,2.5A.22.22,0,0,1,115.65,361.13Z" style="fill:#263238"></path><path d="M118.51,364.33a.26.26,0,0,1-.15-.07.25.25,0,0,1,0-.34,9.77,9.77,0,0,1,6.75-2.63h0a.24.24,0,1,1,0,.47,9.45,9.45,0,0,0-6.38,2.5A.28.28,0,0,1,118.51,364.33Z" style="fill:#263238"></path><path d="M121.37,367.52a.21.21,0,0,1-.15-.07.24.24,0,0,1,0-.34,9.77,9.77,0,0,1,6.75-2.63h0a.24.24,0,0,1,.22.25.23.23,0,0,1-.25.23c-3.53-.23-6.36,2.47-6.39,2.49A.22.22,0,0,1,121.37,367.52Z" style="fill:#263238"></path><path d="M69.08,385.22c.14,4.77-.33,8-1.77,10.92s-4.54,4.09-7.83,3.55-7.6-2.35-8.89-6.36-1.34-6.84-1-11.31Z" style="fill:#263238"></path><path d="M53.25,352c-1.32.22-1.15,6.63-1.35,13.08-.22,6.92-2,9.93-2.26,15.6-.27,6.48.32,9.32,2.9,13s10.87,6.78,14.3.88c2.8-4.8,2.49-9.83,1.64-16.21-.88-6.59-1.56-11.22-1.73-16.26-.16-4.82-.24-9.5-1.44-9.94,0,.72,0,1.62-.06,2.32,0,.54.07,3.15-.67,3.24a9.92,9.92,0,0,1-.18-1.81,2.15,2.15,0,0,0-.5-1.52,2.46,2.46,0,0,0-1.53-.52,38,38,0,0,0-4-.27c-.67,0-1.34,0-2,.09a5.51,5.51,0,0,0-1.66.39,1.19,1.19,0,0,0-.66.71,2,2,0,0,0,0,.74,5.37,5.37,0,0,1-.05,1.33c0,.2-.15.44-.34.41s-.24-.21-.25-.37c-.07-.77,0-1.34-.07-2.25,0-.41,0-1,0-1.4S53.26,352.37,53.25,352Z" style="fill:#455a64"></path><path d="M54.64,381.8a.47.47,0,0,0,.46.47.48.48,0,0,0,.48-.46.47.47,0,0,0-.46-.47A.48.48,0,0,0,54.64,381.8Z" style="opacity:0.15"></path><path d="M54.7,377.34a.47.47,0,0,0,.46.47.46.46,0,0,0,.47-.46.47.47,0,1,0-.93,0Z" style="opacity:0.15"></path><path d="M54.75,373.13a.48.48,0,0,0,.46.47.47.47,0,0,0,.47-.46.45.45,0,0,0-.45-.47A.47.47,0,0,0,54.75,373.13Z" style="opacity:0.15"></path><path d="M54.81,369a.45.45,0,0,0,.46.47.47.47,0,0,0,.47-.46.48.48,0,0,0-.46-.47A.47.47,0,0,0,54.81,369Z" style="opacity:0.15"></path><path d="M63.56,368.77a.45.45,0,0,0,.46.47.47.47,0,0,0,.47-.46.47.47,0,0,0-.46-.47A.46.46,0,0,0,63.56,368.77Z" style="opacity:0.15"></path><path d="M63.5,373a.47.47,0,0,0,.46.47.46.46,0,0,0,.47-.46.45.45,0,0,0-.46-.47A.47.47,0,0,0,63.5,373Z" style="opacity:0.15"></path><path d="M63.45,377.16a.46.46,0,0,0,.46.47.45.45,0,0,0,.47-.46.47.47,0,0,0-.46-.47A.46.46,0,0,0,63.45,377.16Z" style="opacity:0.15"></path><path d="M63.39,381.63a.47.47,0,0,0,.46.47.46.46,0,0,0,.47-.46.45.45,0,0,0-.45-.47A.47.47,0,0,0,63.39,381.63Z" style="opacity:0.15"></path><polygon points="59.67 384.06 60.53 352.87 58.81 352.99 59.67 384.06" style="opacity:0.15"></polygon><path d="M55.11,382h.07c3-.95,6.46-1,8.59-.21a.24.24,0,0,0,.31-.13.23.23,0,0,0-.14-.31c-2.26-.87-5.76-.79-8.9.2a.24.24,0,0,0-.16.3A.25.25,0,0,0,55.11,382Z" style="fill:#263238"></path><path d="M55.17,377.58a.2.2,0,0,0,.11,0c2.25-1.32,6.11-1.13,8.55-.19a.24.24,0,1,0,.17-.44c-2.55-1-6.59-1.17-9,.22a.23.23,0,0,0-.09.32A.24.24,0,0,0,55.17,377.58Z" style="fill:#263238"></path><path d="M55.22,373.37a.27.27,0,0,0,.12,0c2.24-1.32,6.1-1.13,8.54-.19a.24.24,0,0,0,.31-.14.22.22,0,0,0-.14-.3c-2.54-1-6.58-1.17-8.95.22a.23.23,0,0,0-.08.32A.22.22,0,0,0,55.22,373.37Z" style="fill:#263238"></path><path d="M55.27,369.22a.28.28,0,0,0,.12,0c2.24-1.31,6.11-1.12,8.55-.18a.23.23,0,0,0,.3-.14.24.24,0,0,0-.13-.31c-2.55-1-6.59-1.16-9,.23a.23.23,0,0,0-.08.32A.24.24,0,0,0,55.27,369.22Z" style="fill:#263238"></path><path d="M63.74,171.81c-2.84,5.63-6.43,16.49-7.11,23.75C53.85,225.44,52,271.42,52,271.42c-.32,3.12-.86,8.57-2.42,22.31-1.84,16.23-.48,71-.48,71s12.47,5.27,19.77.55c0,0,10.52-74.59,12.85-90.72,2-14.08,6.46-47.74,6.46-47.74L93.65,272s-.73,12.68-.45,20.88c.33,9.55,3.64,62.64,3.64,62.64s12.8,5.52,22.42-1.73c0,0,1.12-65.18,1.48-76.66.71-22.51-2-69.88-4.16-93.67Z" style="fill:#37474f"></path><path d="M88.2,226.82l1.81-11s10.84.29,16.61-4.8c0,0-2.32,6.86-13.34,7.59l-1.69,9.15L93,266.59Z" style="opacity:0.2"></path></g><g id="freepik--top--inject-44"><g id="freepik--arm--inject-44"><path d="M152.23,119.64c.74-1.4.7-5.12.87-8.09s.78-6.15.27-8.13c-.62-2.44-1.27-4.41,1.38-3.13s3.34,5.25,4,7.21c.39,1.11.72,2.1,1.82,1.23a29.72,29.72,0,0,0,4.73-6.11c1.42-2.37,1.49-5.09,2.61-6.31s1.48-1,1.74-.69.67,3.5-.14,6.46-2.66,4.94-2.25,5.14a1.15,1.15,0,0,0,.75,0c.59-.13,2.7-3.84,4-6.08,1.51-2.67,2.55-5.19,3.57-6s2.26-1,2.21-.11a31.24,31.24,0,0,1-1.86,6.34c-.76,1.68-4.16,6-3.75,6.27a.91.91,0,0,0,.82-.08c1-.65,2.49-3.08,3.65-4.42,1.46-1.68,2.51-3.32,3.4-4.17,1.28-1.24,1.91-.18,1.83.34-.4,2.38-2.8,6.36-4.81,8.78-1.67,2-1.33,2.88-.81,3.06s-6.77,4.17-6.77,4.17Z" style="fill:#b16668"></path><path d="M184,103.47c-2,.47-5.42,6.11-8.62,7.46-3.7,1-11.75.14-16.15,2s-5.35,2.66-7,6.54c-2.11,4.52-6.19,14.06-10.14,21.36h0S121,120.1,117.25,116.56s-8.83-6.28-13.6-5.72l7.58,29.6s14,11.69,24.55,20.74c8.85,7.62,14,5.68,18-2.25a25.9,25.9,0,0,0,1.08-2.37c3.85-9.53,8.89-26.57,10.31-30.34s1.91-4.73,3.62-6.47c1.93-2,8.22-3.86,10-5.35s3.44-4,5.28-6.81c1-1.56,1.93-2.66,2-3.57C186,103.46,184.91,103.27,184,103.47Z" style="fill:#f28f8f"></path><path d="M142.09,140.79a42.43,42.43,0,0,0-3.52,12.59s-1.47-4.65,2-14.19Z" style="fill:#f28f8f"></path><path d="M103.82,110.61A15.52,15.52,0,0,1,115,114.19c4.12,3.39,27.06,26.14,27.06,26.14l5.11-10.23a16.44,16.44,0,0,0,6,4.42c3.71,1.53,9,1.24,9,1.24s-2.44,7.56-4.06,12.8-4.39,13.67-8.46,16.21-6.94,1.51-9.55,0-28.59-23-28.59-23Z" style="fill:#C4A283"></path><path d="M103.82,110.61A15.52,15.52,0,0,1,115,114.19c4.12,3.39,27.06,26.14,27.06,26.14l5.11-10.23a16.44,16.44,0,0,0,6,4.42c3.71,1.53,9,1.24,9,1.24s-2.44,7.56-4.06,12.8-4.39,13.67-8.46,16.21-6.94,1.51-9.55,0-28.59-23-28.59-23Z" style="fill:#fff;opacity:0.75"></path><path d="M142.09,140.33c-1.62,3.16-3.33,9.57-2.85,12.9-1.74-5.5.47-12.68,1.38-14.44Z" style="opacity:0.2"></path></g><path d="M204.32,95.08h0c0-5.49-3.61-11-10.87-15.18-14.53-8.39-38.09-8.39-52.62,0-7.61,4.39-11.22,10.22-10.85,16v1.94c-.37,5.76,3.24,11.59,10.85,16,14.53,8.39,38.09,8.39,52.62,0,7.26-4.19,10.87-9.69,10.87-15.18h0Z" style="fill:#37474f"></path><ellipse cx="167.13" cy="95.08" rx="37.2" ry="21.48" style="fill:#455a64"></ellipse><path id="freepik--shadow--inject-44" d="M157.79,100.87c-5.16-3-5.16-7.81,0-10.79s13.52-3,18.68,0,5.17,7.81,0,10.79S163,103.85,157.79,100.87Z" style="fill:#37474f"></path><g id="freepik--wine-bottle--inject-44"><g id="freepik--wine-bottle--inject-44"><path d="M170.5,37.79V27.4l-3.37.13-3.36-.13V37.79a16.77,16.77,0,0,1-4.25,11.26c-1.69,1.89-3.27,4.93-3.35,9.77V93.87h0c0,2.36,2.32,4.76,6.89,5.88a17.28,17.28,0,0,0,8.15,0c4.56-1.12,6.86-3.52,6.88-5.88h0V58.82c-.08-4.84-1.66-7.88-3.35-9.77A16.76,16.76,0,0,1,170.5,37.79Z" style="fill:#C4A283"></path><path d="M170.5,37.79V27.4l-3.37.13-3.36-.13V37.79a16.77,16.77,0,0,1-4.25,11.26c-1.69,1.89-3.27,4.93-3.35,9.77V93.87h0c0,2.36,2.32,4.76,6.89,5.88a17.28,17.28,0,0,0,8.15,0c4.56-1.12,6.86-3.52,6.88-5.88h0V58.82c-.08-4.84-1.66-7.88-3.35-9.77A16.76,16.76,0,0,1,170.5,37.79Z" style="opacity:0.30000000000000004"></path><path d="M170.5,26.25s0-.06,0-.09a1.64,1.64,0,0,0-1-1.45,5.25,5.25,0,0,0-4.76,0,1.94,1.94,0,0,0-.87.89.47.47,0,0,0,0,.1s0,.05,0,.07a.79.79,0,0,0-.05.22v5.09a1.67,1.67,0,0,0,1,1.39,5.25,5.25,0,0,0,4.76,0,1.77,1.77,0,0,0,1-1.17.21.21,0,0,0,0-.11Z" style="fill:#37474f"></path><path d="M169.51,27.46a5.25,5.25,0,0,1-4.76,0c-1.32-.76-1.32-2,0-2.75a5.25,5.25,0,0,1,4.76,0C170.83,25.47,170.83,26.7,169.51,27.46Z" style="fill:#455a64"></path><path d="M178.09,59.9V79c0,1.63-1.07,3.25-3.21,4.47a17.3,17.3,0,0,1-12.46,1.23V65.6c4.07,1.13,9.09.72,12.46-1.23C177,63.14,178.09,61.51,178.09,59.9Z" style="fill:#fff"></path></g></g><g id="freepik--Chest--inject-44"><path d="M79.81,109.63c-5.56.47-18.19,1.71-22.59,2.52-3.83,1.52-2.88,4.17-3,8.77-.58,15.8,6.31,49.61,6.31,49.61l-3.36,22c7.54,7.71,41.48,13.85,60,1.91,0,0-.27-38.4-3.49-61-2.31-16.14-6.42-22.71-12.3-23Z" style="fill:#C4A283"></path><path d="M79.81,109.63c-5.56.47-18.19,1.71-22.59,2.52-3.83,1.52-2.88,4.17-3,8.77-.58,15.8,6.31,49.61,6.31,49.61l-3.36,22c7.54,7.71,41.48,13.85,60,1.91,0,0-.27-38.4-3.49-61-2.31-16.14-6.42-22.71-12.3-23Z" style="fill:#fff;opacity:0.85"></path><path d="M71.26,110.43l23.11,32.68,1.84-32.86,5.14.2a7.64,7.64,0,0,1,6.47,2.53c3.1,3.18,6.8,10.49,8.12,33s1.75,51.12,1.75,51.12l-13.93,5.58-4.63-15.77L94.9,203.83s-26.45.51-38.08-9.85c0-.66,3.22-23.45,3.22-23.45s-3-11.3-4.39-21.11a18.26,18.26,0,0,0,8.95-15.07c.57-10.8-3.79-22.74-3.79-22.74Z" style="fill:#263238"></path><path d="M68.17,65.72l.07-.12a13.79,13.79,0,0,0,.62-2.16,13.85,13.85,0,0,1,3.28-5.21A16,16,0,0,1,79,54.42a25.9,25.9,0,0,1,4.12-.82,50.06,50.06,0,0,1,5-.49C92,53,96,54,99.89,53.22a13.31,13.31,0,0,0,5-2,1.17,1.17,0,0,1,.6-.25c.36,0,.6.36.76.69a8.9,8.9,0,0,1-.23,8c1.31-.46,2.9-.88,4,0a3,3,0,0,1,1,2.32,5.24,5.24,0,0,1-1.59,3.8c1.61.54,2.32,2.43,2.32,3.85a5.45,5.45,0,0,1-1.72,4.5,7.08,7.08,0,0,1-3.58,1.59,15.42,15.42,0,0,1-3.84,0,45.75,45.75,0,0,1,.85,6.49,9.68,9.68,0,0,1-.61,4.62c-.71,1.5-2.26,2.12-3.69,2.79A24.14,24.14,0,0,1,88.31,91.8H88A23.71,23.71,0,0,1,74.65,87.2l0,3.9-.16,10.43a53.45,53.45,0,0,0-3.66-7.17c-1.24-1.94-2.69-4.2-5.21-11.39C63,75.27,63.24,68.31,68.17,65.72Z" style="fill:#455a64"></path><path d="M74.86,84.08c-1.38.23-2.16-2.18-3.35-3.47A4.32,4.32,0,0,0,64.37,82c-2.1,4.19.38,8.28,3.75,10a6,6,0,0,0,6.11-1.09l.36,20.53c3.62,4.85,10,2.37,17.41,4.82,2.35-5.66,1.75-2.9.08-5.55l.11-5.89s4.84.84,7.22.52c4-.52,6.51-3.58,7.8-7.83,2.06-6.81,1.61-17,1.24-25.7a18.25,18.25,0,0,0-1-5.86c-.9,1-4.49,2.89-9.59,3.4a28.55,28.55,0,0,1-13.1-1.49,5.84,5.84,0,0,1-1.22,4.32,5.45,5.45,0,0,1-3.46,1.9,15.9,15.9,0,0,1-2.2,6.79C77.4,81.7,76,84.08,74.86,84.08Z" style="fill:#f28f8f"></path><path d="M92.19,104.85s-8.77-2-11.81-3.67a10.12,10.12,0,0,1-4.17-4.3,13.92,13.92,0,0,0,2.31,5c2.19,2.92,13.62,5.29,13.62,5.29Z" style="fill:#b16668"></path><path d="M89.47,91.75,94.74,94A2.8,2.8,0,0,1,91,95.6,3,3,0,0,1,89.47,91.75Z" style="fill:#b16668"></path><path d="M106.29,76.48l-4.59-1.81a2.37,2.37,0,0,1,3.12-1.44A2.6,2.6,0,0,1,106.29,76.48Z" style="fill:#263238"></path><path d="M84.53,77.51l4.18-2.73A2.4,2.4,0,0,0,85.32,74,2.62,2.62,0,0,0,84.53,77.51Z" style="fill:#263238"></path><polygon points="95.24 78.18 95.94 90.17 101.7 87.91 95.24 78.18" style="fill:#b16668"></polygon><path d="M101.62,81.51a2.11,2.11,0,0,0,1.77,2.34,2,2,0,0,0,2.3-1.69,2.12,2.12,0,0,0-1.77-2.34A2,2,0,0,0,101.62,81.51Z" style="fill:#263238"></path><path d="M86.64,81.51a2.12,2.12,0,0,0,1.77,2.34,2,2,0,0,0,2.3-1.69,2.1,2.1,0,0,0-1.77-2.34A2,2,0,0,0,86.64,81.51Z" style="fill:#263238"></path><path d="M74.42,101.9l0,1.67c.24,1.27,2.47,3.89,8.72,6.79S92,116.29,92,116.29a16.24,16.24,0,0,0-5,.86c-2.88,1-7.68,4.55-9,4.5s-3.32-3.47-6.83-7.25c-3-3.18-3.4-3.6-3.4-3.6C70.1,108.3,72.3,101.61,74.42,101.9Z" style="fill:#C4A283"></path><path d="M92.05,116.18c4-.21,6.44,3.14,7,2.31s-2.26-10.29-6.87-12.06Z" style="fill:#C4A283"></path><g style="opacity:0.75"><path d="M74.42,101.9l0,1.67c.24,1.27,2.47,3.89,8.72,6.79S92,116.29,92,116.29a16.24,16.24,0,0,0-5,.86c-2.88,1-7.68,4.55-9,4.5s-3.32-3.47-6.83-7.25c-3-3.18-3.4-3.6-3.4-3.6C70.1,108.3,72.3,101.61,74.42,101.9Z" style="fill:#fff"></path><path d="M92.05,116.18c4-.21,6.44,3.14,7,2.31s-2.26-10.29-6.87-12.06Z" style="fill:#fff"></path></g><path d="M92.68,118.09a2.68,2.68,0,0,1-.62-2.73c1.94-3.53,6.27-4.08,7.44-3.6,2.08.85,2,8-.11,8.76S92.63,118.52,92.68,118.09Z" style="fill:#C4A283"></path><path d="M93.25,116.29c.93-.41,4.81-2.4,5-1.6.3,1-4.23,2-4.23,2s4.5.3,4.2,1.38c-.2.73-4.72-.87-4.72-.87Z" style="opacity:0.1"></path><path d="M93,115.52a1,1,0,0,1,.21.21,2.72,2.72,0,0,1,.58,2.42A2.57,2.57,0,0,1,92,119.62a3.53,3.53,0,0,1-2.95-.47,2.38,2.38,0,0,1-.84-2.5C88.77,114.71,91.59,114.26,93,115.52Z" style="fill:#C4A283"></path><path d="M93,115.52a1,1,0,0,1,.21.21,2.72,2.72,0,0,1,.58,2.42A2.57,2.57,0,0,1,92,119.62a3.53,3.53,0,0,1-2.95-.47,2.38,2.38,0,0,1-.84-2.5C88.77,114.71,91.59,114.26,93,115.52Z" style="opacity:0.2"></path><path d="M89.23,116.45c-.41-1.24-5.54-5-8.61-2.81-1.61,1.12-.55,7.86,1.3,8.6,2.69,1.08,6.66-1.5,7.35-3.53A2.73,2.73,0,0,0,89.23,116.45Z" style="fill:#C4A283"></path><path d="M89.45,117.08a3.31,3.31,0,0,1,0,.55c-.36.38-4.83,2.11-4.93,1.35s4.07-1.69,4.07-1.69-4.85-.82-4.57-1.68C84.24,115,88.9,116.63,89.45,117.08Z" style="opacity:0.1"></path></g><g id="freepik--arm--inject-44"><path d="M50.32,206.06c.19,3.29-.06,5.35,1.19,7.41a26.29,26.29,0,0,0,3.11,3.35c2.66,3,2.23,4.68,4.16,7.38,1.5,2.11,2.95,2.79,2.63,3.34a2.94,2.94,0,0,1-3.93.79,10.36,10.36,0,0,1-2.89-2.1A14.64,14.64,0,0,0,55,228a30.68,30.68,0,0,0,1.4,3.47,25.36,25.36,0,0,0,2.28,3.89c1,1.51,2.45,3,3.2,4.62.61,1.37-.8,1.85-2,1.8s-2.49-.88-3.84-.76a12.49,12.49,0,0,0-1.76.58c-1.34.34-2.09-.23-3.24-.78a22,22,0,0,1-4.94-2.62,19.84,19.84,0,0,1-3.86-4.51,30.57,30.57,0,0,1-2.35-4.46c-.66-1.55-1-3.23-1.47-4.85a121.83,121.83,0,0,1-3.69-17.09c-1-6.22-4.08-30.44-4.08-30.44l19.13-2S50.07,201.52,50.32,206.06Z" style="fill:#f28f8f"></path><path d="M60.81,111.61c-3.84.34-9.61.06-13.91,4.48-4.69,4.83-7.59,16.61-10.79,28.71s-4,15.91-5.35,24.83a23.7,23.7,0,0,0-.38,7.34c.73,5.47,1.31,10,1.31,10s11.56,3.34,18.36-.77L49.85,171l12.26-34.43A38.83,38.83,0,0,0,60.81,111.61Z" style="fill:#C4A283"></path><path d="M60.81,111.61c-3.84.34-9.61.06-13.91,4.48-4.69,4.83-7.59,16.61-10.79,28.71s-4,15.91-5.35,24.83a23.7,23.7,0,0,0-.38,7.34c.73,5.47,1.31,10,1.31,10s11.56,3.34,18.36-.77L49.85,171l12.26-34.43A38.83,38.83,0,0,0,60.81,111.61Z" style="fill:#fff;opacity:0.75"></path></g></g></g></g></svg>